<svg width="14" height="14" viewBox="0 0 14 14" fill="none" xmlns="http://www.w3.org/2000/svg">
<g clip-path="url(#clip0_414_7013)">
<path d="M3.4067 8.21423V5.24652C3.4067 2.55805 9.75591 2.55802 9.75591 5.24656V8.21424C9.75591 8.28209 9.78074 8.34736 9.82573 8.39816L11.3187 10.0841C11.6362 10.4426 11.3817 11.0079 10.9028 11.0079H2.25981C1.78094 11.0079 1.52642 10.4426 1.8439 10.0841L3.33688 8.39816C3.38186 8.34736 3.4067 8.28209 3.4067 8.21423Z" fill="white"/>
<path fill-rule="evenodd" clip-rule="evenodd" d="M8.96873 3.37143C9.65032 3.75625 10.1726 4.37916 10.1726 5.24656V8.16134L11.6307 9.80783C12.1863 10.4352 11.7409 11.4246 10.9028 11.4246H2.25984C1.42181 11.4246 0.976407 10.4352 1.53199 9.80783L2.99006 8.16134V5.24652C2.99006 4.37914 3.51235 3.75623 4.19394 3.37142C4.86797 2.99087 5.73726 2.81349 6.58133 2.81349C7.42541 2.81349 8.2947 2.99088 8.96873 3.37143ZM4.60364 4.09709C4.09476 4.38439 3.8234 4.76967 3.8234 5.24652V8.21423C3.8234 8.38425 3.76106 8.54768 3.64884 8.67439L2.15586 10.3603C2.07649 10.4499 2.14013 10.5913 2.25984 10.5913H10.9028C11.0225 10.5913 11.0862 10.4499 11.0068 10.3603L9.51382 8.67439L9.82576 8.39816L9.51382 8.67439C9.40161 8.54768 9.33927 8.38425 9.33927 8.21424V5.24656C9.33927 4.76969 9.0679 4.3844 8.55902 4.09709C8.04258 3.80551 7.32456 3.64683 6.58133 3.64683C5.8381 3.64683 5.12009 3.80551 4.60364 4.09709Z" fill="white"/>
<path d="M7.69242 2.39682C7.69242 3.01047 7.19496 3.50794 6.58131 3.50794C5.96766 3.50794 5.4702 3.01047 5.4702 2.39682C5.4702 1.78317 5.96766 1.28571 6.58131 1.28571C7.19496 1.28571 7.69242 1.78317 7.69242 2.39682Z" fill="white"/>
<path d="M8.52553 11.0079C8.52553 11.45 8.32067 11.8739 7.95602 12.1864C7.59136 12.499 7.09678 12.6746 6.58109 12.6746C6.06539 12.6746 5.55703 12.499 5.19237 12.1864C4.82772 11.8739 4.63687 11.45 4.63687 11.0079H6.58109H8.52553Z" fill="#804EEB"/>
<path fill-rule="evenodd" clip-rule="evenodd" d="M4.2202 10.5913H8.94219V11.0079C8.94219 11.583 8.67514 12.1188 8.22717 12.5028C7.78119 12.8851 7.18831 13.0913 6.58108 13.0913C5.97668 13.0913 5.36917 12.8868 4.9212 12.5028C4.46644 12.113 4.2202 11.5745 4.2202 11.0079L4.2202 10.5913ZM5.13575 11.4246C5.20317 11.5882 5.31223 11.7404 5.46353 11.8701C5.74488 12.1112 6.15408 12.2579 6.58108 12.2579C7.00525 12.2579 7.40152 12.1129 7.68485 11.8701C7.83818 11.7387 7.95033 11.5862 8.02063 11.4246H5.13575Z" fill="white"/>
</g>
<defs>
<clipPath id="clip0_414_7013">
<rect width="13.3333" height="13.3333" fill="white" transform="translate(0.333328 0.333332)"/>
</clipPath>
</defs>
</svg>
