<svg width="12" height="14" viewBox="0 0 12 14" fill="none" xmlns="http://www.w3.org/2000/svg">
<path d="M2.11111 12.0687V2C2.11111 1.69318 2.35985 1.44444 2.66667 1.44444H9.33334C9.64016 1.44444 9.88889 1.69318 9.88889 2V12.0687C9.88889 12.2838 9.65493 12.4173 9.46976 12.3078L6.28271 10.4238C6.10833 10.3207 5.89167 10.3207 5.7173 10.4238L2.53025 12.3078C2.34508 12.4173 2.11111 12.2838 2.11111 12.0687Z" fill="white"/>
<path fill-rule="evenodd" clip-rule="evenodd" d="M2.66668 1.86111C2.58997 1.86111 2.52779 1.92329 2.52779 2V11.8252L5.50528 10.0651C5.81044 9.88475 6.18959 9.88475 6.49475 10.0651L9.47224 11.8252V2C9.47224 1.92329 9.41005 1.86111 9.33335 1.86111H2.66668ZM9.6818 11.9491L9.68156 11.949L9.6818 11.9491ZM2.31823 11.9491C2.31829 11.9491 2.31836 11.949 2.31842 11.949L2.31823 11.9491ZM1.69446 2C1.69446 1.46306 2.12974 1.02778 2.66668 1.02778H9.33335C9.87029 1.02778 10.3056 1.46306 10.3056 2V12.0687C10.3056 12.6064 9.72067 12.9401 9.25774 12.6665L6.07069 10.7825C6.0271 10.7567 5.97293 10.7567 5.92934 10.7825L2.74229 12.6665C2.27936 12.9401 1.69446 12.6064 1.69446 12.0687V2Z" fill="white"/>
</svg>
