<svg width="15" height="15" viewBox="0 0 15 15" fill="none" xmlns="http://www.w3.org/2000/svg">
<g clip-path="url(#clip0_85_12357)">
<path d="M14.2105 7.89474C14.2105 7.0804 14.0657 6.3004 13.8 5.57843C13.6184 7.70566 12.4843 8.7983 11.2993 8.28948C10.1889 7.81264 10.9374 5.95382 10.9926 5.06685C11.0858 3.5633 10.9879 1.84224 8.25671 0.411323C9.39158 2.58238 8.38816 3.9308 7.33539 4.0133C6.16776 4.10409 5.09882 3.00988 5.49355 1.23356C4.21539 2.1754 4.17789 3.76066 4.57224 4.78619C4.98355 5.85514 4.55605 6.7433 3.55263 6.84198C2.43197 6.95251 1.80908 5.64159 2.38342 3.55264C1.35238 4.76424 0.787209 6.30382 0.789474 7.89474C0.789474 11.6009 3.79382 14.6053 7.5 14.6053C11.2062 14.6053 14.2105 11.6009 14.2105 7.89474Z" fill="#F4900C"/>
<path d="M12.2368 12.2368C12.2368 11.3735 12.0063 10.5647 11.6033 9.86801C11.6613 11.0854 10.592 11.5626 10.0164 11.3321C9.18553 10.9993 9.40816 10.4277 9.19421 9.24354C8.98026 8.05933 8.15803 7.2367 6.94066 6.87512C7.82881 9.37499 6.44842 10.2963 5.72487 10.4609C4.98592 10.6291 4.24342 10.4605 4.15855 8.8792C3.71569 9.31893 3.36436 9.84207 3.12486 10.4184C2.88535 10.9947 2.76242 11.6127 2.76316 12.2368C2.76316 14.8527 4.88408 16.9737 7.5 16.9737C10.1159 16.9737 12.2368 14.8527 12.2368 12.2368Z" fill="#FFCC4D"/>
</g>
<defs>
<clipPath id="clip0_85_12357">
<rect width="15" height="15" fill="white"/>
</clipPath>
</defs>
</svg>
