<svg width="9" height="15" viewBox="0 0 9 15" fill="none" xmlns="http://www.w3.org/2000/svg">
<path fill-rule="evenodd" clip-rule="evenodd" d="M5.13169 0.518178C4.77908 0.441799 4.48906 0.620977 4.30449 0.779109C4.11198 0.94405 3.92412 1.17902 3.73781 1.44458C3.36604 1.97447 2.90135 2.77287 2.3096 3.78955L0.615018 6.70103C0.419214 7.03737 0.243869 7.33857 0.137475 7.58894C0.0325934 7.83576 -0.0856333 8.21088 0.0893022 8.59232C0.274332 8.99577 0.644318 9.10619 0.898353 9.14644C1.14482 9.18549 1.46499 9.18543 1.80997 9.18538L3.43226 9.18531L3.22092 10.35C3.02237 11.4442 2.86461 12.3136 2.81374 12.9198C2.78854 13.2199 2.78261 13.5213 2.84042 13.7745C2.90294 14.0484 3.07956 14.3943 3.4837 14.4818C3.83631 14.5582 4.12632 14.379 4.31089 14.2209C4.50341 14.0559 4.69126 13.821 4.87758 13.5554C5.24935 13.0255 5.71403 12.2271 6.30576 11.2105L8.00035 8.299C8.19616 7.96265 8.37151 7.66144 8.47791 7.41106C8.58279 7.16424 8.70102 6.78912 8.52608 6.40768C8.34105 6.00423 7.97107 5.89381 7.71703 5.85356C7.47056 5.81451 7.1504 5.81456 6.80541 5.81462L5.18313 5.81465L5.39446 4.64997C5.59302 3.55581 5.75078 2.68643 5.80165 2.08023C5.82684 1.78006 5.83277 1.47868 5.77496 1.22545C5.71245 0.951621 5.53583 0.605718 5.13169 0.518178Z" fill="#FFC83A"/>
</svg>
