<svg width="93" height="93" viewBox="0 0 93 93" fill="none" xmlns="http://www.w3.org/2000/svg">
<path d="M61.1148 16.9426C61.7276 16.5472 62.4396 16.3331 63.1688 16.3249C63.2951 16.3249 63.4185 16.3318 63.5398 16.3428C63.4881 16.1259 63.4234 15.8713 63.3409 15.5948C63.0795 15.4637 62.8523 15.2734 62.6773 15.0392C62.5025 14.8048 62.3846 14.5329 62.3333 14.245C62.2397 14.2612 62.1448 14.2696 62.0498 14.2699C61.711 14.271 61.3793 14.1735 61.0949 13.9894C61.0252 13.9743 60.9565 13.955 60.889 13.9317C60.8 13.9474 60.7099 13.9558 60.6195 13.9566C60.1595 13.9592 59.7172 13.7805 59.3881 13.4592L58.5257 13.7576C58.5257 13.7576 60.7378 14.8737 61.1148 16.9426Z" fill="#F3F3F3"/>
<path d="M61.3724 81.7221C61.3719 83.3085 60.7415 84.8299 59.6198 85.9518C58.4981 87.0737 56.9769 87.7043 55.3905 87.7051H26.9131C25.3266 87.7045 23.8051 87.074 22.6831 85.9521C21.5612 84.8302 20.9307 83.3087 20.9302 81.7221V19.5802C20.9297 18.7942 21.0841 18.0156 21.3845 17.2892C21.6849 16.5629 22.1255 15.9028 22.6811 15.3467C23.2368 14.7906 23.8964 14.3495 24.6226 14.0485C25.3487 13.7474 26.1271 13.5924 26.9131 13.5923H30.7187C31.4036 13.5925 32.0604 13.8644 32.545 14.3483C32.9893 14.7897 33.2556 15.3792 33.2929 16.0044C33.2985 16.0562 33.3012 16.1084 33.3009 16.1606C33.3009 16.2053 33.3009 16.2491 33.3009 16.2929C33.3194 16.6721 33.4177 17.0432 33.5894 17.382C33.5943 17.39 33.5973 17.4009 33.6023 17.4089C33.8103 17.8165 34.1273 18.1584 34.518 18.3967C34.9087 18.635 35.3578 18.7602 35.8154 18.7587H46.4156C46.7553 18.7591 47.0918 18.6925 47.4057 18.5626C47.7196 18.4327 48.0048 18.2421 48.2448 18.0017C48.4283 17.8184 48.5817 17.6072 48.6994 17.3761C48.7043 17.3718 48.7081 17.3663 48.7103 17.3601C48.885 17.0287 48.9826 16.6622 48.9958 16.2879C48.9958 16.2551 48.9958 16.2252 48.9958 16.1884C49.0037 14.7651 50.0899 13.5894 51.5153 13.5894H54.729L58.1109 13.5476C58.1795 12.9011 58.4551 12.2207 58.7395 11.6199C58.8343 11.4119 58.9465 11.2123 59.0747 11.0231H27.1568C26.1264 11.0229 25.1059 11.2258 24.1538 11.6201C23.2017 12.0144 22.3366 12.5924 21.6079 13.3211C20.8793 14.0498 20.3013 14.9149 19.907 15.867C19.5126 16.8191 19.3098 17.8395 19.3099 18.8701V83.1047C19.3096 84.1352 19.5124 85.1557 19.9067 86.1079C20.3009 87.06 20.8789 87.9252 21.6077 88.6539C22.3364 89.3826 23.2014 89.9606 24.1536 90.3549C25.1058 90.7492 26.1263 90.9519 27.1568 90.9517H56.0122C57.0427 90.9518 58.0632 90.7489 59.0154 90.3546C59.9676 89.9603 60.8326 89.3824 61.5614 88.6537C62.2902 87.925 62.8683 87.0599 63.2627 86.1078C63.6571 85.1557 63.8601 84.1353 63.8601 83.1047V78.6814L61.3734 80.0988L61.3724 81.7221Z" fill="#F3F3F3"/>
<path d="M62.2398 32.4823C61.9414 32.1749 61.6529 32.6524 61.3724 32.3261V55.9624C61.5477 55.317 61.764 54.6834 62.02 54.0656C62.0777 53.9303 62.1353 53.794 62.195 53.6598C62.3214 53.3823 62.4536 53.1087 62.5929 52.8372C62.6307 52.7596 62.6695 52.686 62.7103 52.6124C62.751 52.5388 62.8008 52.4443 62.8475 52.3647C62.9271 52.2195 63.0126 52.0743 63.1002 51.932C63.1599 51.8246 63.2265 51.7212 63.2922 51.6167C63.3409 51.5342 63.3916 51.4546 63.4453 51.378C63.503 51.2845 63.5657 51.192 63.6264 51.1015C63.701 50.9891 63.7795 50.8767 63.8571 50.7663V33.9295C63.5587 33.6968 63.2603 33.4521 62.9798 33.2004C62.7242 32.9697 62.4775 32.731 62.2398 32.4823Z" fill="#F3F3F3"/>
<path d="M63.6224 16.0532C63.2783 16.4868 62.8515 16.1228 62.2965 16.1228C61.7912 16.1228 61.5008 16.9404 61.1805 16.6112C61.1984 16.6549 61.0184 17.3074 61.0333 17.3512C61.082 17.4825 61.1258 17.6198 61.1646 17.757V17.762C61.2143 17.9381 61.2521 18.1131 61.2849 18.2941C61.2929 18.3349 61.3018 18.3797 61.3068 18.4235C61.3207 18.516 61.3347 18.6124 61.3426 18.7079C61.3535 18.7965 61.3597 18.8854 61.3615 18.9745C61.3705 19.074 61.3725 19.1824 61.3725 19.2898V26.2525C61.4537 26.3203 61.5213 26.403 61.5714 26.4962C61.9693 27.2223 62.3502 26.6782 62.7759 27.3914C63.0027 27.7594 63.4722 28.0469 63.7129 27.7803C63.8015 27.6808 63.8562 27.2551 63.8562 27.096V18.6831C63.8561 18.2836 63.8264 17.8846 63.7676 17.4895C63.7497 17.3393 63.6542 16.2053 63.6224 16.0532Z" fill="#F3F3F3"/>
<path d="M33.3039 16.0244C33.484 16.3595 33.5828 16.7322 33.5923 17.1126C33.4208 16.7742 33.3225 16.4034 33.3039 16.0244Z" fill="#F3F3F3"/>
<path d="M48.9958 16.0182C48.9826 16.3926 48.885 16.7591 48.7103 17.0904C48.7295 16.717 48.8268 16.3518 48.9958 16.0182Z" fill="#F3F3F3"/>
<path d="M87.0747 46.3666C77.5716 49.3337 72.659 42.0666 72.659 42.0666C73.018 41.5345 72.4749 40.5338 72.4749 40.5338L72.1447 38.8429C67.9462 38.637 64.1476 34.5449 64.1476 34.5449C69.5795 33.5821 67.238 30.3285 67.238 30.3285L70.9829 33.2608L71.3888 33.225C71.4385 28.1522 74.6324 25.7829 75.633 24.9802C76.6336 24.1775 76.8047 24.9742 76.8047 24.9742C76.8047 24.9742 76.3651 26.5975 78.241 26.8223C80.117 27.0471 81.4906 25.2895 81.4906 25.2895C82.1342 23.8473 82.8752 24.7415 82.8752 24.7415C86.091 26.4523 86.6728 30.6856 87.3631 33.6438C87.8396 35.6709 88.7467 40.0395 89.3525 42.1681C89.5643 42.9047 89.522 43.6914 89.2321 44.4011C89.0389 44.867 88.7453 45.2846 88.3724 45.6242C87.9996 45.9639 87.5565 46.2174 87.0747 46.3666Z" fill="#353642"/>
<path d="M87.0747 46.3666C77.5716 49.3337 72.659 42.0666 72.659 42.0666C73.018 41.5345 72.4749 40.5338 72.4749 40.5338L72.1447 38.8429C67.9462 38.637 64.1476 34.5449 64.1476 34.5449C67.7463 32.7456 67.238 30.3285 67.238 30.3285L70.9829 33.2608L71.3888 33.225C71.4385 28.1522 74.6324 25.7829 75.633 24.9802C76.6336 24.1775 76.8047 24.9742 76.8047 24.9742C76.8047 24.9742 76.3651 26.5975 78.241 26.8223C80.117 27.0471 81.4906 25.2895 81.4906 25.2895C82.1342 23.8473 82.8752 24.7415 82.8752 24.7415C86.091 26.4523 86.6728 30.6856 87.3631 33.6438C87.8396 35.6709 88.7467 40.0395 89.3525 42.1681C89.5643 42.9047 89.522 43.6914 89.2321 44.4011C89.0389 44.867 88.7453 45.2846 88.3724 45.6242C87.9996 45.9639 87.5565 46.2174 87.0747 46.3666Z" fill="#353642"/>
<path d="M75.8737 20.7502C76.4676 20.7502 76.949 20.2688 76.949 19.6749C76.949 19.081 76.4676 18.5997 75.8737 18.5997C75.2799 18.5997 74.7985 19.081 74.7985 19.6749C74.7985 20.2688 75.2799 20.7502 75.8737 20.7502Z" fill="#CAE3D9"/>
<path d="M77.3389 21.8401C77.2454 22.5284 76.6615 22.978 76.0528 22.8786" stroke="black" stroke-width="0.366682" stroke-miterlimit="10"/>
<path d="M70.1315 15.8442C70.2338 16.3121 70.4802 16.736 70.8363 17.0563C71.1923 17.3767 71.6398 17.5772 72.1159 17.6296C72.1595 17.4383 72.249 17.2605 72.3765 17.1114C72.9196 16.4937 73.1255 17.6754 74.8442 16.8647C77.2314 15.7377 78.1097 16.428 78.1097 16.428C78.1873 16.4887 78.1674 17.0318 78.1764 17.1243C78.2281 17.6863 78.2758 18.2463 78.3345 18.8083C78.3684 19.1505 78.4012 19.4906 78.434 19.8308C78.4673 19.7741 78.5038 19.7193 78.5434 19.6667C78.7742 18.9097 79.4157 18.0235 80.2343 18.4273C80.4008 18.5121 80.5446 18.6351 80.6541 18.7864C81.1882 19.5185 80.7536 20.2068 80.1737 20.7111C80.0265 20.8682 79.8627 21.009 79.6853 21.1308C79.7758 21.3298 80.1468 22.1116 80.1468 22.1146C80.1846 22.1941 81.5642 20.6942 81.6677 20.5301C81.8263 20.1255 81.9154 19.6971 81.9313 19.2629C81.9889 17.4784 81.3036 15.3836 79.8773 14.3333C79.5242 14.0727 79.4008 13.826 79.3799 13.4808C79.3788 13.4622 79.3721 13.4444 79.3606 13.4297C79.3492 13.415 79.3336 13.4041 79.3159 13.3984C79.2982 13.3927 79.2791 13.3925 79.2613 13.3978C79.2434 13.4031 79.2275 13.4137 79.2158 13.4281C78.7523 13.9414 77.6313 13.8668 77.6313 13.8668C73.7521 12.8144 72.4133 14.5193 71.6235 14.8107C71.3019 14.9256 70.9504 14.9256 70.6288 14.8107C70.6078 14.9178 70.5579 15.0171 70.4844 15.0978C70.4109 15.1784 70.3167 15.2374 70.2121 15.2683L70.229 15.4493C70.2432 15.5883 70.2088 15.7278 70.1315 15.8442Z" fill="#F3F3F3"/>
<path d="M78.4549 23.154C78.1993 23.3529 77.4851 23.9258 77.1996 24.0959C76.9902 24.2225 76.7702 24.3306 76.5421 24.4192C74.8253 25.0667 73.216 23.5946 72.6261 22.1215C72.1407 20.907 72.0293 19.5503 72.0641 18.2533C72.0701 18.119 72.0751 17.9817 72.086 17.8444C72.0846 17.8362 72.0846 17.8277 72.086 17.8196C72.0913 17.757 72.1005 17.6948 72.1139 17.6336C72.1571 17.4421 72.2466 17.2642 72.3745 17.1154C72.9166 16.4987 73.1225 17.6803 74.8413 16.8687C77.2285 15.7417 78.1077 16.432 78.1077 16.432C78.1843 16.4927 78.1644 17.0358 78.1734 17.1283C78.2251 17.6913 78.2729 18.2503 78.3325 18.8123C78.3654 19.1554 78.3982 19.4946 78.432 19.8348C78.44 19.9283 78.4489 20.0188 78.4569 20.1113C78.469 19.9608 78.4974 19.812 78.5414 19.6677C78.7722 18.9107 79.4137 18.0255 80.2324 18.4283C80.3988 18.5131 80.5426 18.6361 80.6521 18.7874C81.1862 19.5195 80.7516 20.2078 80.1717 20.7121C80.0245 20.8383 79.8689 20.9546 79.7062 21.0602L79.6624 21.0881L79.6843 21.1318C79.7748 21.3308 80.1448 22.1136 80.1448 22.1156C80.1826 22.1951 81.5622 20.6962 81.6667 20.531C82.026 19.9764 82.2511 19.3457 82.3241 18.6889C82.3331 18.6064 82.3381 18.5268 82.341 18.4442C82.3987 16.6598 81.7134 14.565 80.2871 13.5147C79.933 13.2541 79.8096 13.0074 79.7897 12.6622C79.7886 12.6436 79.7819 12.6258 79.7704 12.6111C79.759 12.5964 79.7434 12.5854 79.7257 12.5798C79.708 12.574 79.6889 12.5738 79.6711 12.5792C79.6532 12.5844 79.6373 12.595 79.6256 12.6095C79.1621 13.1228 78.0401 13.0482 78.0401 13.0482C74.1659 11.9958 72.8221 13.7007 72.0333 13.9921C71.2445 14.2835 70.5522 13.7454 70.5522 13.7454L70.6348 14.6277C70.6403 14.6882 70.6366 14.7492 70.6239 14.8087C70.6029 14.9157 70.5529 15.015 70.4794 15.0957C70.4059 15.1763 70.3117 15.2353 70.2071 15.2663C70.1675 15.2807 70.1259 15.289 70.0838 15.2911H70.0529C70.0605 15.4748 70.0845 15.6577 70.1245 15.8372C70.2271 16.3058 70.4744 16.7302 70.8313 17.0506C71.1883 17.3711 71.6369 17.5711 72.1139 17.6226" stroke="black" stroke-width="0.366682" stroke-miterlimit="10"/>
<path d="M72.66 20.6444C73.2538 20.6444 73.7352 20.163 73.7352 19.5692C73.7352 18.9754 73.2538 18.494 72.66 18.494C72.0661 18.494 71.5847 18.9754 71.5847 19.5692C71.5847 20.163 72.0661 20.6444 72.66 20.6444Z" fill="#CAE3D9"/>
<path d="M76.3223 20.0766C76.3229 20.164 76.2975 20.2497 76.2493 20.3227C76.2012 20.3958 76.1324 20.4528 76.0518 20.4867C75.9711 20.5206 75.8823 20.5297 75.7963 20.513C75.7105 20.4963 75.6315 20.4545 75.5694 20.3929C75.5074 20.3312 75.465 20.2525 75.4478 20.1668C75.4305 20.081 75.439 19.9921 75.4724 19.9113C75.5057 19.8304 75.5623 19.7613 75.635 19.7125C75.7077 19.6639 75.7933 19.6379 75.8807 19.6379C75.9236 19.637 75.9663 19.6434 76.007 19.6568C75.9858 19.677 75.9688 19.7012 75.957 19.728C75.9452 19.7548 75.9389 19.7837 75.9384 19.813C75.9389 19.8694 75.9616 19.9232 76.0017 19.9629C76.0417 20.0026 76.0958 20.0248 76.1522 20.0248C76.1807 20.0247 76.2087 20.0188 76.2348 20.0072C76.2607 19.9958 76.2841 19.9791 76.3034 19.9582C76.3163 19.9963 76.3227 20.0363 76.3223 20.0766Z" fill="black"/>
<path d="M73.1961 19.9323C73.1959 20.0193 73.1699 20.1041 73.1216 20.1762C73.0731 20.2484 73.0045 20.3046 72.9242 20.3378C72.844 20.3709 72.7556 20.3795 72.6704 20.3625C72.5853 20.3455 72.507 20.3037 72.4456 20.2423C72.3841 20.1808 72.3423 20.1026 72.3253 20.0174C72.3083 19.9322 72.3169 19.8439 72.3501 19.7636C72.3832 19.6833 72.4394 19.6146 72.5116 19.5662C72.5837 19.5179 72.6686 19.4919 72.7554 19.4917C72.8127 19.4914 72.8696 19.5025 72.9225 19.5245C72.8926 19.5445 72.8678 19.5714 72.8505 19.6029C72.8332 19.6343 72.8238 19.6697 72.8231 19.7056C72.8232 19.7335 72.8289 19.7611 72.8397 19.7868C72.8505 19.8126 72.8664 19.8359 72.8861 19.8555C72.906 19.875 72.9296 19.8906 72.9555 19.901C72.9813 19.9115 73.009 19.9167 73.0369 19.9164C73.0645 19.9168 73.0917 19.9117 73.1172 19.9012C73.1427 19.8908 73.1657 19.8753 73.1851 19.8558C73.1918 19.8808 73.1955 19.9065 73.1961 19.9323Z" fill="black"/>
<path d="M74.2872 19.6576C74.2872 19.6576 74.0117 20.8821 73.9789 21.0054C73.8794 21.4033 74.6692 21.2799 74.6692 21.2799" stroke="black" stroke-width="0.366682" stroke-miterlimit="10"/>
<path d="M75.2978 17.3463C75.2978 17.3463 76.5959 16.8599 77.318 17.8347" stroke="black" stroke-width="0.366682" stroke-miterlimit="10"/>
<path d="M70.9829 18.3201C70.9829 18.3201 71.6513 17.1056 72.833 17.3752" stroke="black" stroke-width="0.366682" stroke-miterlimit="10"/>
<path d="M75.8737 20.945C76.5752 20.945 77.1439 20.3763 77.1439 19.6749C77.1439 18.9733 76.5752 18.4047 75.8737 18.4047C75.1722 18.4047 74.6035 18.9733 74.6035 19.6749C74.6035 20.3763 75.1722 20.945 75.8737 20.945Z" stroke="black" stroke-width="0.366682" stroke-miterlimit="10"/>
<path d="M72.66 20.8393C73.3615 20.8393 73.9302 20.2707 73.9302 19.5691C73.9302 18.8676 73.3615 18.2989 72.66 18.2989C71.9584 18.2989 71.3898 18.8676 71.3898 19.5691C71.3898 20.2707 71.9584 20.8393 72.66 20.8393Z" stroke="black" stroke-width="0.366682" stroke-miterlimit="10"/>
<path d="M72.659 18.7058H72.6878C72.9165 18.7095 73.1344 18.8039 73.2936 18.9682C73.4526 19.1326 73.5399 19.3535 73.5362 19.5821C73.5326 19.8109 73.4382 20.0287 73.2739 20.1879C73.1094 20.3469 72.8886 20.4343 72.6599 20.4306H72.6331C72.4044 20.4269 72.1865 20.3325 72.0273 20.1682C71.8683 20.0039 71.781 19.783 71.7846 19.5543C71.7883 19.3256 71.8827 19.1077 72.047 18.9485C72.2114 18.7895 72.4323 18.7021 72.6609 18.7058H72.659ZM72.6609 18.4999C72.3777 18.4954 72.104 18.6035 71.9004 18.8005C71.6968 18.9976 71.5798 19.2675 71.5753 19.5508C71.5707 19.8341 71.6788 20.1077 71.8759 20.3113C72.0729 20.5149 72.3428 20.6319 72.6261 20.6365H72.6619C72.9452 20.641 73.2188 20.5329 73.4225 20.3359C73.6261 20.1388 73.743 19.869 73.7476 19.5856C73.7522 19.3023 73.6441 19.0287 73.447 18.8251C73.25 18.6216 72.98 18.5045 72.6967 18.4999H72.6609Z" fill="white"/>
<path d="M74.6035 19.633L73.9291 19.6111" stroke="black" stroke-width="0.366682" stroke-miterlimit="10"/>
<path d="M75.5564 65.1391L74.2077 73.4008L72.7465 73.182C72.4301 73.1322 72.146 72.9598 71.9555 72.7023C71.7652 72.4447 71.6838 72.1225 71.729 71.8054L71.8374 70.9192L72.832 63.6282C74.4514 64.5771 75.5564 65.1391 75.5564 65.1391Z" fill="#F3F3F3"/>
<path d="M68.8832 75.8168L63.8601 78.7013L61.3735 80.1326L60.6115 80.5713C60.613 80.5568 60.613 80.542 60.6115 80.5275L60.0147 80.8677L59.2469 79.3926C59.0675 79.052 59.0294 78.6546 59.1409 78.2861C59.2524 77.9177 59.5046 77.6081 59.8427 77.4241L68.546 72.6587L68.554 72.7383L68.8832 75.8168Z" fill="#F3F3F3"/>
<path d="M61.5376 55.4002C61.4829 55.3266 61.4282 55.255 61.3725 55.1924C61.0572 54.8134 60.7478 54.5588 60.5389 54.1281C60.3724 53.7774 60.3244 53.3822 60.4021 53.0018C60.4798 52.6214 60.679 52.2767 60.9696 52.0194C61.0899 51.9157 61.2238 51.829 61.3675 51.7617" stroke="black" stroke-width="0.366682" stroke-miterlimit="10"/>
<path d="M72.1298 68.6523L71.8374 70.9171L71.725 71.8034C71.6798 72.1205 71.7612 72.4427 71.9516 72.7003C72.142 72.9579 72.4261 73.1302 72.7425 73.18L74.2037 73.3988L75.5525 65.1371C75.5525 65.1371 74.4474 64.5751 72.83 63.6242C71.6732 62.9439 70.2439 62.0636 68.7778 61.049" stroke="black" stroke-width="0.366682" stroke-miterlimit="10"/>
<path d="M71.8811 70.6088C71.8811 70.6088 70.3036 69.7584 68.3003 68.5339" stroke="black" stroke-width="0.366682" stroke-miterlimit="10"/>
<g opacity="0.68">
<path opacity="0.68" d="M61.3725 32.4522V55.9621C60.9368 57.5715 60.7289 59.2445 60.6185 60.9275V32.5118C60.8632 32.8301 61.1148 32.1478 61.3725 32.4522Z" fill="#CAE3D9"/>
<path opacity="0.68" d="M61.3724 80.0989V81.4507C61.3719 83.0372 60.7415 84.5585 59.6198 85.6803C58.4981 86.8022 56.9769 87.4328 55.3905 87.4336H26.9131C25.3265 87.4331 23.8051 86.8026 22.6831 85.6807C21.5612 84.5588 20.9307 83.0373 20.9302 81.4507V19.3088C20.9297 18.5227 21.0841 17.7443 21.3845 17.0179C21.6849 16.2915 22.1255 15.6314 22.6811 15.0753C23.2367 14.5193 23.8964 14.0781 24.6226 13.777C25.3487 13.4761 26.1271 13.3211 26.9131 13.3209H30.7187C30.8934 13.3214 31.0676 13.3387 31.2389 13.3726C31.3535 13.3967 31.4665 13.4279 31.5771 13.4661C31.6259 13.485 31.6766 13.5039 31.7224 13.5238C31.7999 13.556 31.8756 13.5925 31.9491 13.6332C32.0376 13.681 32.1229 13.7341 32.2048 13.7924C32.2595 13.8302 32.3112 13.869 32.3609 13.9097C32.4107 13.9505 32.4873 14.0201 32.5449 14.0768L32.9428 14.5901C32.9793 14.6513 33.0125 14.7144 33.0423 14.7791L33.1875 15.1461C33.2074 15.2128 33.2263 15.2784 33.2402 15.345L33.276 15.5529C33.281 15.5808 33.284 15.6106 33.287 15.6385C33.288 15.6521 33.288 15.6657 33.287 15.6792C33.2929 15.7449 33.2979 15.8086 33.2979 15.8782V15.905C33.2979 15.9468 33.2979 15.9846 33.2979 16.0234C33.2953 16.0171 33.2916 16.0115 33.287 16.0065C33.1748 15.7937 33.0305 15.5995 32.8593 15.4306C32.3933 14.9642 31.761 14.7019 31.1017 14.7015H27.4423C26.6854 14.7019 25.9359 14.8515 25.2367 15.1416C24.5376 15.4319 23.9025 15.857 23.3676 16.3928C22.8329 16.9286 22.409 17.5644 22.1201 18.2642C21.8313 18.9638 21.6831 19.7136 21.6842 20.4706V80.2939C21.6842 81.8213 22.2907 83.2862 23.3705 84.3666C24.4502 85.447 25.9149 86.0542 27.4423 86.055H54.8613C56.3398 86.0547 57.7615 85.4857 58.8317 84.4657C59.9021 83.4457 60.539 82.0532 60.6105 80.5764C60.612 80.5619 60.612 80.5472 60.6105 80.5326L61.3724 80.0989Z" fill="#CAE3D9"/>
<path opacity="0.68" d="M48.7103 17.0906C48.7103 17.1284 48.7103 17.1642 48.7103 17.203C48.7066 17.8601 48.443 18.489 47.977 18.9523C47.5111 19.4156 46.8807 19.6758 46.2236 19.6758H36.0154C34.6397 19.6758 33.6003 18.5518 33.5943 17.1752C33.5943 17.1533 33.5943 17.1344 33.5943 17.1125C33.7997 17.527 34.1171 17.8757 34.5106 18.119C34.904 18.3623 35.3578 18.4905 35.8204 18.4891H46.4156C46.7553 18.4896 47.0918 18.423 47.4057 18.2931C47.7196 18.1632 48.0048 17.9726 48.2448 17.7322C48.4326 17.544 48.5897 17.3274 48.7103 17.0906Z" fill="#CAE3D9"/>
</g>
<path d="M63.8601 42.6037C67.3981 41.8846 70.8327 41.1416 72.6589 41.1664" stroke="black" stroke-width="0.366682" stroke-miterlimit="10"/>
<path d="M60.515 63.1008C55.1518 58.7789 50.2849 53.2356 52.3767 48.4065C53.6349 45.4951 57.359 43.9086 61.3724 43.0482" stroke="black" stroke-width="0.366682" stroke-miterlimit="10"/>
<path d="M72.1706 39.0359C72.2581 39.3512 72.6589 41.1674 72.7574 41.4957C73.1215 42.6803 68.4883 45.8145 67.7035 46.5187C66.2951 47.775 64.9622 49.1894 63.8601 50.766C63.1272 51.7947 62.5101 52.9011 62.02 54.0653C61.764 54.6831 61.5477 55.3167 61.3724 55.9621C60.9368 57.5715 60.7289 59.2445 60.6185 60.9275C60.531 62.2027 60.4981 63.4828 60.4623 64.7331C60.3887 67.1322 60.4265 69.5453 60.5837 71.9365C60.5946 72.0877 60.6056 72.2349 60.6185 72.3861C60.7424 73.8062 60.9829 75.2137 61.3376 76.5945V76.6035" stroke="black" stroke-width="0.366682" stroke-miterlimit="10"/>
<path d="M71.4852 33.432C71.6354 28.7739 73.7501 26.2873 75.633 24.9773C75.9993 24.7262 76.3923 24.5164 76.8047 24.3516" stroke="black" stroke-width="0.366682" stroke-miterlimit="10"/>
<path d="M81.9731 24.3209C82.0606 24.3537 82.1451 24.3896 82.2307 24.4254L82.3242 24.4661C82.5307 24.5562 82.7319 24.6578 82.9269 24.7705C83.6 25.1542 84.1879 25.671 84.6547 26.2894C84.6727 26.3069 84.6875 26.3275 84.6984 26.35C84.78 26.4654 84.8596 26.5828 84.9372 26.7041C85.6255 27.7983 86.267 29.2754 86.7574 30.9812C87.0102 31.8564 87.2125 32.7455 87.3632 33.6439" stroke="black" stroke-width="0.366682" stroke-miterlimit="10"/>
<path d="M87.3631 33.6429C87.8396 35.67 88.7477 40.0396 89.3525 42.1672C89.5646 42.9042 89.5222 43.6912 89.2321 44.4012C89.0389 44.8671 88.7453 45.2847 88.3724 45.6244C87.9996 45.9641 87.5565 46.2175 87.0747 46.3667L85.2753 46.8023C85.087 46.8488 84.9208 46.9592 84.8048 47.1147C84.3965 47.6543 83.9437 48.1587 83.4511 48.6226C75.6668 55.9513 66.3 48.365 68.546 72.6607L68.554 72.7403C68.6448 73.7131 68.7546 74.7386 68.8832 75.8168L63.8601 78.6815L61.3734 80.0989L60.6145 80.5325L60.0177 80.8727L59.2498 79.3976C59.0687 79.0569 59.0293 78.6585 59.1403 78.289C59.2513 77.9194 59.5038 77.6086 59.8427 77.4242L60.6185 76.9935L61.3376 76.5956L61.3725 76.5767L63.8591 75.2001L64.3883 74.9017" stroke="black" stroke-width="0.366682" stroke-miterlimit="10"/>
<path d="M63.8611 78.6815V82.8323C63.8608 84.914 63.0337 86.9104 61.5615 88.3823C60.0894 89.8544 58.0929 90.6812 56.0112 90.6812H26.2915C25.2607 90.6813 24.2399 90.4784 23.2875 90.084C22.3351 89.6896 21.4698 89.1115 20.7409 88.3826C20.0119 87.6539 19.4337 86.7885 19.0392 85.8362C18.6446 84.8838 18.4416 83.8631 18.4416 82.8323V18.154C18.4416 17.1231 18.6446 16.1025 19.0392 15.1501C19.4337 14.1978 20.0119 13.3325 20.7409 12.6037C21.4698 11.8748 22.3351 11.2967 23.2875 10.9023C24.2399 10.5079 25.2607 10.305 26.2915 10.3051H59.6218" stroke="black" stroke-width="0.366682" stroke-miterlimit="10"/>
<path d="M63.8601 18.1538C63.8608 17.6152 63.8064 17.0779 63.698 16.5504C63.698 16.5504 63.5528 15.6721 63.4135 15.4284" stroke="black" stroke-width="0.366682" stroke-miterlimit="10"/>
<path d="M63.8601 50.7633V42.606V34.0986" stroke="black" stroke-width="0.366682" stroke-miterlimit="10"/>
<path d="M63.8601 18.1548V22.7571V28.2228" stroke="black" stroke-width="0.366682" stroke-miterlimit="10"/>
<path d="M71.8373 30.6747V30.6677C70.9874 30.2866 70.186 29.8054 69.4501 29.2344C66.3787 26.8715 64.3644 23.3915 63.8452 19.5513C63.832 19.4565 63.82 19.361 63.8094 19.2648" stroke="black" stroke-width="0.366682" stroke-miterlimit="10"/>
<path d="M61.3745 53.6744V32.4442" stroke="black" stroke-width="0.366682" stroke-miterlimit="10"/>
<path d="M61.3745 26.4795V19.3099C61.3745 18.0039 61.2601 16.4562 60.5568 15.4705C60.5568 15.4705 58.851 13.319 57.1173 13.319H51.5849" stroke="black" stroke-width="0.366682" stroke-miterlimit="10"/>
<path d="M53.814 13.319H51.5849C50.899 13.319 50.2412 13.5914 49.7562 14.0764C49.2712 14.5614 48.9988 15.2192 48.9988 15.9051C48.9988 16.591 48.7264 17.2488 48.2414 17.7337C47.7564 18.2187 47.0986 18.4913 46.4127 18.4913H35.8871C35.2011 18.4913 34.5434 18.2187 34.0584 17.7337C33.5734 17.2488 33.3009 16.591 33.3009 15.9051C33.3009 15.2192 33.0285 14.5614 32.5435 14.0764C32.0585 13.5914 31.4007 13.319 30.7148 13.319H26.9132C25.3252 13.32 23.8025 13.9517 22.6803 15.0752C21.5579 16.1987 20.9278 17.7219 20.9283 19.3099V81.4508C20.929 83.0377 21.5599 84.5594 22.6822 85.6815C23.8043 86.8036 25.3262 87.4341 26.9132 87.4347H55.3895C56.9765 87.4341 58.4984 86.8036 59.6206 85.6815C60.7428 84.5594 61.3737 83.0377 61.3745 81.4508V80.1" stroke="black" stroke-width="0.366682" stroke-miterlimit="10"/>
<path d="M63.2484 10.6742C64.3316 11.1377 65.3432 12.6705 65.8345 13.696C66.7457 15.5988 67.5404 17.055 68.6196 18.8683C69.5437 20.4229 70.3911 22.1069 71.8443 23.2448C72.6135 23.8557 73.55 24.2189 74.5299 24.2862" stroke="black" stroke-width="0.366682" stroke-miterlimit="10"/>
<path d="M33.841 13.3207C33.8401 15.4688 33.2573 17.5765 32.1547 19.42C31.052 21.2634 29.4704 22.7737 27.5783 23.7905C25.686 24.8072 23.5538 25.2925 21.4079 25.1945C19.262 25.0967 17.1827 24.4193 15.3909 23.2346C13.0689 21.2804 11.582 18.5123 11.2352 15.4972C10.8883 12.4822 11.7077 9.44875 13.5253 7.01838C15.343 4.58801 18.0213 2.94482 21.0114 2.42554C24.0016 1.90626 27.0771 2.55021 29.6077 4.22542C30.9351 5.34003 32.002 6.73201 32.7334 8.30339C33.4647 9.87477 33.8428 11.5874 33.841 13.3207Z" fill="#F3F3F3"/>
<path d="M32.5479 13.3678C32.5474 15.2704 32.0315 17.1372 31.055 18.7702C30.0786 20.4031 28.6779 21.741 27.0021 22.6416C25.3262 23.5424 23.4375 23.9722 21.5369 23.8856C19.6363 23.7989 17.7945 23.1991 16.2075 22.1497C14.1561 20.4175 12.8439 17.9672 12.5389 15.2996C12.234 12.6321 12.9595 9.94888 14.5672 7.79841C16.1748 5.64803 18.5431 4.1929 21.1879 3.73054C23.8327 3.26817 26.5542 3.8335 28.7961 5.31093C29.9721 6.29826 30.9174 7.53124 31.5656 8.92318C32.2137 10.3152 32.5491 11.8323 32.5479 13.3678Z" fill="#F3F3F3"/>
<path d="M20.5354 64.8546C23.2807 64.0588 25.636 61.0539 22.3397 58.5673C22.2193 58.4797 22.1069 58.4001 21.9995 58.3365C22.1803 58.1595 22.4021 58.0301 22.6451 57.9598C22.8881 57.8895 23.1447 57.8805 23.3921 57.9337C23.4 57.9337 23.411 57.9337 23.4189 57.9396C23.436 57.9415 23.4528 57.9459 23.4686 57.9526C23.8277 58.0351 24.2286 58.2301 24.6752 58.5673C27.9665 61.0539 23.4149 64.2816 20.5354 64.8546Z" fill="#F3F3F3"/>
<path d="M23.397 57.9336C23.1497 57.8804 22.893 57.8895 22.65 57.9597C22.407 58.03 22.1852 58.1594 22.0045 58.3365C20.3295 59.8424 20.2529 64.8545 20.2529 64.8545H19.8082C19.8082 64.8545 18.734 59.0198 20.3265 58.0431H20.3324C20.3593 58.0321 20.4727 57.9824 20.6308 57.9277C20.6308 57.9277 20.6388 57.9277 20.6418 57.9277C20.848 57.8566 21.0609 57.8068 21.2774 57.7795C21.9876 57.7156 22.7035 57.7677 23.397 57.9336Z" fill="#CAE3D9"/>
<path d="M33.841 13.321C33.8407 16.0277 32.9169 18.6533 31.2221 20.7637C29.5272 22.8741 27.1629 24.343 24.5201 24.9276C21.8773 25.512 19.1141 25.1772 16.6873 23.9785C14.2606 22.7796 12.3156 20.7886 11.1738 18.3344C10.0322 15.8803 9.762 13.11 10.4082 10.4815C11.0545 7.85309 12.5783 5.52386 14.7278 3.87888C16.8773 2.2339 19.5238 1.37168 22.2298 1.43475C24.9358 1.49781 27.5392 2.48239 29.6097 4.22572C30.9353 5.34169 32.0009 6.73399 32.7319 8.30507C33.4628 9.87625 33.8413 11.5882 33.841 13.321Z" stroke="black" stroke-width="0.366682" stroke-miterlimit="10"/>
<path d="M17.6508 74.9833V80.1556H6.01321C5.8765 80.1558 5.74114 80.1287 5.61504 80.0758C5.48896 80.023 5.37467 79.9455 5.27889 79.8481C5.18311 79.7505 5.10775 79.6348 5.05724 79.5078C5.00673 79.3808 4.98207 79.2449 4.98472 79.1082L5.04241 75.9959C5.04736 75.7266 5.15794 75.4698 5.35031 75.2812C5.54268 75.0926 5.80146 74.987 6.0709 74.9873L17.6508 74.9833Z" fill="#CAE3D9"/>
<path d="M36.1129 76.0109V79.1232C36.1129 79.396 36.0045 79.6576 35.8116 79.8505C35.6187 80.0433 35.3571 80.1517 35.0844 80.1517H17.6508V74.9795H35.0844C35.2196 74.9795 35.3536 75.0061 35.4787 75.058C35.6036 75.1099 35.7172 75.186 35.8127 75.2817C35.9083 75.3775 35.9839 75.4913 36.0355 75.6164C36.0869 75.7416 36.1133 75.8756 36.1129 76.0109Z" fill="#F3F3F3"/>
<path d="M19.4034 80.1518V90.6803H8.25219C7.77693 90.6792 7.32128 90.4905 6.98448 90.1552C6.64769 89.8199 6.45698 89.3652 6.45383 88.8899V80.1567L19.4034 80.1518Z" fill="#CAE3D9"/>
<path d="M34.1106 80.1518V88.8849C34.1074 89.3602 33.9167 89.815 33.58 90.1503C33.2432 90.4856 32.7875 90.6743 32.3122 90.6754H19.4034V80.1518H34.1106Z" fill="#F3F3F3"/>
<path d="M19.307 9.30929C20.6289 9.30929 21.345 10.2682 21.345 11.4359C21.345 12.9229 20.3315 13.7236 19.2413 13.7236C18.0726 13.7236 17.1804 12.8642 17.1804 11.5642C17.1804 10.3418 17.9632 9.30531 19.296 9.30531L19.307 9.30929ZM19.2632 10.3676C18.8116 10.3676 18.6346 10.8739 18.6346 11.5244C18.6346 12.2068 18.8444 12.6703 19.2851 12.6703C19.6829 12.6703 19.8908 12.2843 19.8908 11.5244C19.8908 10.863 19.7257 10.3676 19.2741 10.3676H19.2632ZM19.3955 16.7136L23.4736 9.33217H24.4912L20.425 16.7136H19.3955ZM24.6841 12.2843C26.0061 12.2843 26.7222 13.2422 26.7222 14.4109C26.7222 15.898 25.7086 16.6987 24.6175 16.6987C23.4498 16.6987 22.5575 15.8393 22.5575 14.5283C22.5575 13.3158 23.3393 12.2804 24.6732 12.2804L24.6841 12.2843ZM24.6394 13.3427C24.1878 13.3427 24.0117 13.849 24.0117 14.4995C24.0117 15.1818 24.2216 15.6453 24.6623 15.6453C25.0601 15.6453 25.268 15.2475 25.268 14.4875C25.268 13.8271 25.1029 13.3427 24.6513 13.3427H24.6394Z" fill="white"/>
<path d="M19.1597 64.7999C17.3822 64.7999 14.0869 63.3487 15.8306 61.4051C16.0146 61.1842 16.2435 61.0049 16.502 60.879L16.5159 60.87H16.5219C16.9389 60.6754 17.3852 60.5511 17.8428 60.502C17.99 60.4897 18.1382 60.4944 18.2844 60.5159C18.0517 60.505 17.7801 60.6313 17.4588 60.9386C17.4021 60.9904 17.3415 61.056 17.2788 61.1246C15.5391 63.0642 17.3633 64.6438 19.1597 64.7999Z" fill="#CAE3D9"/>
<path d="M19.6173 64.7114L19.3407 64.7641C19.3407 64.7641 18.6823 61.6687 17.4588 60.9367C17.7801 60.6293 18.0556 60.503 18.2844 60.5139C18.289 60.515 18.2938 60.515 18.2983 60.5139L18.3978 60.5278L18.4326 60.5358C19.5735 60.8869 19.6173 64.7114 19.6173 64.7114Z" fill="#F3F3F3"/>
<path d="M19.4024 74.9822H6.07386C5.80416 74.9822 5.54524 75.088 5.35287 75.2771C5.1605 75.4661 5.05007 75.7231 5.04538 75.9928L4.98968 79.1051C4.98716 79.2417 5.01191 79.3775 5.06248 79.5045C5.11303 79.6315 5.18839 79.747 5.28415 79.8446C5.3799 79.9421 5.49413 80.0196 5.62016 80.0724C5.74619 80.1253 5.8815 80.1525 6.01816 80.1525H35.0834C35.2185 80.1525 35.3523 80.1258 35.4772 80.0741C35.602 80.0224 35.7155 79.9465 35.811 79.8509C35.9064 79.7553 35.9822 79.6418 36.0339 79.5169C36.0855 79.392 36.1119 79.2582 36.1118 79.123V76.0107C36.1118 75.7379 36.0035 75.4763 35.8106 75.2835C35.6177 75.0906 35.3561 74.9822 35.0834 74.9822H15.8435" stroke="black" stroke-width="0.366682" stroke-miterlimit="10"/>
<path d="M32.3122 90.6811H8.25119C7.77485 90.6795 7.31839 90.4895 6.9817 90.1526C6.6449 89.8157 6.45514 89.3591 6.45383 88.8828V80.1526H34.1056V88.8828C34.104 89.3583 33.9147 89.8141 33.5789 90.1509C33.243 90.4877 32.7879 90.6782 32.3122 90.6811Z" stroke="black" stroke-width="0.366682" stroke-miterlimit="10"/>
<path d="M30.6253 65.5179V67.5251C30.6253 67.7011 30.5553 67.8698 30.4309 67.9942C30.3066 68.1186 30.1378 68.1886 29.9618 68.1886H18.7121V64.8544H29.9618C30.1378 64.8544 30.3066 64.9244 30.4309 65.0488C30.5553 65.1731 30.6253 65.3419 30.6253 65.5179Z" fill="#F3F3F3"/>
<path d="M18.7121 64.8544V68.1886H11.2074C11.1193 68.1885 11.0322 68.1709 10.951 68.1367C10.87 68.1027 10.7964 68.0528 10.7346 67.9901C10.6729 67.9274 10.6243 67.853 10.5916 67.7713C10.5587 67.6895 10.5426 67.6022 10.5439 67.5142L10.5797 65.5039C10.5831 65.3303 10.6545 65.165 10.7787 65.0435C10.9027 64.9221 11.0695 64.8541 11.2432 64.8544H18.7121Z" fill="#CAE3D9"/>
<path d="M29.3342 68.1885V73.8233C29.3331 74.1311 29.2101 74.4259 28.9923 74.6433C28.7744 74.8606 28.4792 74.9829 28.1714 74.9831H19.8441V68.1885H29.3342Z" fill="#F3F3F3"/>
<path d="M19.8441 68.1885V74.9831H12.6546C12.3472 74.9824 12.0527 74.8599 11.8354 74.6426C11.6181 74.4252 11.4956 74.1306 11.4948 73.8233V68.1885H19.8441Z" fill="#CAE3D9"/>
<path d="M17.6498 74.9822V80.1525" stroke="black" stroke-width="0.366682" stroke-miterlimit="10"/>
<path d="M19.4024 80.1526V90.6811" stroke="black" stroke-width="0.366682" stroke-miterlimit="10"/>
<path d="M30.6253 65.5179V67.5251C30.6253 67.7011 30.5553 67.8698 30.4309 67.9942C30.3066 68.1186 30.1378 68.1886 29.9618 68.1886H18.7121V64.8544H29.9618C30.1378 64.8544 30.3066 64.9244 30.4309 65.0488C30.5553 65.1731 30.6253 65.3419 30.6253 65.5179Z" stroke="black" stroke-width="0.366682" stroke-miterlimit="10"/>
<path d="M18.7121 64.8544V68.1886H11.2074C11.1193 68.1885 11.0322 68.1709 10.951 68.1367C10.87 68.1027 10.7964 68.0528 10.7346 67.9901C10.6729 67.9274 10.6243 67.853 10.5916 67.7713C10.5587 67.6895 10.5426 67.6022 10.5439 67.5142L10.5797 65.5039C10.5831 65.3303 10.6545 65.165 10.7787 65.0435C10.9027 64.9221 11.0695 64.8541 11.2432 64.8544H18.7121Z" stroke="black" stroke-width="0.366682" stroke-miterlimit="10"/>
<path d="M29.3342 68.1885V73.8233C29.3331 74.1311 29.2101 74.4259 28.9923 74.6433C28.7744 74.8606 28.4792 74.9829 28.1714 74.9831H19.8441V68.1885H29.3342Z" stroke="black" stroke-width="0.366682" stroke-miterlimit="10"/>
<path d="M19.8441 68.1885V74.9831H12.6546C12.3472 74.9824 12.0527 74.8599 11.8354 74.6426C11.6181 74.4252 11.4956 74.1306 11.4948 73.8233V68.1885H19.8441Z" stroke="black" stroke-width="0.366682" stroke-miterlimit="10"/>
<path d="M21.0158 64.8536C23.766 64.0579 27.9983 61.055 24.708 58.5683C24.3536 58.2805 23.9425 58.0707 23.5015 57.9526C23.4857 57.9457 23.4688 57.9417 23.4517 57.9407C23.2008 57.8818 22.939 57.8874 22.6908 57.957C22.4426 58.0265 22.2161 58.1578 22.0323 58.3386" stroke="black" stroke-width="0.366682" stroke-miterlimit="10"/>
<path d="M22.0323 58.3364C20.3563 59.8433 20.2807 64.8535 20.2807 64.8535H19.8351C19.8351 64.8535 18.177 55.8557 22.0323 58.3364Z" stroke="black" stroke-width="0.366682" stroke-miterlimit="10"/>
<path d="M20.5692 64.8537H20.2807C20.2807 64.8537 20.3563 59.8436 22.0323 58.3367C22.1492 58.4081 22.2624 58.4855 22.3715 58.5684C25.6678 61.0551 23.3134 64.063 20.5692 64.8537Z" stroke="black" stroke-width="0.366682" stroke-miterlimit="10"/>
<path d="M20.4021 57.9903C20.6934 57.8846 20.9957 57.8119 21.3032 57.7734C22.0391 57.7097 22.7805 57.7698 23.4965 57.9515" stroke="black" stroke-width="0.366682" stroke-miterlimit="10"/>
<path d="M18.921 64.8536C17.1196 64.6984 14.1297 63.3477 15.8674 61.4061C16.0519 61.1843 16.2813 61.0042 16.5408 60.8779C16.5495 60.8717 16.5593 60.8671 16.5696 60.864C16.7179 60.797 16.8807 60.7685 17.043 60.7812C17.2052 60.7939 17.3616 60.8474 17.4976 60.9366" stroke="black" stroke-width="0.366682" stroke-miterlimit="10"/>
<path d="M17.4927 60.9367C18.7161 61.6668 19.3716 64.7651 19.3716 64.7651L19.6481 64.7104C19.6481 64.7104 19.5815 58.9294 17.4927 60.9367Z" stroke="black" stroke-width="0.366682" stroke-miterlimit="10"/>
<path d="M19.1926 64.7996L19.3716 64.7648C19.3716 64.7648 18.7161 61.6664 17.4927 60.9363C17.435 60.9881 17.3743 61.0527 17.3107 61.1214C15.57 63.0639 17.3952 64.6425 19.1926 64.7996Z" stroke="black" stroke-width="0.366682" stroke-miterlimit="10"/>
<path d="M18.4625 60.5236C18.2687 60.4933 18.0723 60.485 17.8766 60.4987C17.4116 60.5486 16.9585 60.6765 16.5358 60.8767" stroke="black" stroke-width="0.366682" stroke-miterlimit="10"/>
<path d="M77.4075 24.4086L77.7964 25.1048C77.7964 25.1048 77.2274 26.3701 78.7523 26.5889C80.2771 26.8077 82.2843 25.3087 82.339 24.319C84.6815 25.2242 85.9198 27.502 85.9417 29.9409C85.9815 35.9785 78.2132 39.6389 73.022 39.0919C70.413 38.8183 67.9492 37.6675 65.8922 36.0432C65.6177 35.8303 65.3541 35.6065 65.0965 35.3758C64.5752 34.9004 64.0867 34.3903 63.6343 33.849C63.4003 33.5705 63.1721 33.2856 62.95 32.9945" stroke="black" stroke-width="0.33472" stroke-miterlimit="10"/>
<path d="M80.7366 21.5755L82.2306 24.4253" stroke="black" stroke-width="0.366682" stroke-miterlimit="10"/>
<path d="M3.17444 90.6801H89.5733" stroke="black" stroke-width="0.366682" stroke-miterlimit="10"/>
<path d="M62.7859 10.504H62.7729C62.2915 10.5856 61.7126 11.0143 61.4122 11.5693C61.0681 12.1969 61.0283 12.9618 60.9547 13.2861C60.9467 13.3229 60.9388 13.3587 60.9348 13.3915C60.9262 13.4192 60.9197 13.4474 60.9149 13.4761L60.902 13.5248C60.8559 13.6819 60.7529 13.816 60.6131 13.901C60.4733 13.986 60.3068 14.0158 60.1461 13.9844C59.9856 13.953 59.8425 13.8628 59.7449 13.7314C59.6474 13.6 59.6024 13.437 59.6189 13.2741L59.6467 13.0474C59.6557 12.9658 59.6676 12.8892 59.6835 12.8126C59.7157 12.5904 59.7646 12.371 59.8297 12.1561C59.8385 12.1224 59.849 12.0892 59.8616 12.0567C59.8736 12.0053 59.8899 11.9551 59.9103 11.9065C59.9198 11.8803 59.9308 11.8548 59.9431 11.8299" stroke="black" stroke-width="0.366682" stroke-miterlimit="10"/>
<path d="M64.0073 15.0348C63.7063 15.3233 63.4185 15.4671 63.144 15.4665C63.0276 15.4666 62.9126 15.4404 62.8078 15.3899C62.7092 15.3457 62.6203 15.2825 62.5462 15.2039C62.2975 14.9483 62.3075 14.5196 62.4258 14.2321C62.5115 14.0455 62.6274 13.8744 62.769 13.7258C62.8137 13.6751 62.8575 13.6264 62.8963 13.5737C63.0272 13.4246 63.1261 13.2502 63.1867 13.0614C63.1867 13.0505 63.1867 13.0405 63.1917 13.0296" stroke="black" stroke-width="0.366682" stroke-miterlimit="10"/>
<path d="M61.646 10.2254C61.832 10.2602 62.011 10.303 62.194 10.3448C62.3771 10.3865 62.58 10.4442 62.771 10.5039C63.2085 10.6333 63.6183 10.8427 63.9795 11.1216C64.9602 11.8467 65.1661 13.0831 64.4589 13.9952" stroke="black" stroke-width="0.366682" stroke-miterlimit="10"/>
<path d="M60.9547 13.2858C60.9547 13.2947 60.9547 13.3027 60.9497 13.3136C60.9472 13.3471 60.9425 13.3803 60.9358 13.4131L60.9139 13.6399C60.901 13.7624 60.9227 13.8862 60.9769 13.9969C61.0311 14.1075 61.1152 14.2007 61.22 14.2657C61.3246 14.3307 61.4454 14.3649 61.5687 14.3643C61.6919 14.3638 61.8125 14.3285 61.9165 14.2625C61.9914 14.2162 62.056 14.1547 62.1059 14.0821C62.1559 14.0096 62.1903 13.9274 62.207 13.8408C62.2259 13.7563 62.2418 13.6647 62.2637 13.5782C62.3432 13.242 62.3731 12.9416 62.6237 12.683C62.6942 12.6099 62.7784 12.5511 62.8714 12.5099C62.8948 12.5 62.9191 12.4922 62.944 12.4871" stroke="black" stroke-width="0.366682" stroke-miterlimit="10"/>
<path d="M58.2959 12.6914V12.6655C58.3385 12.2353 58.4521 11.8152 58.6321 11.4222C58.7435 11.1765 58.8929 10.9499 59.0747 10.7508C59.3597 10.4294 59.7456 10.2146 60.1689 10.142C60.2912 10.1241 60.4116 10.1122 60.5349 10.1062C60.9067 10.1009 61.2778 10.141 61.64 10.2256C61.3416 10.2485 60.8303 10.5677 60.4613 10.9696C60.3136 11.1219 60.1902 11.2959 60.0953 11.4858C60.0485 11.5853 59.9958 11.6947 59.959 11.8001C59.9212 11.8857 59.8884 11.9722 59.8595 12.0568C59.773 12.3015 59.6984 12.5432 59.6417 12.766C59.6158 12.8654 59.592 12.9649 59.5731 13.0544C59.5422 13.2202 59.4515 13.3688 59.3181 13.4721C59.1849 13.5754 59.0181 13.626 58.85 13.6144C58.6788 13.5944 58.5223 13.5077 58.4147 13.373C58.3071 13.2383 58.2568 13.0666 58.275 12.8953L58.2949 12.6914" stroke="black" stroke-width="0.366682" stroke-miterlimit="10"/>
<path d="M57.5141 30.1087C57.345 29.7695 57.2356 29.3975 57.3988 29.0733C57.7678 28.3372 58.9544 28.7271 59.6487 28.2775C60.2455 27.8946 60.1848 27.44 60.5111 26.8731C60.892 26.2096 61.5784 26.4752 62.1025 26.8054C62.772 27.2242 64.2341 28.6953 66.5785 30.1445C67.3078 30.5979 68.0057 31.1 68.6674 31.6475C70.5105 33.1663 75.1019 35.7982 79.0935 28.7182" stroke="black" stroke-width="0.340935" stroke-miterlimit="10"/>
<path d="M63.0465 33.1125C62.7192 32.7793 62.3631 32.4272 61.9036 32.3436C61.4132 32.2531 60.9238 32.4849 60.4275 32.5087C59.2051 32.5644 58.2979 31.4255 57.6683 30.3762C57.6166 30.2916 57.5688 30.2011 57.5181 30.1106" stroke="black" stroke-width="0.340935" stroke-miterlimit="10"/>
<path d="M60.1301 31.4884C60.1301 31.4884 58.9614 32.1161 58.4641 31.4705" stroke="black" stroke-width="0.340935" stroke-miterlimit="10"/>
<path d="M57.7708 30.5524C57.7708 30.5524 58.7207 31.199 59.3871 30.6599" stroke="black" stroke-width="0.340935" stroke-miterlimit="10"/>
<path d="M57.3302 29.698C57.3302 29.698 58.1567 30.2043 58.5118 29.8412" stroke="black" stroke-width="0.340935" stroke-miterlimit="10"/>
</svg>
