<svg width="23" height="23" viewBox="0 0 23 23" fill="none" xmlns="http://www.w3.org/2000/svg">
<path d="M11.1939 20.1321C6.04556 20.1321 1.85397 15.9405 1.85397 10.7921C1.85397 5.64374 6.04556 1.45215 11.1939 1.45215C16.3423 1.45215 20.5339 5.64374 20.5339 10.7921C20.5339 15.9405 16.3423 20.1321 11.1939 20.1321ZM11.1939 2.81897C6.79276 2.81897 3.2208 6.40005 3.2208 10.7921C3.2208 15.1842 6.79276 18.7652 11.1939 18.7652C15.5951 18.7652 19.1671 15.1842 19.1671 10.7921C19.1671 6.40005 15.5951 2.81897 11.1939 2.81897Z" fill="#0C0C0C"/>
<path d="M20.7617 21.0432C20.5886 21.0432 20.4154 20.9795 20.2787 20.8428L18.4563 19.0203C18.1921 18.7561 18.1921 18.3187 18.4563 18.0545C18.7206 17.7902 19.1579 17.7902 19.4222 18.0545L21.2446 19.8769C21.5089 20.1411 21.5089 20.5785 21.2446 20.8428C21.1079 20.9795 20.9348 21.0432 20.7617 21.0432Z" fill="#0C0C0C"/>
</svg>
