<svg width="22" height="23" viewBox="0 0 22 23" fill="none" xmlns="http://www.w3.org/2000/svg">
<path d="M11.1828 10.8125C11.1555 10.8125 11.1372 10.8125 11.1099 10.8125C11.0643 10.8034 11.0006 10.8034 10.9459 10.8125C8.30336 10.7305 6.3078 8.65294 6.3078 6.09243C6.3078 3.48635 8.43093 1.36322 11.037 1.36322C13.6431 1.36322 15.7662 3.48635 15.7662 6.09243C15.7571 8.65294 13.7524 10.7305 11.2101 10.8125C11.201 10.8125 11.1919 10.8125 11.1828 10.8125ZM11.037 2.73004C9.18724 2.73004 7.67462 4.24266 7.67462 6.09243C7.67462 7.91486 9.09612 9.38191 10.9094 9.4457C10.955 9.43658 11.0826 9.43658 11.201 9.4457C12.987 9.36369 14.3903 7.89663 14.3994 6.09243C14.3994 4.24266 12.8868 2.73004 11.037 2.73004Z" fill="#0C0C0C"/>
<path d="M11.1919 20.7721C9.40592 20.7721 7.61083 20.3165 6.25312 19.4053C4.98653 18.567 4.29401 17.4188 4.29401 16.1705C4.29401 14.9221 4.98653 13.7649 6.25312 12.9174C8.98676 11.1041 13.4153 11.1041 16.1307 12.9174C17.3882 13.7557 18.0898 14.9039 18.0898 16.1522C18.0898 17.4006 17.3973 18.5578 16.1307 19.4053C14.7639 20.3165 12.9779 20.7721 11.1919 20.7721ZM7.00943 14.0656C6.13466 14.6487 5.66083 15.3959 5.66083 16.1796C5.66083 16.9541 6.14377 17.7013 7.00943 18.2754C9.27835 19.7971 13.1055 19.7971 15.3744 18.2754C16.2491 17.6922 16.723 16.945 16.723 16.1613C16.723 15.3868 16.24 14.6396 15.3744 14.0656C13.1055 12.5529 9.27835 12.5529 7.00943 14.0656Z" fill="#0C0C0C"/>
</svg>
