<svg width="22" height="23" viewBox="0 0 22 23" fill="none" xmlns="http://www.w3.org/2000/svg">
<path d="M12.7533 3.17594L12.7536 3.17613L18.0021 6.84826C18.0021 6.84828 18.0021 6.8483 18.0022 6.84832C18.4225 7.14261 18.8231 7.62724 19.119 8.19404C19.4149 8.76088 19.5839 9.36723 19.5839 9.88303V16.0611C19.5839 18.1085 17.9215 19.7709 15.8741 19.7709H6.05118C4.00513 19.7709 2.34137 18.1008 2.34137 16.052V9.76458C2.34137 9.28607 2.49422 8.71048 2.76378 8.16301C3.0332 7.61582 3.39791 7.14001 3.77996 6.84201L3.78007 6.84192L8.34388 3.28014C8.3441 3.27997 8.34433 3.27979 8.34455 3.27962C9.54733 2.34822 11.5024 2.29952 12.7533 3.17594Z" stroke="#2C2B2B"/>
<path d="M10.9626 17.3095C10.589 17.3095 10.2792 16.9996 10.2792 16.626V13.8924C10.2792 13.5188 10.589 13.209 10.9626 13.209C11.3362 13.209 11.646 13.5188 11.646 13.8924V16.626C11.646 16.9996 11.3362 17.3095 10.9626 17.3095Z" fill="#2C2B2B"/>
</svg>
