<svg width="22" height="22" viewBox="0 0 22 22" fill="none" xmlns="http://www.w3.org/2000/svg">
<path d="M0.5 10.935C0.5 13.1748 0.620668 14.9406 0.930361 16.3341C1.23879 17.7219 1.72802 18.7096 2.44419 19.4258C3.16035 20.142 4.14809 20.6312 5.53591 20.9396C6.9294 21.2493 8.69517 21.37 10.935 21.37C13.1748 21.37 14.9406 21.2493 16.3341 20.9396C17.7219 20.6312 18.7096 20.142 19.4258 19.4258C20.142 18.7096 20.6312 17.7219 20.9396 16.3341C21.2493 14.9406 21.37 13.1748 21.37 10.935C21.37 8.69516 21.2493 6.9294 20.9396 5.5359C20.6312 4.14808 20.142 3.16035 19.4258 2.44418C18.7096 1.72802 17.7219 1.23879 16.3341 0.930355C14.9406 0.620663 13.1748 0.499994 10.935 0.499994C8.69517 0.499994 6.9294 0.620663 5.53591 0.930355C4.14809 1.23879 3.16035 1.72802 2.44419 2.44418C1.72802 3.16035 1.23879 4.14808 0.930361 5.5359C0.620668 6.9294 0.5 8.69516 0.5 10.935Z" stroke="#212135" stroke-linecap="round" stroke-linejoin="round"/>
<path d="M14.983 10.935C14.983 10.417 14.6808 10.0432 14.3113 9.73709C13.9551 9.44205 13.4379 9.13053 12.8143 8.75493L12.7783 8.73325L11.3063 7.84653C11.2939 7.8391 11.2817 7.8317 11.2694 7.82432C10.6466 7.44913 10.1292 7.13745 9.70546 6.96278C9.26868 6.78276 8.78853 6.68778 8.33692 6.95982C7.89328 7.22706 7.73811 7.69278 7.67057 8.16745C7.60421 8.63381 7.60423 9.25402 7.60425 10.0077L7.60425 10.0483L7.60425 11.8217L7.60425 11.8623C7.60423 12.6159 7.60421 13.2361 7.67057 13.7025C7.73811 14.1772 7.89328 14.6429 8.33692 14.9101C8.78853 15.1822 9.26868 15.0872 9.70546 14.9072C10.1292 14.7325 10.6466 14.4208 11.2694 14.0456L11.3063 14.0234L12.7783 13.1367L12.8143 13.115C13.4379 12.7394 13.9551 12.4279 14.3113 12.1329C14.6808 11.8268 14.983 11.453 14.983 10.935Z" stroke="#212135" stroke-linecap="round" stroke-linejoin="round"/>
</svg>
