<svg width="179" height="163" viewBox="0 0 179 163" fill="none" xmlns="http://www.w3.org/2000/svg">
<g clip-path="url(#clip0_2_74)">
<path d="M12.9312 145.1C10.0129 147.105 7.02875 149.173 5.00801 152.076C2.98742 154.979 2.10535 158.942 3.72896 162.083L3.68709 162.278C4.91765 162.71 6.23888 162.818 7.52348 162.592C8.80808 162.367 10.0128 161.815 11.0215 160.99C13.5902 158.84 14.3957 155.297 15.051 152.016L16.9894 142.313L12.9312 145.1Z" fill="#F0F0F0"/>
<path d="M15.7419 154.885C13.7952 155.315 11.8006 155.764 10.1313 156.851C8.46217 157.939 7.16196 159.819 7.34254 161.8L7.27919 161.893C7.82939 162.377 8.49542 162.712 9.21312 162.866C9.93083 163.019 10.676 162.985 11.3769 162.768C13.1723 162.188 14.3436 160.511 15.3808 158.938L18.449 154.288L15.7419 154.885Z" fill="#F0F0F0"/>
<path d="M178.259 8.66177H12.0422C11.9784 8.66155 11.9172 8.6361 11.8722 8.591C11.8271 8.5459 11.8018 8.48483 11.8018 8.42116C11.8018 8.35749 11.8271 8.29642 11.8722 8.25132C11.9172 8.20622 11.9784 8.18078 12.0422 8.18056H178.259C178.323 8.18078 178.384 8.20622 178.429 8.25132C178.474 8.29642 178.499 8.35749 178.499 8.42116C178.499 8.48483 178.474 8.5459 178.429 8.591C178.384 8.6361 178.323 8.66155 178.259 8.66177Z" fill="#CACACA"/>
<path d="M17.4721 5.2933C18.9377 5.2933 20.1258 4.10836 20.1258 2.64665C20.1258 1.18495 18.9377 0 17.4721 0C16.0065 0 14.8184 1.18495 14.8184 2.64665C14.8184 4.10836 16.0065 5.2933 17.4721 5.2933Z" fill="#3F3D56"/>
<path d="M26.6393 5.2933C28.1049 5.2933 29.293 4.10836 29.293 2.64665C29.293 1.18495 28.1049 0 26.6393 0C25.1737 0 23.9857 1.18495 23.9857 2.64665C23.9857 4.10836 25.1737 5.2933 26.6393 5.2933Z" fill="#3F3D56"/>
<path d="M35.8066 5.2933C37.2722 5.2933 38.4602 4.10836 38.4602 2.64665C38.4602 1.18495 37.2722 0 35.8066 0C34.341 0 33.1529 1.18495 33.1529 2.64665C33.1529 4.10836 34.341 5.2933 35.8066 5.2933Z" fill="#3F3D56"/>
<path d="M172.766 1.61888H166.253C166.125 1.61888 166.002 1.56818 165.911 1.47793C165.821 1.38769 165.77 1.2653 165.77 1.13767C165.77 1.01005 165.821 0.887648 165.911 0.797404C166.002 0.70716 166.125 0.656464 166.253 0.656464H172.766C172.894 0.656464 173.017 0.70716 173.107 0.797404C173.198 0.887648 173.249 1.01005 173.249 1.13767C173.249 1.2653 173.198 1.38769 173.107 1.47793C173.017 1.56818 172.894 1.61888 172.766 1.61888Z" fill="#3F3D56"/>
<path d="M172.766 3.4234H166.253C166.125 3.4234 166.002 3.3727 165.911 3.28246C165.821 3.19221 165.77 3.06982 165.77 2.94219C165.77 2.81457 165.821 2.69217 165.911 2.60193C166.002 2.51168 166.125 2.46098 166.253 2.46098H172.766C172.894 2.46098 173.017 2.51168 173.107 2.60193C173.198 2.69217 173.249 2.81457 173.249 2.94219C173.249 3.06982 173.198 3.19221 173.107 3.28246C173.017 3.3727 172.894 3.4234 172.766 3.4234Z" fill="#3F3D56"/>
<path d="M172.766 5.22795H166.253C166.125 5.22795 166.002 5.17725 165.911 5.08701C165.821 4.99676 165.77 4.87437 165.77 4.74674C165.77 4.61912 165.821 4.49672 165.911 4.40647C166.002 4.31623 166.125 4.26553 166.253 4.26553H172.766C172.894 4.26597 173.016 4.31686 173.106 4.40706C173.196 4.49726 173.247 4.6194 173.247 4.74674C173.247 4.87408 173.196 4.99623 173.106 5.08642C173.016 5.17662 172.894 5.22751 172.766 5.22795Z" fill="#3F3D56"/>
<path d="M125 18.9794H14.7519V84.9051H125V18.9794Z" fill="#F0F0F0"/>
<path d="M173.249 18.9794H138.51V39.7524H173.249V18.9794Z" fill="#F0F0F0"/>
<path d="M166.318 49.2956H145.648C145.39 49.2956 145.143 49.1933 144.96 49.0112C144.777 48.8291 144.675 48.5821 144.675 48.3246C144.675 48.0671 144.777 47.8201 144.96 47.638C145.143 47.4559 145.39 47.3536 145.648 47.3536H166.318C166.576 47.3536 166.824 47.4559 167.006 47.638C167.189 47.8201 167.292 48.0671 167.292 48.3246C167.292 48.5821 167.189 48.8291 167.006 49.0112C166.824 49.1933 166.576 49.2956 166.318 49.2956H166.318Z" fill="#E4E4E4"/>
<path d="M162.985 45.9718H148.981C148.723 45.9718 148.475 45.8695 148.293 45.6874C148.11 45.5053 148.007 45.2583 148.007 45.0008C148.007 44.7433 148.11 44.4963 148.293 44.3142C148.475 44.1321 148.723 44.0298 148.981 44.0298H162.985C163.244 44.0298 163.491 44.1321 163.674 44.3142C163.856 44.4963 163.959 44.7433 163.959 45.0008C163.959 45.2583 163.856 45.5053 163.674 45.6874C163.491 45.8695 163.244 45.9718 162.985 45.9718Z" fill="#E4E4E4"/>
<path d="M173.249 56.7543H138.51V77.5274H173.249V56.7543Z" fill="#F0F0F0"/>
<path d="M166.318 87.0705H145.648C145.39 87.0705 145.143 86.9682 144.96 86.7861C144.777 86.604 144.675 86.3571 144.675 86.0995C144.675 85.842 144.777 85.595 144.96 85.4129C145.143 85.2308 145.39 85.1285 145.648 85.1285H166.318C166.576 85.1285 166.824 85.2308 167.006 85.4129C167.189 85.595 167.292 85.842 167.292 86.0995C167.292 86.3571 167.189 86.604 167.006 86.7861C166.824 86.9682 166.576 87.0705 166.318 87.0705H166.318Z" fill="#E4E4E4"/>
<path d="M162.985 83.7467H148.981C148.723 83.7467 148.475 83.6444 148.293 83.4623C148.11 83.2802 148.007 83.0333 148.007 82.7757C148.007 82.5182 148.11 82.2712 148.293 82.0892C148.475 81.9071 148.723 81.8047 148.981 81.8047H162.985C163.243 81.8052 163.491 81.9077 163.673 82.0897C163.855 82.2718 163.957 82.5185 163.957 82.7757C163.957 83.033 163.855 83.2797 163.673 83.4618C163.491 83.6438 163.243 83.7463 162.985 83.7467Z" fill="#E4E4E4"/>
<path d="M71.7918 54.4448C76.3354 54.4448 80.0188 50.7712 80.0188 46.2395C80.0188 41.7079 76.3354 38.0343 71.7918 38.0343C67.2481 38.0343 63.5648 41.7079 63.5648 46.2395C63.5648 50.7712 67.2481 54.4448 71.7918 54.4448Z" fill="#9E616A"/>
<path d="M85.6534 84.9051H65.0246L66.1824 58.8885L66.3249 58.7393L68.3731 56.5834H74.8867L77.3039 58.9172L77.4944 59.1027L82.6379 64.0181L85.6534 84.9051Z" fill="#804EEB"/>
<path d="M70.7348 84.9051H55.0564C54.9527 74.9488 54.8706 67.4372 54.8706 67.4372L55.6716 66.9511L55.6765 66.9487L64.4697 61.6242L66.3153 58.6334L66.325 58.7393L66.8678 65.0432C66.8678 65.0432 69.818 74.5494 70.7348 84.9051Z" fill="#2F2E41"/>
<path d="M92.068 84.9051H78.1169C77.3714 81.5318 76.983 78.3197 77.1519 75.6418C77.837 64.7015 76.2569 58.6334 76.942 58.6334L77.3039 58.9174L81.6076 62.3075L87.2745 64.3791L91.2067 65.8179L91.8918 66.0681V66.3978C91.8943 68.0531 91.9111 75.7404 92.068 84.9051Z" fill="#2F2E41"/>
<path d="M64.0086 48.8067C64.0086 48.8067 64.7076 47.5824 64.5451 43.4924C64.3826 39.4024 70.6271 41.7157 75.8451 41.3255C81.0631 40.9354 79.9585 48.1538 79.9585 48.1538C79.9585 48.1538 80.335 47.7247 81.1409 44.2409C81.9469 40.7571 80.1169 37.2853 80.1169 37.2853C79.578 33.6244 76.6734 34.7977 76.6734 34.7977C78.0722 35.3408 77.8035 36.5021 77.8035 36.5021C76.6195 34.4316 73.7149 35.6049 73.7149 35.6049C69.841 33.1804 65.9148 36.3732 65.9148 36.3732C61.235 37.4325 63.9795 41.1443 63.9795 41.1443C59.2732 43.5165 64.0086 48.8067 64.0086 48.8067Z" fill="#2F2E41"/>
<path d="M50.5139 84.9051C50.9143 76.9194 51.2206 70.6541 51.1 70.1704C50.7623 68.8254 55.5268 67.0041 55.6716 66.9511L55.674 66.9487H55.6764L56.5859 67.4372L57.2517 84.9051H50.5139Z" fill="#2F2E41"/>
<path d="M95.3488 84.9051H88.2684L86.2419 64.9421L87.0766 64.3334C87.0766 64.3334 87.149 64.3502 87.2745 64.3791C87.9234 64.5403 90.0174 65.0865 91.2067 65.8179C91.4699 65.9661 91.7024 66.1629 91.8918 66.3978C92.0077 66.536 92.0657 66.7136 92.0535 66.8934C91.9932 67.4588 93.5371 75.4517 95.3488 84.9051Z" fill="#2F2E41"/>
<path d="M107.269 92.9653H32.4833C32.1957 92.9658 31.92 93.0801 31.7168 93.2831C31.5136 93.4861 31.3995 93.7612 31.3995 94.0481C31.3995 94.3349 31.5136 94.61 31.7168 94.813C31.92 95.016 32.1957 95.1303 32.4833 95.1308H107.269C107.411 95.131 107.553 95.1032 107.685 95.0489C107.817 94.9946 107.936 94.9148 108.037 94.8143C108.138 94.7137 108.219 94.5943 108.273 94.4628C108.328 94.3313 108.356 94.1904 108.356 94.0481C108.356 93.9057 108.328 93.7648 108.273 93.6333C108.219 93.5018 108.138 93.3824 108.037 93.2818C107.936 93.1813 107.817 93.1016 107.685 93.0472C107.553 92.9929 107.411 92.9651 107.269 92.9653Z" fill="#CACACA"/>
<path d="M87.0043 92.9653V95.1308H32.4833C32.1957 95.1303 31.92 95.016 31.7168 94.813C31.5136 94.61 31.3995 94.3349 31.3995 94.0481C31.3995 93.7612 31.5136 93.4861 31.7168 93.2831C31.92 93.0801 32.1957 92.9658 32.4833 92.9653H87.0043Z" fill="#3F3D56"/>
<path d="M87.0043 96.2135C88.2034 96.2135 89.1754 95.244 89.1754 94.0481C89.1754 92.8521 88.2034 91.8826 87.0043 91.8826C85.8051 91.8826 84.8331 92.8521 84.8331 94.0481C84.8331 95.244 85.8051 96.2135 87.0043 96.2135Z" fill="#3F3D56"/>
<path d="M69.876 112.093C68.9896 112.093 68.123 111.831 67.386 111.34C66.6489 110.849 66.0745 110.151 65.7353 109.334C65.3961 108.517 65.3073 107.618 65.4802 106.751C65.6532 105.884 66.08 105.088 66.7068 104.463C67.3336 103.837 68.1322 103.412 69.0016 103.239C69.871 103.067 70.7722 103.155 71.5911 103.494C72.4101 103.832 73.1101 104.405 73.6025 105.14C74.095 105.875 74.3579 106.739 74.3579 107.623C74.3565 108.808 73.8839 109.945 73.0437 110.783C72.2035 111.621 71.0642 112.092 69.876 112.093ZM69.876 103.497C69.0577 103.497 68.2579 103.739 67.5775 104.193C66.8972 104.646 66.3669 105.29 66.0538 106.044C65.7407 106.798 65.6587 107.628 65.8184 108.428C65.978 109.229 66.372 109.964 66.9506 110.541C67.5292 111.118 68.2663 111.511 69.0689 111.67C69.8714 111.829 70.7032 111.748 71.4592 111.435C72.2152 111.123 72.8613 110.594 73.3159 109.916C73.7705 109.237 74.0131 108.439 74.0131 107.623C74.0119 106.529 73.5756 105.481 72.8 104.707C72.0244 103.934 70.9728 103.498 69.876 103.497V103.497Z" fill="#804EEB"/>
<path d="M69.2841 110.03C69.2384 110.03 69.1945 110.012 69.1622 109.98C69.1299 109.948 69.1117 109.904 69.1117 109.858V105.388C69.1115 105.366 69.1158 105.343 69.1243 105.322C69.1329 105.301 69.1455 105.282 69.1616 105.266C69.1776 105.25 69.1967 105.237 69.2177 105.228C69.2387 105.219 69.2613 105.215 69.2841 105.215C69.3069 105.215 69.3294 105.219 69.3505 105.228C69.3715 105.237 69.3906 105.25 69.4066 105.266C69.4226 105.282 69.4353 105.301 69.4438 105.322C69.4524 105.343 69.4567 105.366 69.4565 105.388V109.858C69.4565 109.904 69.4383 109.948 69.406 109.98C69.3737 110.012 69.3298 110.03 69.2841 110.03Z" fill="#804EEB"/>
<path d="M70.4679 110.03C70.4222 110.03 70.3783 110.012 70.346 109.98C70.3137 109.948 70.2955 109.904 70.2955 109.858V105.388C70.2953 105.366 70.2996 105.343 70.3082 105.322C70.3168 105.301 70.3294 105.282 70.3455 105.266C70.3615 105.25 70.3806 105.237 70.4016 105.228C70.4226 105.219 70.4451 105.215 70.4679 105.215C70.4907 105.215 70.5132 105.219 70.5342 105.228C70.5553 105.237 70.5743 105.25 70.5904 105.266C70.6064 105.282 70.6191 105.301 70.6276 105.322C70.6362 105.343 70.6405 105.366 70.6403 105.388V109.858C70.6403 109.904 70.6221 109.948 70.5898 109.98C70.5575 110.012 70.5136 110.03 70.4679 110.03Z" fill="#804EEB"/>
<path d="M49.3479 107.623C49.3479 106.739 49.6108 105.875 50.1032 105.14C50.5957 104.405 51.2957 103.832 52.1146 103.494C52.9336 103.155 53.8348 103.067 54.7042 103.239C55.5736 103.412 56.3722 103.837 56.999 104.463C57.6258 105.088 58.0526 105.884 58.2256 106.751C58.3985 107.618 58.3097 108.517 57.9705 109.334C57.6313 110.151 57.0568 110.849 56.3198 111.34C55.5827 111.831 54.7162 112.093 53.8298 112.093C52.6415 112.092 51.5023 111.621 50.6621 110.783C49.8219 109.945 49.3492 108.808 49.3479 107.623ZM49.6927 107.623C49.6927 108.439 49.9353 109.237 50.3899 109.916C50.8445 110.594 51.4906 111.123 52.2466 111.435C53.0025 111.748 53.8344 111.83 54.6369 111.67C55.4394 111.511 56.1766 111.118 56.7552 110.541C57.3338 109.964 57.7278 109.229 57.8874 108.428C58.0471 107.628 57.9651 106.798 57.652 106.044C57.3389 105.29 56.8086 104.646 56.1283 104.193C55.4479 103.739 54.648 103.497 53.8298 103.497C52.7329 103.498 51.6814 103.934 50.9058 104.707C50.1302 105.481 49.6939 106.529 49.6927 107.623H49.6927Z" fill="#3F3D56"/>
<path d="M55.7656 109.128C55.7972 109.128 55.8279 109.118 55.8529 109.099C55.878 109.08 55.896 109.053 55.9042 109.022C55.9124 108.992 55.9103 108.96 55.8982 108.931C55.8861 108.902 55.8648 108.877 55.8374 108.862L53.6872 107.623L55.8374 106.385C55.8704 106.366 55.8944 106.335 55.9042 106.298C55.9141 106.262 55.9089 106.223 55.8899 106.19C55.8709 106.157 55.8396 106.133 55.8029 106.123C55.7662 106.113 55.727 106.119 55.6941 106.138L53.3288 107.5C53.307 107.512 53.2889 107.53 53.2763 107.552C53.2637 107.574 53.2571 107.598 53.2571 107.623C53.2571 107.648 53.2637 107.673 53.2763 107.695C53.2889 107.717 53.307 107.735 53.3288 107.747L55.6941 109.109C55.7158 109.122 55.7405 109.128 55.7656 109.128Z" fill="#3F3D56"/>
<path d="M52.5941 109.625C52.6321 109.625 52.6686 109.61 52.6955 109.583C52.7223 109.556 52.7374 109.52 52.7374 109.482V105.765C52.7374 105.727 52.7223 105.69 52.6955 105.664C52.6686 105.637 52.6321 105.622 52.5941 105.622C52.5561 105.622 52.5196 105.637 52.4927 105.664C52.4658 105.69 52.4507 105.727 52.4507 105.765V109.482C52.4507 109.52 52.4658 109.556 52.4927 109.583C52.5196 109.61 52.5561 109.625 52.5941 109.625Z" fill="#3F3D56"/>
<path d="M85.9222 112.093C85.0358 112.093 84.1692 111.831 83.4322 111.34C82.6952 110.849 82.1207 110.151 81.7815 109.334C81.4423 108.517 81.3535 107.618 81.5264 106.751C81.6994 105.884 82.1262 105.088 82.753 104.463C83.3798 103.837 84.1784 103.412 85.0478 103.239C85.9172 103.067 86.8184 103.155 87.6373 103.494C88.4563 103.832 89.1563 104.405 89.6488 105.14C90.1412 105.875 90.4041 106.739 90.4041 107.623C90.4028 108.808 89.9301 109.945 89.0899 110.783C88.2497 111.621 87.1105 112.092 85.9222 112.093ZM85.9222 103.497C85.104 103.497 84.3041 103.739 83.6237 104.193C82.9434 104.646 82.4131 105.29 82.1 106.044C81.7869 106.798 81.7049 107.628 81.8646 108.428C82.0242 109.229 82.4182 109.964 82.9968 110.541C83.5754 111.118 84.3126 111.511 85.1151 111.67C85.9176 111.829 86.7495 111.748 87.5054 111.435C88.2614 111.123 88.9075 110.594 89.3621 109.916C89.8167 109.237 90.0593 108.439 90.0593 107.623C90.0581 106.529 89.6218 105.481 88.8462 104.707C88.0706 103.934 87.0191 103.498 85.9222 103.497V103.497Z" fill="#3F3D56"/>
<path d="M83.9864 109.128C83.9548 109.128 83.9241 109.118 83.899 109.099C83.874 109.08 83.856 109.053 83.8478 109.022C83.8396 108.992 83.8417 108.96 83.8538 108.931C83.8659 108.902 83.8872 108.877 83.9145 108.862L86.0648 107.623L83.9145 106.385C83.8817 106.366 83.8578 106.335 83.8481 106.298C83.8383 106.262 83.8435 106.223 83.8625 106.19C83.8814 106.157 83.9127 106.133 83.9493 106.124C83.9859 106.114 84.025 106.119 84.0579 106.138L86.4232 107.5C86.445 107.512 86.4631 107.53 86.4757 107.552C86.4883 107.574 86.4949 107.598 86.4949 107.623C86.4949 107.648 86.4883 107.673 86.4757 107.695C86.4631 107.717 86.445 107.735 86.4232 107.747L84.0579 109.109C84.0361 109.122 84.0115 109.128 83.9864 109.128Z" fill="#3F3D56"/>
<path d="M87.1579 109.625C87.1199 109.625 87.0834 109.61 87.0565 109.583C87.0296 109.556 87.0145 109.52 87.0145 109.482V105.765C87.0145 105.727 87.0296 105.69 87.0565 105.664C87.0834 105.637 87.1199 105.622 87.1579 105.622C87.1959 105.622 87.2324 105.637 87.2593 105.664C87.2861 105.69 87.3012 105.727 87.3012 105.765V109.482C87.3012 109.52 87.2861 109.556 87.2593 109.583C87.2324 109.61 87.1959 109.625 87.1579 109.625Z" fill="#3F3D56"/>
<path d="M26.7592 110.992C26.5223 110.756 26.3404 110.47 26.2261 110.156C26.1119 109.841 26.0681 109.506 26.098 109.173C26.1279 108.839 26.2306 108.517 26.399 108.228C26.5673 107.938 26.7973 107.69 27.0725 107.498L24.8674 99.6721L28.9024 100.957L30.3779 108.192C30.669 108.675 30.7725 109.247 30.6689 109.8C30.5653 110.354 30.2617 110.85 29.8157 111.195C29.3696 111.54 28.8121 111.71 28.2488 111.673C27.6855 111.636 27.1555 111.393 26.7592 110.992Z" fill="#FFB6B6"/>
<path d="M25.6807 71.9997L24.8449 71.1321C24.8449 71.1321 22.2607 72.9024 22.8075 78.3902C23.2113 82.4437 21.9351 84.1627 22.0777 95.9443L25.6807 106.734L29.8481 104.555L26.8331 91.2421L25.6807 71.9997Z" fill="#804EEB"/>
<path d="M28.807 159.57H31.7952L33.2169 148.074L28.8065 148.075L28.807 159.57Z" fill="#FFB6B6"/>
<path d="M28.0449 158.597L33.9296 158.596H33.9298C34.9244 158.596 35.8783 158.991 36.5816 159.692C37.2849 160.393 37.68 161.345 37.6801 162.337V162.458L28.045 162.459L28.0449 158.597Z" fill="#2F2E41"/>
<path d="M37.5214 158.514L40.4874 158.877L43.3014 147.64L38.9241 147.104L37.5214 158.514Z" fill="#FFB6B6"/>
<path d="M36.8836 157.456L42.7246 158.17L42.7248 158.17C43.712 158.291 44.6106 158.798 45.2231 159.58C45.8355 160.361 46.1116 161.353 45.9906 162.338L45.9757 162.459L36.4123 161.289L36.8836 157.456Z" fill="#2F2E41"/>
<path d="M27.2582 100.632C27.2582 100.632 21.5021 104.555 24.38 115.175L28.272 156.398L32.896 156.366L34.8545 136.025L36.1856 121.705L40.633 136.513L36.9749 154.683L42.3739 155.25L48.8424 134.12L45.723 104.035L27.2582 100.632Z" fill="#2F2E41"/>
<path d="M41.1471 70.0184L38.2203 67.6705L30.4585 67.3519L24.8449 71.1321C24.8449 71.1321 24.2655 84.5927 28.0641 96.5832L26.0725 101.592L45.9849 104.083L41.1471 70.0184Z" fill="#804EEB"/>
<path d="M34.8716 64.4711C38.5486 64.4711 41.5294 61.4981 41.5294 57.8309C41.5294 54.1636 38.5486 51.1907 34.8716 51.1907C31.1946 51.1907 28.2138 54.1636 28.2138 57.8309C28.2138 61.4981 31.1946 64.4711 34.8716 64.4711Z" fill="#FFB6B6"/>
<path d="M36.618 49.6225H35.1384C34.1075 49.3161 33.019 49.254 31.9598 49.4412C30.9005 49.6285 29.8997 50.0599 29.0372 50.7011C28.1746 51.3422 27.4742 52.1755 26.9916 53.1344C26.509 54.0933 26.2576 55.1513 26.2575 56.2243L23.9532 63.8082C23.8867 64.0269 23.8725 64.2581 23.9118 64.4832C23.951 64.7084 24.0425 64.9212 24.1791 65.1048C24.3156 65.2883 24.4933 65.4374 24.698 65.5401C24.9026 65.6428 25.1286 65.6963 25.3577 65.6963H26.4825C26.9534 65.0273 27.1589 64.2078 27.059 63.3964C27.2682 63.9043 27.4147 64.4357 27.4955 64.9789C27.5216 65.2177 27.5166 65.4588 27.4807 65.6963H37.2658C37.3291 64.7391 37.0112 63.7957 36.3811 63.0709C37.1695 63.8564 37.8547 64.7386 38.4203 65.6963H38.6041C38.9933 65.6963 39.3665 65.5421 39.6417 65.2676C39.9169 64.9931 40.0715 64.6209 40.0715 64.2327V56.7983H43.8129C43.8129 55.856 43.6268 54.9229 43.2652 54.0523C42.9036 53.1817 42.3736 52.3906 41.7055 51.7243C41.0374 51.0579 40.2443 50.5294 39.3714 50.1688C38.4984 49.8081 37.5629 49.6225 36.618 49.6225Z" fill="#2F2E41"/>
<path d="M44.0268 110.418C43.7899 110.182 43.6079 109.896 43.4937 109.582C43.3795 109.267 43.3357 108.932 43.3656 108.598C43.3955 108.265 43.4982 107.943 43.6666 107.654C43.8349 107.364 44.0648 107.115 44.3401 106.924L42.1349 99.098L46.17 100.383L47.6454 107.618C47.9365 108.1 48.0401 108.673 47.9365 109.226C47.8329 109.78 47.5293 110.276 47.0832 110.621C46.6372 110.966 46.0797 111.136 45.5164 111.099C44.9531 111.062 44.4231 110.819 44.0268 110.418Z" fill="#FFB6B6"/>
<path d="M38.6232 71.5037L41.1471 70.0184C41.1471 70.0184 45.117 69.3205 45.5407 74.5955C45.9645 79.8706 46.5749 93.5636 46.5749 93.5636L47.8131 105.107L43.2181 106.084L37.9369 90.2986L38.6232 71.5037Z" fill="#804EEB"/>
<path d="M61.7999 163H0.787793C0.711466 163 0.638268 162.97 0.584297 162.916C0.530325 162.862 0.5 162.789 0.5 162.713C0.5 162.637 0.530325 162.564 0.584297 162.51C0.638268 162.456 0.711466 162.426 0.787793 162.426H61.7999C61.8762 162.426 61.9494 162.456 62.0034 162.51C62.0574 162.564 62.0877 162.637 62.0877 162.713C62.0877 162.789 62.0574 162.862 62.0034 162.916C61.9494 162.97 61.8762 163 61.7999 163Z" fill="#CACACA"/>
</g>
<defs>
<clipPath id="clip0_2_74">
<rect width="178" height="163" fill="white" transform="translate(0.5)"/>
</clipPath>
</defs>
</svg>
