<svg width="226" height="106" viewBox="0 0 226 106" fill="none" xmlns="http://www.w3.org/2000/svg">
<path d="M38.7118 65C37.9293 62.9288 37.1929 60.9036 36.5025 58.9244C35.8121 56.8992 35.0986 54.851 34.3622 52.7797H12.6833L8.33371 65H1.36056C3.20165 59.937 4.92768 55.2652 6.53864 50.9847C8.1496 46.6581 9.71453 42.5616 11.2334 38.6953C12.7984 34.829 14.3403 31.1468 15.8592 27.6488C17.3781 24.1047 18.966 20.6066 20.623 17.1545H26.7677C28.4247 20.6066 30.0126 24.1047 31.5315 27.6488C33.0504 31.1468 34.5693 34.829 36.0882 38.6953C37.6532 42.5616 39.2411 46.6581 40.8521 50.9847C42.463 55.2652 44.189 59.937 46.0301 65H38.7118ZM32.429 47.2564C30.9562 43.2521 29.4833 39.3858 28.0104 35.6575C26.5836 31.8833 25.0877 28.2701 23.5227 24.8181C21.9118 28.2701 20.3699 31.8833 18.897 35.6575C17.4701 39.3858 16.0433 43.2521 14.6164 47.2564H32.429ZM62.8821 65.6904C58.9237 65.5984 56.1161 64.7468 54.4591 63.1359C52.8021 61.5249 51.9736 59.0164 51.9736 55.6104V12.5288L58.3944 11.4241V54.5748C58.3944 55.6334 58.4865 56.5079 58.6706 57.1984C58.8547 57.8888 59.1539 58.4411 59.5681 58.8553C59.9824 59.2696 60.5347 59.5918 61.2251 59.8219C61.9155 60.006 62.767 60.1671 63.7796 60.3052L62.8821 65.6904ZM68.9879 47.1184C68.9879 43.9425 69.4482 41.1808 70.3687 38.8334C71.2893 36.44 72.509 34.4608 74.0279 32.8959C75.5468 31.331 77.2959 30.1573 79.275 29.3748C81.2542 28.5923 83.2794 28.2011 85.3507 28.2011C90.1835 28.2011 93.8887 29.72 96.4663 32.7578C99.0438 35.7496 100.333 40.3293 100.333 46.497C100.333 46.7732 100.333 47.1414 100.333 47.6016C100.333 48.0159 100.31 48.4071 100.264 48.7753H75.6849C75.9611 52.5036 77.0427 55.3342 78.9298 57.2674C80.817 59.2005 83.7627 60.1671 87.7671 60.1671C90.0224 60.1671 91.9096 59.983 93.4285 59.6148C94.9934 59.2005 96.1671 58.8093 96.9496 58.4411L97.8471 63.8263C97.0646 64.2405 95.6838 64.6778 93.7046 65.1381C91.7715 65.5984 89.5622 65.8285 87.0767 65.8285C83.9468 65.8285 81.2312 65.3682 78.9298 64.4477C76.6745 63.4811 74.8104 62.1693 73.3375 60.5123C71.8646 58.8553 70.76 56.8992 70.0235 54.6438C69.3331 52.3425 68.9879 49.834 68.9879 47.1184ZM93.6356 43.5973C93.6816 40.6975 92.9452 38.3271 91.4263 36.486C89.9534 34.5989 87.9052 33.6553 85.2816 33.6553C83.8087 33.6553 82.497 33.9545 81.3463 34.5529C80.2416 35.1052 79.2981 35.8416 78.5156 36.7622C77.7331 37.6827 77.1118 38.7414 76.6515 39.9381C76.2372 41.1348 75.9611 42.3545 75.823 43.5973H93.6356ZM109.556 30.1342C111.029 29.766 112.962 29.3748 115.355 28.9605C117.795 28.5463 120.603 28.3392 123.779 28.3392C126.08 28.3392 128.013 28.6614 129.578 29.3058C131.143 29.9041 132.455 30.8016 133.513 31.9984C133.835 31.7682 134.342 31.446 135.032 31.0318C135.723 30.6175 136.574 30.2263 137.587 29.8581C138.599 29.4438 139.727 29.0986 140.97 28.8225C142.212 28.5003 143.547 28.3392 144.974 28.3392C147.736 28.3392 149.991 28.7534 151.74 29.5819C153.489 30.3644 154.847 31.4921 155.814 32.9649C156.826 34.4378 157.494 36.1869 157.816 38.2121C158.184 40.2373 158.368 42.4466 158.368 44.84V65H151.947V46.2208C151.947 44.1036 151.832 42.2855 151.602 40.7666C151.418 39.2477 151.027 37.9819 150.428 36.9693C149.876 35.9567 149.094 35.2203 148.081 34.76C147.114 34.2537 145.849 34.0005 144.284 34.0005C142.12 34.0005 140.325 34.2997 138.899 34.8981C137.518 35.4504 136.574 35.9567 136.068 36.417C136.436 37.6137 136.712 38.9255 136.896 40.3523C137.08 41.7792 137.172 43.2751 137.172 44.84V65H130.752V46.2208C130.752 44.1036 130.637 42.2855 130.406 40.7666C130.176 39.2477 129.762 37.9819 129.164 36.9693C128.611 35.9567 127.829 35.2203 126.816 34.76C125.85 34.2537 124.607 34.0005 123.088 34.0005C122.444 34.0005 121.753 34.0236 121.017 34.0696C120.28 34.1156 119.567 34.1847 118.877 34.2767C118.232 34.3227 117.634 34.3918 117.082 34.4838C116.529 34.5759 116.161 34.6449 115.977 34.691V65H109.556V30.1342ZM169.023 30.1342C170.496 29.766 172.452 29.3748 174.892 28.9605C177.331 28.5463 180.139 28.3392 183.315 28.3392C186.168 28.3392 188.539 28.7534 190.426 29.5819C192.313 30.3644 193.809 31.4921 194.913 32.9649C196.064 34.3918 196.87 36.1178 197.33 38.143C197.79 40.1682 198.02 42.4005 198.02 44.84V65H191.6V46.2208C191.6 44.0115 191.438 42.1244 191.116 40.5595C190.84 38.9945 190.357 37.7288 189.666 36.7622C188.976 35.7956 188.055 35.1052 186.905 34.691C185.754 34.2307 184.327 34.0005 182.624 34.0005C181.934 34.0005 181.22 34.0236 180.484 34.0696C179.747 34.1156 179.034 34.1847 178.344 34.2767C177.699 34.3227 177.101 34.3918 176.549 34.4838C176.042 34.5759 175.674 34.6449 175.444 34.691V65H169.023V30.1342ZM215.089 65H208.668V29.0986H215.089V65ZM211.844 22.6088C210.693 22.6088 209.703 22.2405 208.875 21.5041C208.092 20.7216 207.701 19.686 207.701 18.3973C207.701 17.1085 208.092 16.0959 208.875 15.3595C209.703 14.577 210.693 14.1858 211.844 14.1858C212.994 14.1858 213.961 14.577 214.743 15.3595C215.572 16.0959 215.986 17.1085 215.986 18.3973C215.986 19.686 215.572 20.7216 214.743 21.5041C213.961 22.2405 212.994 22.6088 211.844 22.6088Z" fill="black"/>
<path fill-rule="evenodd" clip-rule="evenodd" d="M221.896 25.8904C223.946 23.6002 225.192 20.5758 225.192 17.2604C225.192 10.111 219.396 4.3152 212.247 4.3152C205.098 4.3152 199.302 10.111 199.302 17.2604C199.302 20.5758 200.548 23.6002 202.598 25.8904H221.896ZM212.306 30.2055H212.188C212.208 30.2056 212.227 30.2056 212.247 30.2056C212.267 30.2056 212.286 30.2056 212.306 30.2055Z" fill="#804EEB"/>
<path d="M20.7014 90.2931C20.057 92.349 19.4049 94.2515 18.7452 96.0005C18.0855 97.7496 17.4258 99.4526 16.766 101.11H14.5337C13.7205 98.7622 12.9995 96.2844 12.3704 93.6762C11.7567 91.0679 11.1814 88.2296 10.6444 85.1611H12.9918C13.2066 86.3578 13.429 87.5545 13.6592 88.7512C13.8893 89.9479 14.1271 91.114 14.3726 92.2493C14.6181 93.3693 14.8636 94.4433 15.109 95.4712C15.3545 96.4992 15.6077 97.4504 15.8685 98.3249C16.4822 96.714 17.1342 94.9496 17.8247 93.0318C18.5151 91.0986 19.1595 89.1041 19.7578 87.0482H21.691C22.2893 89.1041 22.9414 91.0986 23.6471 93.0318C24.3529 94.9496 25.0126 96.714 25.6263 98.3249C25.8718 97.4658 26.1173 96.5222 26.3627 95.4942C26.6082 94.4663 26.846 93.3923 27.0762 92.2723C27.3216 91.137 27.5595 89.971 27.7896 88.7742C28.0197 87.5622 28.2422 86.3578 28.457 85.1611H30.7353C30.183 88.2296 29.5923 91.0679 28.9633 93.6762C28.3496 96.2844 27.6438 98.7622 26.846 101.11H24.6137C23.9386 99.4526 23.2789 97.7496 22.6345 96.0005C21.9901 94.2515 21.3458 92.349 20.7014 90.2931ZM39.2369 99.5677C39.7432 99.5677 40.1882 99.56 40.5717 99.5447C40.9706 99.514 41.3005 99.4679 41.5613 99.4066V95.8395C41.4079 95.7627 41.1547 95.7014 40.8019 95.6553C40.4643 95.594 40.0501 95.5633 39.5591 95.5633C39.2369 95.5633 38.8917 95.5863 38.5235 95.6323C38.1706 95.6784 37.8408 95.7781 37.5339 95.9315C37.2424 96.0696 36.9969 96.269 36.7975 96.5299C36.598 96.7753 36.4983 97.1052 36.4983 97.5195C36.4983 98.2866 36.7438 98.8236 37.2347 99.1304C37.7257 99.4219 38.3931 99.5677 39.2369 99.5677ZM39.0528 88.8433C39.912 88.8433 40.6331 88.9584 41.2161 89.1885C41.8145 89.4033 42.2901 89.7178 42.643 90.1321C43.0112 90.531 43.272 91.0142 43.4254 91.5819C43.5788 92.1342 43.6556 92.7479 43.6556 93.423V100.902C43.4714 100.933 43.2106 100.979 42.8731 101.041C42.5509 101.087 42.1827 101.133 41.7684 101.179C41.3542 101.225 40.9016 101.263 40.4106 101.294C39.935 101.34 39.4594 101.363 38.9838 101.363C38.3087 101.363 37.6873 101.294 37.1197 101.156C36.552 101.018 36.061 100.803 35.6468 100.511C35.2325 100.204 34.9104 99.8055 34.6802 99.3145C34.4501 98.8236 34.335 98.2329 34.335 97.5425C34.335 96.8827 34.4654 96.3151 34.7262 95.8395C35.0024 95.3638 35.3706 94.9803 35.8309 94.6888C36.2912 94.3973 36.8282 94.1825 37.4419 94.0444C38.0556 93.9063 38.6999 93.8373 39.375 93.8373C39.5898 93.8373 39.8123 93.8526 40.0424 93.8833C40.2725 93.8986 40.4873 93.9293 40.6868 93.9753C40.9016 94.006 41.0857 94.0367 41.2391 94.0674C41.3925 94.0981 41.4999 94.1211 41.5613 94.1364V93.5381C41.5613 93.1852 41.523 92.84 41.4462 92.5025C41.3695 92.1496 41.2314 91.8427 41.032 91.5819C40.8325 91.3058 40.5564 91.091 40.2035 90.9375C39.866 90.7688 39.421 90.6844 38.8687 90.6844C38.163 90.6844 37.5416 90.7381 37.0046 90.8455C36.483 90.9375 36.0917 91.0373 35.8309 91.1447L35.5777 89.3726C35.8539 89.2499 36.3142 89.1348 36.9586 89.0274C37.603 88.9047 38.301 88.8433 39.0528 88.8433ZM51.859 89.1425H56.3927V90.9375H51.859V96.4608C51.859 97.0592 51.9051 97.5578 51.9971 97.9567C52.0892 98.3403 52.2273 98.6471 52.4114 98.8773C52.5955 99.0921 52.8256 99.2455 53.1018 99.3375C53.3779 99.4296 53.7001 99.4756 54.0684 99.4756C54.7127 99.4756 55.2267 99.4066 55.6103 99.2685C56.0092 99.1151 56.2853 99.0077 56.4388 98.9463L56.853 100.718C56.6382 100.826 56.2623 100.956 55.7253 101.11C55.1884 101.278 54.5747 101.363 53.8842 101.363C53.0711 101.363 52.396 101.263 51.859 101.064C51.3374 100.849 50.9155 100.534 50.5933 100.12C50.2711 99.7058 50.041 99.1995 49.9029 98.6011C49.7801 97.9874 49.7188 97.2816 49.7188 96.4838V85.8055L51.859 85.4373V89.1425ZM66.6718 101.386C65.7052 101.386 64.8537 101.232 64.1173 100.925C63.3962 100.619 62.7825 100.189 62.2762 99.6367C61.7852 99.0844 61.417 98.4323 61.1715 97.6805C60.926 96.9134 60.8033 96.0696 60.8033 95.149C60.8033 94.2285 60.9337 93.3847 61.1945 92.6175C61.4707 91.8504 61.8542 91.1907 62.3452 90.6384C62.8362 90.0707 63.4345 89.6334 64.1403 89.3266C64.8614 89.0044 65.6592 88.8433 66.5337 88.8433C67.0707 88.8433 67.6077 88.8893 68.1447 88.9814C68.6816 89.0734 69.1956 89.2192 69.6866 89.4186L69.2033 91.2367C68.8811 91.0833 68.5052 90.9605 68.0756 90.8685C67.6614 90.7764 67.2164 90.7304 66.7408 90.7304C65.5441 90.7304 64.6236 91.1063 63.9792 91.8581C63.3501 92.6099 63.0356 93.7068 63.0356 95.149C63.0356 95.7934 63.1047 96.3841 63.2427 96.9211C63.3962 97.4581 63.6263 97.9184 63.9331 98.3019C64.2553 98.6855 64.6619 98.9847 65.1529 99.1995C65.6438 99.3989 66.2422 99.4986 66.9479 99.4986C67.5156 99.4986 68.0296 99.4449 68.4899 99.3375C68.9501 99.2301 69.3107 99.1151 69.5715 98.9923L69.8707 100.787C69.7479 100.864 69.5715 100.941 69.3414 101.018C69.1112 101.079 68.8504 101.133 68.5589 101.179C68.2674 101.24 67.9529 101.286 67.6153 101.317C67.2931 101.363 66.9786 101.386 66.6718 101.386ZM74.815 101.11V83.6192L76.9553 83.251V89.3726C77.3542 89.2192 77.7761 89.1041 78.2211 89.0274C78.6813 88.9353 79.1339 88.8893 79.5789 88.8893C80.5301 88.8893 81.3202 89.0274 81.9493 89.3036C82.5783 89.5644 83.0769 89.9403 83.4452 90.4312C83.8287 90.9068 84.0972 91.4822 84.2506 92.1573C84.4041 92.8323 84.4808 93.5764 84.4808 94.3896V101.11H82.3405V94.8499C82.3405 94.1134 82.2868 93.4844 82.1794 92.9627C82.0874 92.4411 81.9263 92.0192 81.6961 91.697C81.466 91.3748 81.1591 91.1447 80.7756 91.0066C80.392 90.8531 79.9164 90.7764 79.3487 90.7764C79.1186 90.7764 78.8808 90.7918 78.6353 90.8225C78.3898 90.8531 78.152 90.8915 77.9219 90.9375C77.7071 90.9682 77.5076 91.0066 77.3235 91.0526C77.1548 91.0986 77.032 91.137 76.9553 91.1677V101.11H74.815ZM102.632 99.5677C103.139 99.5677 103.584 99.56 103.967 99.5447C104.366 99.514 104.696 99.4679 104.957 99.4066V95.8395C104.803 95.7627 104.55 95.7014 104.197 95.6553C103.86 95.594 103.446 95.5633 102.955 95.5633C102.632 95.5633 102.287 95.5863 101.919 95.6323C101.566 95.6784 101.236 95.7781 100.929 95.9315C100.638 96.0696 100.392 96.269 100.193 96.5299C99.9936 96.7753 99.8938 97.1052 99.8938 97.5195C99.8938 98.2866 100.139 98.8236 100.63 99.1304C101.121 99.4219 101.789 99.5677 102.632 99.5677ZM102.448 88.8433C103.308 88.8433 104.029 88.9584 104.612 89.1885C105.21 89.4033 105.686 89.7178 106.039 90.1321C106.407 90.531 106.668 91.0142 106.821 91.5819C106.974 92.1342 107.051 92.7479 107.051 93.423V100.902C106.867 100.933 106.606 100.979 106.269 101.041C105.946 101.087 105.578 101.133 105.164 101.179C104.75 101.225 104.297 101.263 103.806 101.294C103.331 101.34 102.855 101.363 102.379 101.363C101.704 101.363 101.083 101.294 100.515 101.156C99.9475 101.018 99.4566 100.803 99.0423 100.511C98.6281 100.204 98.3059 99.8055 98.0758 99.3145C97.8456 98.8236 97.7306 98.2329 97.7306 97.5425C97.7306 96.8827 97.861 96.3151 98.1218 95.8395C98.398 95.3638 98.7662 94.9803 99.2264 94.6888C99.6867 94.3973 100.224 94.1825 100.837 94.0444C101.451 93.9063 102.095 93.8373 102.771 93.8373C102.985 93.8373 103.208 93.8526 103.438 93.8833C103.668 93.8986 103.883 93.9293 104.082 93.9753C104.297 94.006 104.481 94.0367 104.635 94.0674C104.788 94.0981 104.895 94.1211 104.957 94.1364V93.5381C104.957 93.1852 104.919 92.84 104.842 92.5025C104.765 92.1496 104.627 91.8427 104.428 91.5819C104.228 91.3058 103.952 91.091 103.599 90.9375C103.262 90.7688 102.817 90.6844 102.264 90.6844C101.559 90.6844 100.937 90.7381 100.4 90.8455C99.8785 90.9375 99.4873 91.0373 99.2264 91.1447L98.9733 89.3726C99.2495 89.2499 99.7097 89.1348 100.354 89.0274C100.999 88.9047 101.697 88.8433 102.448 88.8433ZM113.252 89.4877C113.743 89.3649 114.395 89.2345 115.209 89.0964C116.022 88.9584 116.958 88.8893 118.016 88.8893C118.967 88.8893 119.758 89.0274 120.387 89.3036C121.016 89.5644 121.514 89.9403 121.883 90.4312C122.266 90.9068 122.535 91.4822 122.688 92.1573C122.841 92.8323 122.918 93.5764 122.918 94.3896V101.11H120.778V94.8499C120.778 94.1134 120.724 93.4844 120.617 92.9627C120.525 92.4411 120.364 92.0192 120.133 91.697C119.903 91.3748 119.597 91.1447 119.213 91.0066C118.829 90.8531 118.354 90.7764 117.786 90.7764C117.556 90.7764 117.318 90.7841 117.073 90.7995C116.827 90.8148 116.589 90.8378 116.359 90.8685C116.144 90.8838 115.945 90.9068 115.761 90.9375C115.592 90.9682 115.469 90.9912 115.393 91.0066V101.11H113.252V89.4877ZM136.846 91.674C136.586 91.4592 136.21 91.2521 135.719 91.0526C135.228 90.8531 134.691 90.7534 134.108 90.7534C133.494 90.7534 132.965 90.8685 132.52 91.0986C132.09 91.3134 131.737 91.6203 131.461 92.0192C131.185 92.4027 130.986 92.863 130.863 93.4C130.74 93.937 130.679 94.5123 130.679 95.126C130.679 96.5222 131.024 97.6038 131.714 98.371C132.405 99.1227 133.325 99.4986 134.476 99.4986C135.059 99.4986 135.542 99.4756 135.926 99.4296C136.325 99.3682 136.632 99.3068 136.846 99.2455V91.674ZM136.846 83.6192L138.987 83.251V100.764C138.496 100.902 137.867 101.041 137.1 101.179C136.332 101.317 135.45 101.386 134.453 101.386C133.532 101.386 132.704 101.24 131.968 100.948C131.231 100.657 130.602 100.243 130.08 99.7058C129.559 99.1688 129.152 98.5167 128.861 97.7496C128.585 96.9671 128.446 96.0926 128.446 95.126C128.446 94.2055 128.562 93.3616 128.792 92.5945C129.037 91.8274 129.39 91.1677 129.85 90.6153C130.311 90.063 130.871 89.6334 131.53 89.3266C132.205 89.0197 132.973 88.8663 133.832 88.8663C134.522 88.8663 135.128 88.9584 135.65 89.1425C136.187 89.3266 136.586 89.503 136.846 89.6718V83.6192ZM152.618 95.149C152.618 94.0904 152.771 93.1699 153.078 92.3874C153.385 91.5896 153.792 90.9299 154.298 90.4082C154.804 89.8866 155.387 89.4953 156.047 89.2345C156.707 88.9737 157.382 88.8433 158.072 88.8433C159.683 88.8433 160.918 89.3496 161.778 90.3622C162.637 91.3595 163.066 92.886 163.066 94.9419C163.066 95.034 163.066 95.1567 163.066 95.3101C163.066 95.4482 163.059 95.5786 163.043 95.7014H154.85C154.942 96.9441 155.303 97.8877 155.932 98.5321C156.561 99.1764 157.543 99.4986 158.878 99.4986C159.63 99.4986 160.259 99.4373 160.765 99.3145C161.287 99.1764 161.678 99.046 161.939 98.9233L162.238 100.718C161.977 100.856 161.517 101.002 160.857 101.156C160.213 101.309 159.476 101.386 158.648 101.386C157.604 101.386 156.699 101.232 155.932 100.925C155.18 100.603 154.559 100.166 154.068 99.6137C153.577 99.0614 153.209 98.4093 152.963 97.6575C152.733 96.8904 152.618 96.0542 152.618 95.149ZM160.834 93.9753C160.849 93.0088 160.604 92.2186 160.098 91.6049C159.607 90.9759 158.924 90.6614 158.049 90.6614C157.558 90.6614 157.121 90.7611 156.738 90.9605C156.369 91.1447 156.055 91.3901 155.794 91.697C155.533 92.0038 155.326 92.3567 155.173 92.7556C155.034 93.1545 154.942 93.5611 154.896 93.9753H160.834ZM175.945 101.11C175.776 100.772 175.569 100.396 175.323 99.9819C175.078 99.5677 174.809 99.1458 174.518 98.7162C174.226 98.2712 173.927 97.834 173.62 97.4044C173.313 96.9748 173.014 96.5682 172.723 96.1847C172.431 96.5682 172.132 96.9825 171.825 97.4274C171.518 97.857 171.219 98.2942 170.928 98.7392C170.651 99.1688 170.391 99.5907 170.145 100.005C169.9 100.419 169.693 100.787 169.524 101.11H167.314C167.851 100.066 168.488 99.0077 169.225 97.9337C169.976 96.8444 170.72 95.8088 171.457 94.8268L167.499 89.1425H169.915L172.769 93.331L175.645 89.1425H177.924L174.057 94.6888C174.794 95.686 175.546 96.7447 176.313 97.8647C177.095 98.9693 177.755 100.051 178.292 101.11H175.945ZM187.895 101.386C186.928 101.386 186.077 101.232 185.34 100.925C184.619 100.619 184.005 100.189 183.499 99.6367C183.008 99.0844 182.64 98.4323 182.394 97.6805C182.149 96.9134 182.026 96.0696 182.026 95.149C182.026 94.2285 182.157 93.3847 182.417 92.6175C182.694 91.8504 183.077 91.1907 183.568 90.6384C184.059 90.0707 184.657 89.6334 185.363 89.3266C186.084 89.0044 186.882 88.8433 187.757 88.8433C188.294 88.8433 188.831 88.8893 189.368 88.9814C189.905 89.0734 190.418 89.2192 190.909 89.4186L190.426 91.2367C190.104 91.0833 189.728 90.9605 189.298 90.8685C188.884 90.7764 188.439 90.7304 187.964 90.7304C186.767 90.7304 185.846 91.1063 185.202 91.8581C184.573 92.6099 184.258 93.7068 184.258 95.149C184.258 95.7934 184.328 96.3841 184.466 96.9211C184.619 97.4581 184.849 97.9184 185.156 98.3019C185.478 98.6855 185.885 98.9847 186.376 99.1995C186.867 99.3989 187.465 99.4986 188.171 99.4986C188.738 99.4986 189.252 99.4449 189.713 99.3375C190.173 99.2301 190.534 99.1151 190.794 98.9923L191.094 100.787C190.971 100.864 190.794 100.941 190.564 101.018C190.334 101.079 190.073 101.133 189.782 101.179C189.49 101.24 189.176 101.286 188.838 101.317C188.516 101.363 188.201 101.386 187.895 101.386ZM195.37 95.149C195.37 94.0904 195.524 93.1699 195.831 92.3874C196.138 91.5896 196.544 90.9299 197.05 90.4082C197.557 89.8866 198.14 89.4953 198.8 89.2345C199.459 88.9737 200.134 88.8433 200.825 88.8433C202.436 88.8433 203.671 89.3496 204.53 90.3622C205.389 91.3595 205.819 92.886 205.819 94.9419C205.819 95.034 205.819 95.1567 205.819 95.3101C205.819 95.4482 205.811 95.5786 205.796 95.7014H197.603C197.695 96.9441 198.055 97.8877 198.684 98.5321C199.314 99.1764 200.295 99.4986 201.63 99.4986C202.382 99.4986 203.011 99.4373 203.517 99.3145C204.039 99.1764 204.43 99.046 204.691 98.9233L204.99 100.718C204.729 100.856 204.269 101.002 203.609 101.156C202.965 101.309 202.229 101.386 201.4 101.386C200.357 101.386 199.452 101.232 198.684 100.925C197.933 100.603 197.311 100.166 196.82 99.6137C196.329 99.0614 195.961 98.4093 195.716 97.6575C195.486 96.8904 195.37 96.0542 195.37 95.149ZM203.586 93.9753C203.602 93.0088 203.356 92.2186 202.85 91.6049C202.359 90.9759 201.676 90.6614 200.802 90.6614C200.311 90.6614 199.874 90.7611 199.49 90.9605C199.122 91.1447 198.807 91.3901 198.546 91.697C198.286 92.0038 198.078 92.3567 197.925 92.7556C197.787 93.1545 197.695 93.5611 197.649 93.9753H203.586ZM215.13 101.34C213.81 101.309 212.875 101.025 212.322 100.488C211.77 99.9512 211.494 99.1151 211.494 97.9797V83.6192L213.634 83.251V97.6345C213.634 97.9874 213.665 98.2789 213.726 98.509C213.787 98.7392 213.887 98.9233 214.025 99.0614C214.163 99.1995 214.347 99.3068 214.578 99.3836C214.808 99.4449 215.092 99.4986 215.429 99.5447L215.13 101.34Z" fill="black"/>
</svg>
