<svg width="193" height="59" viewBox="0 0 193 59" fill="none" xmlns="http://www.w3.org/2000/svg">
<path d="M44.852 45C44.308 43.56 43.796 42.152 43.316 40.776C42.836 39.368 42.34 37.944 41.828 36.504H26.756L23.732 45H18.884C20.164 41.48 21.364 38.232 22.484 35.256C23.604 32.248 24.692 29.4 25.748 26.712C26.836 24.024 27.908 21.464 28.964 19.032C30.02 16.568 31.124 14.136 32.276 11.736H36.548C37.7 14.136 38.804 16.568 39.86 19.032C40.916 21.464 41.972 24.024 43.028 26.712C44.116 29.4 45.22 32.248 46.34 35.256C47.46 38.232 48.66 41.48 49.94 45H44.852ZM40.484 32.664C39.46 29.88 38.436 27.192 37.412 24.6C36.42 21.976 35.38 19.464 34.292 17.064C33.172 19.464 32.1 21.976 31.076 24.6C30.084 27.192 29.092 29.88 28.1 32.664H40.484ZM61.6561 45.48C58.9041 45.416 56.9521 44.824 55.8001 43.704C54.6481 42.584 54.0721 40.84 54.0721 38.472V8.52L58.5361 7.752V37.752C58.5361 38.488 58.6001 39.096 58.7281 39.576C58.8561 40.056 59.0641 40.44 59.3521 40.728C59.6401 41.016 60.0241 41.24 60.5041 41.4C60.9841 41.528 61.5761 41.64 62.2801 41.736L61.6561 45.48ZM65.9011 32.568C65.9011 30.36 66.2211 28.44 66.8611 26.808C67.5011 25.144 68.3491 23.768 69.4051 22.68C70.4611 21.592 71.6771 20.776 73.0531 20.232C74.4291 19.688 75.8371 19.416 77.2771 19.416C80.6371 19.416 83.2131 20.472 85.0051 22.584C86.7971 24.664 87.6931 27.848 87.6931 32.136C87.6931 32.328 87.6931 32.584 87.6931 32.904C87.6931 33.192 87.6771 33.464 87.6451 33.72H70.5571C70.7491 36.312 71.5011 38.28 72.8131 39.624C74.1251 40.968 76.1731 41.64 78.9571 41.64C80.5251 41.64 81.8371 41.512 82.8931 41.256C83.9811 40.968 84.7971 40.696 85.3411 40.44L85.9651 44.184C85.4211 44.472 84.4611 44.776 83.0851 45.096C81.7411 45.416 80.2051 45.576 78.4771 45.576C76.3011 45.576 74.4131 45.256 72.8131 44.616C71.2451 43.944 69.9491 43.032 68.9251 41.88C67.9011 40.728 67.1331 39.368 66.6211 37.8C66.1411 36.2 65.9011 34.456 65.9011 32.568ZM83.0371 30.12C83.0691 28.104 82.5571 26.456 81.5011 25.176C80.4771 23.864 79.0531 23.208 77.2291 23.208C76.2051 23.208 75.2931 23.416 74.4931 23.832C73.7251 24.216 73.0691 24.728 72.5251 25.368C71.9811 26.008 71.5491 26.744 71.2291 27.576C70.9411 28.408 70.7491 29.256 70.6531 30.12H83.0371ZM94.1056 20.76C95.1296 20.504 96.4736 20.232 98.1376 19.944C99.8336 19.656 101.786 19.512 103.994 19.512C105.594 19.512 106.938 19.736 108.026 20.184C109.114 20.6 110.026 21.224 110.762 22.056C110.986 21.896 111.338 21.672 111.818 21.384C112.298 21.096 112.89 20.824 113.594 20.568C114.298 20.28 115.082 20.04 115.946 19.848C116.81 19.624 117.738 19.512 118.73 19.512C120.65 19.512 122.218 19.8 123.434 20.376C124.65 20.92 125.594 21.704 126.266 22.728C126.97 23.752 127.434 24.968 127.658 26.376C127.914 27.784 128.042 29.32 128.042 30.984V45H123.578V31.944C123.578 30.472 123.498 29.208 123.338 28.152C123.21 27.096 122.938 26.216 122.522 25.512C122.138 24.808 121.594 24.296 120.89 23.976C120.218 23.624 119.338 23.448 118.25 23.448C116.746 23.448 115.498 23.656 114.506 24.072C113.546 24.456 112.89 24.808 112.538 25.128C112.794 25.96 112.986 26.872 113.114 27.864C113.242 28.856 113.306 29.896 113.306 30.984V45H108.842V31.944C108.842 30.472 108.762 29.208 108.602 28.152C108.442 27.096 108.154 26.216 107.738 25.512C107.354 24.808 106.81 24.296 106.106 23.976C105.434 23.624 104.57 23.448 103.514 23.448C103.066 23.448 102.586 23.464 102.074 23.496C101.562 23.528 101.066 23.576 100.586 23.64C100.138 23.672 99.7216 23.72 99.3376 23.784C98.9536 23.848 98.6976 23.896 98.5696 23.928V45H94.1056V20.76ZM135.449 20.76C136.473 20.504 137.833 20.232 139.529 19.944C141.225 19.656 143.177 19.512 145.385 19.512C147.369 19.512 149.017 19.8 150.329 20.376C151.641 20.92 152.681 21.704 153.449 22.728C154.249 23.72 154.809 24.92 155.129 26.328C155.449 27.736 155.609 29.288 155.609 30.984V45H151.145V31.944C151.145 30.408 151.033 29.096 150.809 28.008C150.617 26.92 150.281 26.04 149.801 25.368C149.321 24.696 148.681 24.216 147.881 23.928C147.081 23.608 146.089 23.448 144.905 23.448C144.425 23.448 143.929 23.464 143.417 23.496C142.905 23.528 142.409 23.576 141.929 23.64C141.481 23.672 141.065 23.72 140.681 23.784C140.329 23.848 140.073 23.896 139.913 23.928V45H135.449V20.76ZM167.476 45H163.012V20.04H167.476V45ZM165.22 15.528C164.42 15.528 163.732 15.272 163.156 14.76C162.612 14.216 162.34 13.496 162.34 12.6C162.34 11.704 162.612 11 163.156 10.488C163.732 9.944 164.42 9.672 165.22 9.672C166.02 9.672 166.692 9.944 167.236 10.488C167.812 11 168.1 11.704 168.1 12.6C168.1 13.496 167.812 14.216 167.236 14.76C166.692 15.272 166.02 15.528 165.22 15.528Z" fill="black"/>
<path fill-rule="evenodd" clip-rule="evenodd" d="M172.209 18C173.634 16.4077 174.5 14.3051 174.5 12.0001C174.5 7.02953 170.471 3.00009 165.5 3.00009C160.53 3.00009 156.5 7.02953 156.5 12.0001C156.5 14.3051 157.367 16.4077 158.792 18H172.209ZM165.541 21H165.459C165.473 21.0001 165.487 21.0001 165.5 21.0001C165.514 21.0001 165.528 21.0001 165.541 21Z" fill="#804EEB"/>
</svg>
