<svg width="176" height="134" viewBox="0 0 176 134" fill="none" xmlns="http://www.w3.org/2000/svg">
<g clip-path="url(#clip0_3_429)">
<path d="M114.743 54.5798C114.358 54.6352 113.966 54.6057 113.594 54.4934C113.222 54.3811 112.88 54.1887 112.59 53.9297C112.301 53.6708 112.072 53.3515 111.919 52.9944C111.766 52.6374 111.693 52.2512 111.706 51.863L102.89 48.4763L106.882 45.622L114.642 49.2756C115.293 49.3402 115.897 49.6413 116.341 50.1218C116.785 50.6024 117.037 51.229 117.05 51.8829C117.062 52.5368 116.834 53.1725 116.409 53.6696C115.984 54.1667 115.391 54.4905 114.743 54.5798L114.743 54.5798Z" fill="#FFB7B7"/>
<path d="M109.705 52.1502L111.082 47.2965L111.014 47.2504L98.1196 38.4948L86.9734 27.3153L80.4806 29.9084L80.9069 31.9627L80.9348 31.9879L95.7542 45.2562L95.7679 45.2629L109.705 52.1502Z" fill="#E6E7E8"/>
<path d="M96.4957 63.2368L76.5403 60.4406L78.2968 48.2008H92.9881L96.4957 63.2368Z" fill="#FFB6B6"/>
<path d="M62.5885 123.172L66.6821 124.123L72.299 108.792L66.2577 107.389L62.5885 123.172Z" fill="#FFB6B6"/>
<path d="M58.7798 129.76L61.7153 130.442L62.8834 127.793L63.5813 130.875L71.3672 132.684C71.7404 132.77 72.1315 132.736 72.4835 132.584C72.8355 132.433 73.13 132.173 73.3238 131.843C73.5177 131.513 73.6008 131.129 73.5611 130.748C73.5214 130.367 73.3609 130.009 73.1031 129.725L67.8834 123.989L68.5345 121.188L61.9041 120.059L58.7798 129.76Z" fill="#2F2E41"/>
<path d="M87.8464 125.452H92.0489L94.0489 109.249H87.8464V125.452Z" fill="#FFB6B6"/>
<path d="M85.6283 132.731H88.642L89.18 129.886L90.5578 132.731H98.5511C98.9342 132.731 99.3073 132.608 99.616 132.381C99.9246 132.154 100.153 131.835 100.267 131.469C100.381 131.103 100.375 130.711 100.25 130.349C100.125 129.987 99.8874 129.674 99.5721 129.457L93.1889 125.05V122.174L86.4748 122.575L85.6283 132.731Z" fill="#2F2E41"/>
<path d="M76.2881 58.3638L95.8035 56.812C101.562 70.2591 97.9006 91.7258 93.475 115.891L87.198 116.702L86.7111 77.8715L70.9757 113.996L64.4336 113.662L76.2881 58.3638Z" fill="#2F2E41"/>
<path d="M87.6478 22.9538V16.3541C87.6483 15.1924 87.4199 14.0419 86.9756 12.9684C86.5312 11.895 85.8797 10.9196 85.0581 10.0979C84.2365 9.27623 83.261 8.62443 82.1874 8.17972C81.1137 7.73502 79.9629 7.50612 78.8007 7.50612C77.6386 7.50612 76.4878 7.73502 75.4141 8.17972C74.3404 8.62443 73.365 9.27623 72.5434 10.0979C71.7218 10.9196 71.0702 11.895 70.6259 12.9684C70.1815 14.0419 69.9531 15.1924 69.9537 16.3541C68.3944 19.6021 69.3699 21.1463 69.9537 22.9538C69.9542 23.2686 70.0796 23.5703 70.3022 23.7929C70.5249 24.0154 70.8267 24.1407 71.1416 24.1412H86.4593C86.7743 24.1408 87.0763 24.0156 87.2991 23.7931C87.5218 23.5705 87.6472 23.2687 87.6478 22.9538Z" fill="#2F2E41"/>
<path d="M80.984 24.0417C84.5664 24.0417 87.4704 21.1388 87.4704 17.5579C87.4704 13.977 84.5664 11.0741 80.984 11.0741C77.4017 11.0741 74.4976 13.977 74.4976 17.5579C74.4976 21.1388 77.4017 24.0417 80.984 24.0417Z" fill="#FFB7B7"/>
<path d="M89.7407 16.8819C89.7386 15.0272 89.0006 13.2491 87.6886 11.9376C86.3766 10.6261 84.5978 9.88844 82.7424 9.88635H81.4218C79.5664 9.88845 77.7876 10.6261 76.4756 11.9376C75.1636 13.2491 74.4256 15.0272 74.4235 16.8819V17.0139C75.4125 17.6898 76.3514 17.7886 77.2142 17.0139L78.1659 14.3499L78.3562 17.0139H79.7987L80.2795 15.6699L80.3757 17.0139C82.3239 18.6725 86.0079 17.8777 89.7407 17.0139L89.7407 16.8819Z" fill="#2F2E41"/>
<path d="M77.2017 51.7782L93.7167 51.15L94.6398 40.3502C95.3517 38.3735 95.3633 36.6749 94.674 35.3054C94.0812 34.1798 93.0851 33.3192 91.885 32.8958L88.2713 28.533C87.8065 27.9722 87.2228 27.5217 86.5625 27.214C85.9022 26.9062 85.1817 26.749 84.4532 26.7535L75.0632 26.8177C74.837 26.6817 73.4641 25.9843 70.7566 27.157C67.82 28.4292 68.5019 32.8492 68.5093 32.8936L68.516 32.9351L68.5483 32.9634L74.7937 38.2219L77.2017 51.7782Z" fill="#E6E7E8"/>
<path d="M0.277082 133.008H166.099C166.173 133.008 166.243 132.978 166.295 132.926C166.347 132.875 166.376 132.804 166.376 132.731C166.376 132.657 166.347 132.587 166.295 132.535C166.243 132.483 166.173 132.454 166.099 132.454H0.277082C0.203596 132.454 0.13312 132.483 0.0811568 132.535C0.029194 132.587 -9.53674e-07 132.657 -9.53674e-07 132.731C-9.53674e-07 132.804 0.029194 132.875 0.0811568 132.926C0.13312 132.978 0.203596 133.008 0.277082 133.008Z" fill="#CCCCCC"/>
<path d="M121.015 67.4537C121.002 73.7453 118.636 79.8046 114.381 84.4405C110.126 89.0765 104.29 91.9536 98.02 92.5063C91.7503 93.059 85.5006 91.2474 80.4994 87.4275C75.4982 83.6075 72.1074 78.0557 70.9937 71.8635C69.8799 65.6712 71.1237 59.2864 74.4805 53.9644C77.8374 48.6423 83.0644 44.768 89.1341 43.103C95.2037 41.4381 101.677 42.103 107.281 44.9669C112.885 47.8309 117.215 52.6869 119.419 58.5801C119.474 58.7281 119.527 58.876 119.579 59.0254V59.0268C119.812 59.6836 120.017 60.3526 120.194 61.0338C120.741 63.13 121.017 65.2875 121.015 67.4537Z" fill="#3F3D56"/>
<path d="M92.8587 50.3373C91.7181 49.7208 90.4518 49.3727 89.1563 49.3198C87.8607 49.2668 86.5702 49.5102 85.3831 50.0316C84.3379 50.4863 83.2373 51.302 82.8886 52.7749C84.2988 51.943 86.1243 53.2575 86.4872 55.3661L86.4025 55.3895C86.2108 56.85 86.6387 58.4401 87.4671 59.3458C87.5287 58.9371 87.6805 58.5473 87.9117 58.2047C88.1428 57.8621 88.4473 57.5752 88.8032 57.3649C89.4118 56.965 90.0851 56.6745 90.5497 55.987C91.1004 55.1721 91.2403 53.981 91.4591 52.8944C91.6778 51.8079 92.0928 50.6401 92.8587 50.3373Z" fill="#804EEB"/>
<path d="M84.9648 62.766C84.5742 63.3523 84.0525 63.7202 83.5844 64.1782C83.044 64.6696 82.6895 65.3321 82.5805 66.0542C82.5213 66.5644 82.6129 67.083 82.6002 67.5989C82.5876 68.1147 82.4155 68.6954 82.0645 68.8236C81.5103 69.0238 81.0873 67.9949 80.5177 67.923C80.0651 67.8667 79.6577 68.5784 79.7888 69.1957C79.9199 69.8131 80.5361 70.0865 80.89 69.6834C81.21 70.2204 80.9844 71.1943 80.5036 71.3592C80.4528 71.6974 80.4021 72.0343 80.3528 72.3725C79.1374 71.5227 77.9093 70.6587 76.8758 69.4142C75.7264 68.0418 75.0134 66.3574 74.8285 64.5771C74.6946 63.1465 74.8934 61.5102 74.2363 60.4095C73.7104 59.5286 72.808 59.3341 71.9959 59.3891C71.8478 59.3989 71.6984 59.4158 71.5503 59.4342C72.0293 57.9962 72.6376 56.6046 73.3678 55.2764C73.533 55.2055 73.6866 55.11 73.8232 54.9931C74.5789 54.3518 74.9145 53.0537 75.5278 52.1559C75.5673 52.0982 75.6082 52.0418 75.6505 51.9868C76.2779 51.1679 77.1183 50.7465 77.9304 50.3547C79.7281 49.4823 81.578 48.5986 83.4758 48.7198L82.9358 48.7719C82.3056 50.5365 81.6748 52.3011 81.0436 54.0657C80.9477 54.3363 80.8509 54.6074 80.7532 54.8789C80.395 55.8824 80.0256 56.9508 80.0806 58.0741C80.1131 58.7393 80.3443 59.4497 80.7842 59.678C81.1945 59.8894 81.6429 59.6301 82.039 59.3735C82.2068 59.2664 82.3732 59.1593 82.541 59.0508C83.1431 58.6632 83.81 58.2657 84.4459 58.5251C85.0282 58.7618 85.4582 59.5525 85.54 60.4052C85.615 61.2341 85.4127 62.0644 84.9648 62.766Z" fill="#804EEB"/>
<path d="M88.5455 74.8132C86.7871 73.731 85.0287 72.6488 83.2704 71.5666L83.3002 71.4897C82.2069 71.906 81.753 73.8486 81.9337 75.4372C82.1144 77.0258 82.727 78.4459 83.0365 79.9938C83.4539 82.1121 83.2964 84.3034 82.5804 86.3403C84.8925 83.7469 86.9387 80.9284 88.6884 77.927C88.9328 77.5487 89.119 77.1359 89.2409 76.7024C89.3699 76.2404 89.3239 75.747 89.1117 75.3168C88.9677 75.1045 88.7732 74.9314 88.5455 74.8132Z" fill="#804EEB"/>
<path d="M81.6058 55.1244C81.3993 55.5676 81.3675 56.0723 81.5167 56.5379C81.6902 56.913 82.0049 57.2043 82.3924 57.3486L83.3639 57.8299C83.6872 57.9901 84.0356 58.1519 84.3651 58.0201C84.7625 57.8612 85.038 57.2384 84.9668 56.6602C84.8909 56.0449 84.5029 55.6217 84.1441 55.2613C83.6419 54.7569 83.1398 54.2526 82.6376 53.7482L82.3546 54.0947C82.0486 54.3931 81.7954 54.7413 81.6058 55.1244Z" fill="#804EEB"/>
<path d="M115.806 61.7019C116.243 61.8048 116.681 61.9077 117.118 62.0106C117.042 63.4862 116.31 64.8519 115.328 65.3466C114.92 65.5524 114.464 65.6285 114.126 66.0133C113.82 66.3628 113.665 66.9068 113.522 67.4269C113.273 68.3346 113.023 69.2422 112.774 70.1499C112.506 71.128 112.162 72.2147 111.465 72.567C110.867 72.87 110.183 72.4994 109.724 71.8778C109.264 71.2563 108.984 70.4205 108.711 69.6059C108.728 70.4938 108.315 71.3648 107.73 71.6735C107.144 71.9821 106.43 71.7031 106.038 71.0139C105.756 70.5192 105.639 69.8666 105.363 69.3649C105.086 68.8631 104.507 68.5756 104.205 69.0463C104.006 69.3592 104.032 69.8384 103.933 70.2359C103.883 70.4997 103.753 70.7416 103.559 70.9277C103.366 71.1139 103.119 71.2352 102.853 71.2746C102.609 71.269 102.368 71.2138 102.146 71.1122C101.924 71.0107 101.724 70.865 101.56 70.6841C100.697 69.8012 100.135 68.6681 99.9541 67.4467C99.8318 66.8611 99.8473 66.255 99.9993 65.6764C100.173 65.1282 100.591 64.7054 101.007 64.8097C101.281 64.2318 100.741 63.4651 100.254 63.5327C99.7666 63.6004 99.3845 64.1233 98.9841 64.525C98.5851 64.9266 98.0267 65.2184 97.6249 64.8195C97.6339 64.9654 97.5845 65.1089 97.4876 65.2184C97.3908 65.3279 97.2544 65.3945 97.1084 65.4035C97.094 65.4043 97.0796 65.4047 97.0651 65.4044C96.7979 65.3278 96.5496 65.1962 96.3362 65.0182C95.4155 64.4446 94.2466 64.8252 93.5924 65.9104C94.0013 64.1712 94.6005 62.1755 95.8568 61.7667C96.37 61.599 96.9298 61.7371 97.4148 61.4468C98.2735 60.9324 98.4469 58.9888 97.7052 58.1868C97.7997 58.9451 97.7814 59.8302 97.3809 60.3489C96.9805 60.8675 96.1402 60.5293 96.1909 59.7626C96.1795 59.8704 96.1343 59.9719 96.0617 60.0524C95.9891 60.133 95.8928 60.1885 95.7867 60.211C95.6806 60.2336 95.5701 60.2219 95.471 60.1778C95.3719 60.1337 95.2893 60.0594 95.235 59.9655C94.9685 59.5596 94.9911 58.8958 95.18 58.4109C95.3748 57.9718 95.6541 57.5753 96.002 57.2439C96.6717 56.5266 97.3514 55.8007 98.1268 55.3497C98.9037 54.8987 99.8005 54.7465 100.579 55.1947C100.989 55.4314 101.35 55.8261 101.769 56.0347C101.867 56.0957 101.977 56.1368 102.091 56.1555C102.205 56.1743 102.322 56.1703 102.435 56.1439C102.548 56.1175 102.654 56.0692 102.748 56.0017C102.842 55.9342 102.922 55.8488 102.983 55.7504C102.988 55.7428 102.992 55.7351 102.997 55.7274C103.308 55.1806 103.162 54.3687 103.277 53.6852C103.485 52.4773 104.693 51.9122 105.363 52.7099C104.862 52.5816 104.345 53.1736 104.283 53.891C104.219 54.6084 104.582 55.3328 105.067 55.5498C105.882 55.9106 106.68 55.003 107.296 54.163C107.939 53.2835 108.583 52.4045 109.228 51.526C109.33 51.3764 109.446 51.2359 109.573 51.106C109.775 50.9092 110.044 50.7965 110.326 50.7908C110.608 50.785 110.882 50.8866 111.091 51.075C111.743 51.6063 112.049 52.6958 112.583 53.4456C113.359 54.5351 114.519 54.8 115.599 55.0114C116.404 55.1679 117.21 55.3253 118.016 55.4836C118.553 56.4828 119.022 57.5173 119.419 58.5801C117.941 59.2538 116.687 60.3373 115.806 61.7019Z" fill="#804EEB"/>
<path d="M120.194 61.0338C120.029 61.5206 119.939 62.0295 119.926 62.5433C119.235 61.7005 119.125 60.1205 119.579 59.0268C119.812 59.6836 120.017 60.3526 120.194 61.0338Z" fill="#804EEB"/>
<path d="M118.409 78.6599C117.805 79.886 117.103 81.0611 116.308 82.1736C115.801 81.9565 115.255 82.3441 114.78 82.7077C114.284 83.0883 113.687 83.459 113.178 83.1122C112.658 82.7571 112.49 81.7634 112.655 80.9756C112.845 80.2488 113.176 79.5667 113.631 78.9686C114.054 78.3371 114.506 77.6818 115.094 77.4365C115.684 77.1913 116.441 77.538 116.613 78.3752L117.03 78.3611C116.796 78.0398 116.919 77.3745 117.233 77.2575C117.596 77.1208 117.91 77.6183 118.124 78.0581C118.22 78.2568 118.318 78.457 118.409 78.6599Z" fill="#804EEB"/>
<path d="M102.425 72.7067C101.528 72.7631 100.817 71.6592 100.345 70.5732C99.873 69.4872 99.4422 68.2453 98.6327 67.6925C98.1702 67.3767 97.6429 67.3333 97.1413 67.1803C96.8568 67.1084 96.5934 66.9698 96.3732 66.776C96.1529 66.5821 95.9821 66.3386 95.8747 66.0656L95.3057 65.8358C94.5097 66.2335 93.7807 66.7531 93.1452 67.3757C92.4189 68.1469 91.9665 69.1355 91.8578 70.1891C91.7491 71.3276 92.1505 72.5972 92.9005 73.0249C93.4932 73.3628 94.1831 73.1498 94.7834 73.4592C95.5335 73.8458 95.9788 74.9687 96.1473 76.0774C96.3159 77.1861 96.2732 78.3383 96.3938 79.4596C96.5144 80.5809 96.8467 81.7476 97.5345 82.3222C98.3953 83.0413 99.6583 82.4438 100.044 81.1348C100.234 80.4928 100.227 79.7683 100.369 79.1018C100.619 77.9281 101.292 77.0573 101.826 76.0945C102.36 75.1317 102.78 73.8241 102.425 72.7067Z" fill="#804EEB"/>
<path d="M93.5606 61.1733C93.6443 61.2503 93.7224 61.3331 93.7942 61.4212C93.8686 61.5494 93.9066 61.6955 93.9041 61.8437C93.9016 61.9919 93.8586 62.1366 93.7799 62.2622C93.888 62.2561 93.9936 62.2276 94.0901 62.1786C94.1865 62.1295 94.2718 62.061 94.3405 61.9774C94.5042 61.791 94.6482 61.5882 94.7702 61.3722C94.8276 61.2983 94.8686 61.2129 94.8905 61.1219C94.9123 61.0309 94.9145 60.9363 94.897 60.8443C94.8546 60.7234 94.7544 60.6719 94.6841 60.5809C94.5867 60.4032 94.5203 60.2102 94.4875 60.0101C94.4486 59.8227 94.3581 59.6498 94.2263 59.5109C94.0944 59.372 93.9264 59.2726 93.7412 59.2239L93.7861 59.2325C93.7096 59.2779 93.6492 59.3461 93.6134 59.4275C93.5776 59.5089 93.5681 59.5995 93.5864 59.6865C93.6136 59.8624 93.7267 60.0084 93.7154 60.1878C93.6992 60.4458 93.4414 60.5668 93.4254 60.8248C93.4229 60.9542 93.4715 61.0794 93.5606 61.1733Z" fill="#804EEB"/>
<path d="M92.0237 56.79L92.0277 56.7892C92.0552 56.7641 92.0808 56.7368 92.1042 56.7077L92.0237 56.79Z" fill="#804EEB"/>
<path d="M92.2927 58.0007C92.4004 57.9062 92.4801 57.7839 92.5231 57.6472C92.566 57.5105 92.5706 57.3646 92.5362 57.2255C92.4711 56.9322 92.2404 56.735 92.0277 56.7892C91.9659 56.8517 91.8893 56.8976 91.805 56.9224C91.7207 56.9472 91.6315 56.9502 91.5457 56.931C91.4142 56.8972 91.2698 56.81 91.1557 56.9091C91.0904 56.9831 91.0448 57.0722 91.0229 57.1684C90.9806 57.2979 90.9384 57.4275 90.8962 57.557C90.8761 57.6034 90.8709 57.6549 90.8812 57.7043C90.8893 57.7242 90.9023 57.7416 90.9191 57.7549C90.9359 57.7682 90.9558 57.777 90.9769 57.7804C91.2303 57.8551 91.4836 57.9297 91.7369 58.0044C91.8242 58.0445 91.9192 58.065 92.0152 58.0644C92.1113 58.0638 92.206 58.042 92.2927 58.0007Z" fill="#804EEB"/>
<path d="M111.418 74.7162C111.301 74.5245 111.184 74.3329 111.066 74.1412C110.951 73.9193 110.794 73.7219 110.603 73.5602C110.562 73.5256 110.514 73.4995 110.463 73.4833C110.412 73.4672 110.358 73.4613 110.304 73.4661C110.25 73.4708 110.198 73.486 110.15 73.511C110.103 73.5359 110.06 73.5699 110.026 73.6112L110.019 73.6187L110.034 73.7281C110.347 74.0642 110.561 74.4809 110.651 74.9316C110.677 75.1274 110.668 75.3301 110.692 75.5269C110.694 75.6181 110.715 75.7079 110.752 75.7912C110.789 75.8745 110.842 75.9497 110.909 76.0124C111.093 76.1355 111.309 75.954 111.441 75.7324C111.558 75.5505 111.611 75.3343 111.59 75.1188C111.561 74.9742 111.502 74.8372 111.418 74.7162Z" fill="#804EEB"/>
<path d="M113.255 74.9656C113.277 74.7862 113.263 74.6041 113.212 74.4305C113.204 74.1956 113.266 73.9637 113.391 73.7646C113.515 73.5768 113.609 73.3708 113.669 73.154C113.695 73.0552 113.69 72.9511 113.656 72.855C113.617 72.7679 113.523 72.7282 113.469 72.7971L113.585 72.8713C113.429 72.8436 113.269 72.8513 113.117 72.894C113.03 72.9272 112.953 72.9808 112.891 73.0504C112.829 73.1199 112.785 73.2033 112.763 73.2934C112.744 73.4339 112.712 73.5726 112.67 73.7078C112.601 73.8491 112.468 73.8961 112.384 74.02C112.327 74.1299 112.298 74.2523 112.3 74.3761C112.302 74.4999 112.335 74.6212 112.396 74.7292C112.501 74.9058 112.668 75.037 112.864 75.0974C113.005 75.1479 113.19 75.1506 113.255 74.9656Z" fill="#804EEB"/>
<path d="M116.526 75.9522C116.577 76.0846 116.645 76.2096 116.729 76.3241C116.886 76.4818 117.098 76.3849 117.288 76.3466C117.461 76.3194 117.637 76.3393 117.799 76.4043C117.961 76.4692 118.103 76.5768 118.209 76.7155C118.135 76.3482 117.974 76.0039 117.74 75.7116C117.505 75.4192 117.204 75.1874 116.861 75.0355C116.416 74.8815 115.947 74.8081 115.476 74.819L115.396 74.8396C115.601 75.4361 116.244 75.4228 116.526 75.9522Z" fill="#804EEB"/>
<path d="M102.67 77.1724L102.672 77.175L102.695 77.13L102.67 77.1724Z" fill="#804EEB"/>
<path d="M102.174 78.1327C102.066 78.3291 101.973 78.5335 101.896 78.744C101.794 79.0851 101.726 79.4356 101.694 79.7902C101.669 79.9918 101.661 80.2493 101.787 80.3475C101.824 80.3716 101.867 80.3817 101.911 80.3758C101.954 80.3699 101.993 80.3486 102.022 80.3157C102.092 80.2415 102.149 80.1561 102.192 80.0631C102.44 79.6356 102.633 79.1781 102.766 78.7018C102.904 78.1965 102.871 77.6595 102.672 77.175C102.506 77.4942 102.34 77.8135 102.174 78.1327Z" fill="#804EEB"/>
<path d="M97.3863 52.5496C97.4652 52.6267 97.5648 52.679 97.673 52.7001C97.7812 52.7212 97.8932 52.7102 97.9953 52.6684C98.2065 52.5761 98.4004 52.4481 98.5682 52.2901C98.7072 52.1873 98.8251 52.0587 98.9156 51.9114C98.9654 51.8233 98.9973 51.7263 99.0095 51.6259C99.0216 51.5255 99.0139 51.4237 98.9866 51.3263C98.9478 51.2329 98.8858 51.151 98.8065 51.0883C98.7272 51.0256 98.6332 50.9842 98.5334 50.9679C98.2522 50.8845 97.971 50.8012 97.6898 50.7178L97.8932 50.5346C97.684 50.4223 97.4524 50.6307 97.3216 50.8886C97.2377 51.0571 97.1793 51.237 97.1481 51.4226C97.1036 51.6165 97.1019 51.8177 97.143 52.0124C97.1842 52.207 97.2672 52.3903 97.3863 52.5496Z" fill="#804EEB"/>
<path d="M102.351 50.8837C102.43 50.971 102.54 51.025 102.657 51.0345C102.775 51.0441 102.892 51.0086 102.984 50.9352C103.063 50.8755 103.129 50.7998 103.178 50.7129C103.226 50.626 103.255 50.53 103.264 50.431C103.284 50.2099 103.174 49.9642 103.018 49.9451L103.054 49.7381C102.753 49.6838 102.383 49.6729 102.222 50.0381C102.167 50.178 102.151 50.3298 102.173 50.4782C102.196 50.6265 102.257 50.7664 102.351 50.8837Z" fill="#804EEB"/>
<path d="M72.7135 73.0379C72.4246 72.7784 72.196 72.4588 72.0439 72.1014C71.8918 71.7441 71.8199 71.3578 71.8332 70.9697C71.8466 70.5816 71.9449 70.2012 72.1211 69.8551C72.2974 69.5091 72.5474 69.2059 72.8535 68.9668L69.8038 60.0315L74.5553 61.2653L76.7207 69.5608C77.0886 70.1017 77.2452 70.7588 77.1607 71.4075C77.0763 72.0561 76.7566 72.6512 76.2624 73.08C75.7682 73.5087 75.1338 73.7413 74.4795 73.7336C73.8251 73.7259 73.1964 73.4785 72.7124 73.0382L72.7135 73.0379Z" fill="#FFB7B7"/>
<path d="M71.3512 67.6154L75.9612 65.5618L74.4125 49.9748L75.8549 34.2574L69.6997 30.9369L68.3956 32.5806V32.6179L67.7046 52.4929L67.7083 52.5079L71.3512 67.6154Z" fill="#E6E7E8"/>
<path d="M141.974 114.064C139.368 112.865 136.556 111.454 133.539 109.828C117.936 101.42 98.75 88.3037 79.5139 72.8951C60.2779 57.4865 43.2906 41.6263 31.6812 28.2369C26.026 21.7144 21.9524 16.1285 19.5739 11.6343C17.0556 6.87638 16.5477 3.50469 18.0641 1.61307C21.0184 -2.07204 30.6395 1.24719 38.1903 4.68064L37.9144 5.28721C27.5451 0.572142 20.6802 -0.584629 18.5843 2.02983C15.9148 5.35966 20.8721 14.7526 32.185 27.8005C43.7688 41.1605 60.7251 56.9909 79.9307 72.3752C99.1363 87.7593 118.287 100.852 133.856 109.242C149.059 117.435 159.311 120.225 161.98 116.895C164.197 114.13 161.174 107.167 153.468 97.2874L153.993 96.8778C159.593 104.056 165.614 113.429 162.501 117.312C160.984 119.203 157.582 119.442 152.387 118.022C149.426 117.213 145.942 115.888 141.974 114.064Z" fill="#804EEB"/>
<path d="M42.1566 69.135C34.9699 65.8317 28.4022 62.514 22.6498 59.2673C15.1311 55.0232 9.41684 51.13 5.66598 47.6962C1.69482 44.0604 0.0831213 41.0554 0.875646 38.7644C2.41933 34.3015 12.5968 34.1964 20.8629 34.8942L20.8067 35.5583C9.45539 34.6 2.60083 35.8159 1.50551 38.9823C0.110503 43.0151 7.93678 50.1971 22.9776 58.6869C38.3787 67.38 59.6701 76.5953 82.9302 84.6346C106.19 92.6744 128.629 98.5742 146.112 101.247C163.186 103.858 173.779 103.042 175.174 99.0097C176.332 95.6614 171.144 90.1183 160.566 83.4011L160.923 82.8387C168.61 87.7194 177.431 94.5246 175.804 99.2274C175.012 101.518 171.887 102.886 166.518 103.294C161.446 103.678 154.546 103.211 146.011 101.906C128.489 99.227 106.009 93.3168 82.7123 85.2645C68.0978 80.2129 54.2535 74.6956 42.1566 69.135Z" fill="#804EEB"/>
<path d="M53.0599 35.2234C55.2054 35.2234 56.9446 33.4848 56.9446 31.3402C56.9446 29.1956 55.2054 27.457 53.0599 27.457C50.9144 27.457 49.1752 29.1956 49.1752 31.3402C49.1752 33.4848 50.9144 35.2234 53.0599 35.2234Z" fill="#E6E6E6"/>
<path d="M129.631 82.6195C130.944 82.6195 132.009 81.5552 132.009 80.2424C132.009 78.9295 130.944 77.8653 129.631 77.8653C128.317 77.8653 127.253 78.9295 127.253 80.2424C127.253 81.5552 128.317 82.6195 129.631 82.6195Z" fill="#FF6584"/>
<path d="M13.3267 103.486C15.4722 103.486 17.2114 101.747 17.2114 99.6024C17.2114 97.4578 15.4722 95.7192 13.3267 95.7192C11.1812 95.7192 9.44201 97.4578 9.44201 99.6024C9.44201 101.747 11.1812 103.486 13.3267 103.486Z" fill="#E6E6E6"/>
</g>
<defs>
<clipPath id="clip0_3_429">
<rect width="176" height="133.008" fill="white"/>
</clipPath>
</defs>
</svg>
