<svg width="211" height="158" viewBox="0 0 211 158" fill="none" xmlns="http://www.w3.org/2000/svg">
<g clip-path="url(#clip0_2_377)">
<path d="M78.1857 42.0226C87.2311 36.1951 99.6894 38.4593 108.502 44.6339C111.378 46.6765 114.02 49.0295 116.379 51.6501C117.755 53.1566 119.059 54.7381 120.307 56.3741C120.614 56.7755 120.92 57.1809 121.22 57.5903C121.425 57.867 121.629 58.1458 121.831 58.4264C124.361 61.9373 126.68 65.6308 128.951 69.2908C134.62 78.4273 140.436 87.8358 149.073 94.2504C150.853 95.5716 153.336 96.7615 155.159 95.4998C156.741 94.4042 156.809 92.1003 156.449 90.2123C155.11 83.2172 150.281 77.4205 145.152 72.4721C140.022 67.5237 134.343 62.9869 130.467 57.0076C126.591 51.0282 124.821 43.0456 128.216 36.7831C131.141 31.3865 137.437 28.3594 143.581 28.2184C149.725 28.0788 155.695 30.463 160.893 33.737C166.091 37.0122 170.661 41.168 175.431 45.0376C178.307 47.3722 182.321 49.6886 185.455 47.712C188.102 46.0416 188.308 42.0317 186.731 39.3317C185.153 36.6318 182.338 34.935 179.639 33.3526C171.259 28.438 162.879 23.5238 154.498 18.6101C151.927 17.1038 149.3 15.5494 147.402 13.2526C145.504 10.9571 144.45 7.73094 145.497 4.94347C146.529 2.1965 149.412 0.452204 152.329 0.0881818C155.244 -0.275 158.184 0.531885 160.911 1.62484C171.129 5.72168 195.19 32.5238 201.603 37.1061C205.724 40.0492 210.053 43.7751 210.47 48.8161C210.989 55.0918 204.734 60.2998 198.456 60.9086C192.178 61.5192 186.094 58.7942 180.485 55.9132C174.876 53.0323 169.151 49.8559 162.855 49.456C156.56 49.0561 149.496 52.4158 148.004 58.5344C146.706 63.8584 150.005 69.3522 154.303 72.7588C157.667 75.426 161.615 77.2022 165.429 79.1994C166.488 79.7524 167.536 80.3241 168.558 80.9353C171.175 82.5032 173.621 84.3389 175.856 86.4127C178.203 88.5864 180.31 91.005 182.14 93.6271C183.601 95.7164 184.875 97.9295 185.948 100.241C186.112 100.594 186.271 100.952 186.425 101.315C186.571 101.662 186.712 102.013 186.846 102.368C188.597 106.971 189.279 112.13 187.043 116.427C184.812 120.713 179.981 123.251 175.156 123.602C172.366 123.769 169.569 123.4 166.918 122.516C164.968 121.884 163.08 121.074 161.279 120.096C152.926 115.621 146.314 108.524 140.275 101.228C134.237 93.9327 128.552 86.2513 121.385 80.0585C114.217 73.8643 105.236 69.1813 95.7556 69.2524C86.2759 69.3222 76.5035 75.0884 73.8111 84.162C69.8867 77.4113 67.233 69.7155 67.5834 61.9189C67.9337 54.1223 71.6169 46.2554 78.1857 42.0226Z" fill="#3F3D56"/>
<path d="M114.963 67.2464C115.539 67.2464 116.005 66.7809 116.005 66.2067C116.005 65.6325 115.539 65.167 114.963 65.167C114.388 65.167 113.922 65.6325 113.922 66.2067C113.922 66.7809 114.388 67.2464 114.963 67.2464Z" fill="#804EEB"/>
<path d="M75.7138 68.733C76.6031 68.733 77.324 68.0133 77.324 67.1255C77.324 66.2377 76.6031 65.518 75.7138 65.518C74.8245 65.518 74.1036 66.2377 74.1036 67.1255C74.1036 68.0133 74.8245 68.733 75.7138 68.733Z" fill="#FF6584"/>
<path d="M192.098 54.5095C192.427 54.5095 192.693 54.2436 192.693 53.9155C192.693 53.5875 192.427 53.3216 192.098 53.3216C191.77 53.3216 191.503 53.5875 191.503 53.9155C191.503 54.2436 191.77 54.5095 192.098 54.5095Z" fill="#FF6584"/>
<path d="M180.06 22.5874C180.389 22.5874 180.655 22.3214 180.655 21.9934C180.655 21.6654 180.389 21.3994 180.06 21.3994C179.731 21.3994 179.465 21.6654 179.465 21.9934C179.465 22.3214 179.731 22.5874 180.06 22.5874Z" fill="#FF6584"/>
<path d="M164.751 80.5827C164.92 80.0959 165.148 79.6314 165.429 79.1994C166.488 79.7524 167.536 80.3241 168.558 80.9353C171.175 82.5032 173.621 84.3389 175.856 86.4127C174.956 87.6334 173.648 88.4916 172.168 88.8314C170.689 89.1712 169.136 88.9702 167.793 88.2647C166.449 87.5593 165.403 86.3963 164.845 84.9867C164.287 83.5772 164.254 82.0146 164.751 80.5827L164.751 80.5827Z" fill="#FF6584"/>
<path d="M88.873 61.2529C89.2091 61.2529 89.4815 60.9809 89.4815 60.6454C89.4815 60.3099 89.2091 60.0379 88.873 60.0379C88.537 60.0379 88.2645 60.3099 88.2645 60.6454C88.2645 60.9809 88.537 61.2529 88.873 61.2529Z" fill="#F0F0F0"/>
<path d="M163.423 16.3094C163.759 16.3094 164.031 16.0375 164.031 15.702C164.031 15.3665 163.759 15.0945 163.423 15.0945C163.087 15.0945 162.814 15.3665 162.814 15.702C162.814 16.0375 163.087 16.3094 163.423 16.3094Z" fill="#F0F0F0"/>
<path d="M157.944 5.48911C158.28 5.48911 158.553 5.21714 158.553 4.88165C158.553 4.54617 158.28 4.2742 157.944 4.2742C157.608 4.2742 157.336 4.54617 157.336 4.88165C157.336 5.21714 157.608 5.48911 157.944 5.48911Z" fill="#F0F0F0"/>
<path d="M201.031 45.8224C201.367 45.8224 201.639 45.5504 201.639 45.2149C201.639 44.8794 201.367 44.6075 201.031 44.6075C200.694 44.6075 200.422 44.8794 200.422 45.2149C200.422 45.5504 200.694 45.8224 201.031 45.8224Z" fill="#F0F0F0"/>
<path d="M169.068 46.6951C169.404 46.6951 169.676 46.4231 169.676 46.0876C169.676 45.7522 169.404 45.4802 169.068 45.4802C168.732 45.4802 168.459 45.7522 168.459 46.0876C168.459 46.4231 168.732 46.6951 169.068 46.6951Z" fill="#F0F0F0"/>
<path d="M152.107 104.635C152.443 104.635 152.715 104.363 152.715 104.027C152.715 103.692 152.443 103.42 152.107 103.42C151.771 103.42 151.498 103.692 151.498 104.027C151.498 104.363 151.771 104.635 152.107 104.635Z" fill="#F0F0F0"/>
<path d="M132.986 47.6528C133.322 47.6528 133.594 47.3808 133.594 47.0453C133.594 46.7098 133.322 46.4379 132.986 46.4379C132.65 46.4379 132.377 46.7098 132.377 47.0453C132.377 47.3808 132.65 47.6528 132.986 47.6528Z" fill="#F0F0F0"/>
<path d="M132.132 36.1663C132.468 36.1663 132.74 35.8944 132.74 35.5589C132.74 35.2234 132.468 34.9514 132.132 34.9514C131.796 34.9514 131.523 35.2234 131.523 35.5589C131.523 35.8944 131.796 36.1663 132.132 36.1663Z" fill="#F0F0F0"/>
<path d="M165.488 106.611C166.491 103.712 168.17 101.092 170.387 98.9686C170.68 98.6889 170.981 98.4187 171.29 98.1579C174.354 95.5702 178.143 93.9881 182.14 93.627C183.601 95.7164 184.875 97.9294 185.948 100.241C186.112 100.594 186.271 100.952 186.425 101.315C186.571 101.662 186.712 102.013 186.846 102.368C188.597 106.971 189.279 112.13 187.043 116.427C184.812 120.713 179.981 123.25 175.156 123.602C172.366 123.769 169.569 123.4 166.918 122.516C165.482 119.973 164.638 117.139 164.448 114.226C164.424 113.859 164.412 113.492 164.409 113.124C164.393 110.907 164.758 108.704 165.488 106.611Z" fill="#804EEB"/>
<path d="M157.435 102.762C158.412 99.9507 162.068 98.2959 167.732 98.1002C168.865 98.0604 170.112 98.5309 171.29 98.1579C177.006 96.3483 182.192 97.5308 186.425 101.315C186.571 101.662 186.712 102.013 186.846 102.368C186.79 102.347 186.733 102.327 186.677 102.308C180.956 100.326 175.278 99.1692 170.387 98.9687C169.483 98.9323 168.405 98.4103 167.761 98.9572C162.591 103.35 159.094 101.509 158.246 103.043C157.007 105.283 159.204 108.774 163.18 112.135C163.573 112.468 163.983 112.798 164.409 113.124C164.412 113.492 164.424 113.859 164.448 114.226C163.807 113.753 163.199 113.274 162.625 112.79C158.301 109.134 156.458 105.572 157.435 102.762Z" fill="#E4E4E4"/>
<path d="M178.858 122.674C179.194 122.674 179.466 122.402 179.466 122.067C179.466 121.731 179.194 121.459 178.858 121.459C178.522 121.459 178.25 121.731 178.25 122.067C178.25 122.402 178.522 122.674 178.858 122.674Z" fill="#F0F0F0"/>
<path d="M168.092 114.861C168.429 114.861 168.701 114.589 168.701 114.254C168.701 113.918 168.429 113.646 168.092 113.646C167.756 113.646 167.484 113.918 167.484 114.254C167.484 114.589 167.756 114.861 168.092 114.861Z" fill="#F0F0F0"/>
<path d="M176.329 116.512C179.597 116.512 182.246 113.867 182.246 110.605C182.246 107.342 179.597 104.698 176.329 104.698C173.061 104.698 170.412 107.342 170.412 110.605C170.412 113.867 173.061 116.512 176.329 116.512Z" fill="#F0F0F0"/>
<path opacity="0.3" d="M83.3612 45.3008C84.7444 45.3657 87.6053 46.0514 90.7054 46.9379C93.8036 47.8254 97.1642 48.908 100.482 49.9789C106.29 51.852 112.098 53.7245 117.905 55.5964C118.703 55.8533 119.504 56.1126 120.307 56.3741C120.614 56.7754 120.92 57.1808 121.22 57.5902C120.514 57.3412 119.806 57.1003 119.099 56.8707C116.081 55.8916 113.463 55.2459 110.534 54.3551C106.026 52.9855 101.271 51.1868 96.659 49.5118C92.0475 47.8354 86.7565 46.031 83.3612 45.3008Z" fill="#F0F0F0"/>
<path opacity="0.3" d="M186.628 33.4089L199.691 55.0579L187.365 32.9783C187.35 32.9082 187.32 32.8425 187.275 32.7867C187.23 32.7309 187.172 32.6866 187.107 32.6574C187.041 32.6283 186.97 32.6151 186.898 32.619C186.827 32.623 186.757 32.6439 186.695 32.68C186.633 32.7162 186.581 32.7665 186.543 32.8269C186.504 32.8873 186.481 32.9559 186.474 33.0272C186.467 33.0985 186.478 33.1703 186.505 33.2366C186.532 33.303 186.574 33.3621 186.628 33.4089Z" fill="#F0F0F0"/>
<path d="M180.257 97.2995C180.593 97.2995 180.865 97.0275 180.865 96.692C180.865 96.3566 180.593 96.0846 180.257 96.0846C179.921 96.0846 179.648 96.3566 179.648 96.692C179.648 97.0275 179.921 97.2995 180.257 97.2995Z" fill="#F0F0F0"/>
<path d="M73.529 95.2944C75.6834 95.2944 77.4299 93.5509 77.4299 91.4001C77.4299 89.2494 75.6834 87.5059 73.529 87.5059C71.3746 87.5059 69.6281 89.2494 69.6281 91.4001C69.6281 93.5509 71.3746 95.2944 73.529 95.2944Z" fill="#804EEB"/>
<path d="M71.218 89.2622C70.8247 89.1547 70.4598 88.9625 70.1489 88.6991C69.8381 88.4356 69.5888 88.1073 69.4188 87.7373C69.2488 87.3673 69.1621 86.9646 69.1649 86.5575C69.1677 86.1504 69.2598 85.7489 69.4348 85.3812L62.3715 78.4391L67.4089 77.3661L73.3441 84.123C73.9433 84.4574 74.3988 84.9997 74.6243 85.6471C74.8498 86.2944 74.8296 87.0018 74.5676 87.6353C74.3055 88.2688 73.8198 88.7842 73.2025 89.0841C72.5851 89.3839 71.879 89.4473 71.218 89.2621L71.218 89.2622Z" fill="#A0616A"/>
<path d="M37.4455 35.2349L41.3847 37.8269L45.9955 38.9051C45.9955 38.9051 49.6524 64.9964 51.4494 66.5614C53.2463 68.1264 51.7322 68.2748 52.2191 70.4335C52.7061 72.5922 53.8331 77.0086 53.8331 77.0086C42.887 83.7821 33.1081 84.6091 24.7651 78.122C24.6348 77.6945 24.6548 77.2354 24.8218 76.8207C24.9887 76.4061 25.2926 76.0609 25.6831 75.8423C27.0937 74.9675 24.0339 71.5404 25.1887 70.854C26.3435 70.1676 24.3029 65.0337 24.3029 65.0337L24.659 54.0084L23.6676 52.3173L25.0642 41.462L28.6643 39.8647L29.897 36.217L37.4455 35.2349Z" fill="#804EEB"/>
<path d="M39.1525 36.1502L45.6477 38.3095C45.6477 38.3095 52.8328 37.5521 53.1239 48.2297C53.4151 58.9074 52.0761 64.6372 52.0761 64.6372C52.0761 64.6372 67.0221 94.6421 50.8321 85.7802L46.1009 67.1827L41.2248 37.9757L39.1525 36.1502Z" fill="#2F2E41"/>
<path d="M45.6663 59.7568L49.0354 59.2923C49.0354 59.2923 49.3607 64.3632 50.9723 65.1317C52.5838 65.9002 52.0406 66.0267 52.2306 66.8402C52.4206 67.6537 50.7975 69.9079 52.0741 70.4684C53.3507 71.029 64.5082 85.0719 64.5082 85.0719L71.0909 78.9871C70.6385 77.7633 68.4615 78.7591 68.325 77.4618C68.1532 75.5003 64.7074 70.1419 63.9741 69.4549C63.2408 68.7678 63.5307 67.5566 63.1506 65.9296C62.7705 64.3025 63.0344 65.8112 62.4009 63.0995C61.7675 60.3877 53.1831 46.57 52.8846 44.0662C52.5861 41.5624 49.0914 40.0886 49.0914 40.0886L46.375 40.721L45.6663 59.7568Z" fill="#2F2E41"/>
<path d="M17.2204 149.929L21.1856 150.968L27.0889 136.194L21.2366 134.66L17.2204 149.929Z" fill="#A0616A"/>
<path d="M15.9944 154.022L28.1881 157.218L28.2286 157.064C28.5591 155.808 28.3761 154.472 27.7198 153.35C27.0635 152.228 25.9877 151.412 24.729 151.082L24.7287 151.082L22.9452 148.811L18.3457 149.409L17.2813 149.13L15.9944 154.022Z" fill="#2F2E41"/>
<path d="M37.548 152.89L41.6473 152.89L43.5978 137.103L37.547 137.104L37.548 152.89Z" fill="#A0616A"/>
<path d="M37.4033 157.16L50.0104 157.159V157C50.0103 155.701 49.4933 154.455 48.5731 153.536C47.6529 152.618 46.4048 152.102 45.1034 152.101H45.1031L42.8003 150.357L38.5037 152.102L37.4031 152.102L37.4033 157.16Z" fill="#2F2E41"/>
<path d="M27.2939 77.3459C26.3035 78.5817 26.7987 82.7835 26.7987 82.7835C26.7987 82.7835 25.0656 96.3776 25.8083 97.6134C26.5511 98.8492 25.3132 99.8379 24.5704 101.568C23.8277 103.298 23.0849 107.5 23.0849 107.5C18.876 110.96 19.1236 126.779 19.1236 126.779L17.6381 140.867C18.1332 142.35 25.0656 142.597 26.056 142.35C27.0463 142.103 36.7021 107.253 36.7021 107.253C36.7021 107.253 36.2069 140.867 36.2069 142.35C36.2069 143.833 42.8917 143.092 44.3772 143.092C45.8627 143.092 55.271 82.5363 55.271 82.5363V79.076L54.033 77.3459C54.033 77.3459 28.2842 76.1101 27.2939 77.3459Z" fill="#2F2E41"/>
<path d="M29.644 36.8804L23.564 40.7475L20.6232 43.2086L24.5241 68.0345C24.5241 68.0345 18.5975 90.6009 27.9374 89.2096C37.2773 87.8183 36.7537 67.5384 36.7537 67.5384L29.644 36.8804Z" fill="#2F2E41"/>
<path d="M37.7795 72.1469C37.4287 72.3543 37.0365 72.4824 36.6307 72.5222C36.2249 72.562 35.8153 72.5124 35.4307 72.3771C35.0461 72.2417 34.696 72.0238 34.4049 71.7387C34.1138 71.4536 33.8889 71.1083 33.7459 70.7271L23.8368 70.966L26.5678 66.6062L35.559 67.0477C36.2165 66.8504 36.9236 66.9008 37.5464 67.1892C38.1691 67.4776 38.6643 67.9841 38.938 68.6127C39.2117 69.2412 39.245 69.9481 39.0315 70.5995C38.8179 71.2509 38.3725 71.8015 37.7795 72.1469Z" fill="#A0616A"/>
<path d="M32.8358 33.5233C37.1606 33.5233 40.6665 30.0233 40.6665 25.7058C40.6665 21.3884 37.1606 17.8884 32.8358 17.8884C28.511 17.8884 25.0051 21.3884 25.0051 25.7058C25.0051 30.0233 28.511 33.5233 32.8358 33.5233Z" fill="#A0616A"/>
<path d="M23.9536 20.5692C24.8329 19.2112 26.483 18.3061 28.0826 18.5605C28.2315 17.5413 28.6576 16.5825 29.3145 15.7884C29.9714 14.9943 30.834 14.3953 31.8083 14.0568C32.7826 13.7182 33.8313 13.6529 34.8402 13.8681C35.8491 14.0833 36.7795 14.5707 37.5301 15.2772C37.777 15.1037 38.0645 14.9968 38.3649 14.9668C38.6653 14.9368 38.9684 14.9847 39.2448 15.1059C39.7953 15.3558 40.2743 15.7396 40.6378 16.2222C41.5557 17.3649 42.146 18.7347 42.3459 20.1858C42.5459 21.6369 42.3479 23.115 41.7732 24.4626C41.9686 23.7532 41.2564 23.0857 40.5368 22.9265C39.8172 22.7673 39.0623 22.9179 38.3326 22.8142C37.3973 22.6813 36.5565 22.1397 35.6197 22.0178C34.8325 21.9153 34.0407 22.1168 33.273 22.3188C32.5052 22.5208 31.7156 22.7268 30.9271 22.6333C30.1387 22.5399 29.1231 25.5227 29.1367 27.6237C29.1393 28.0219 29.0572 28.533 28.6674 28.6175C28.1874 28.7216 27.9093 28.0602 27.4524 27.88C27.2419 27.8198 27.0161 27.8435 26.8227 27.9461C26.6293 28.0488 26.4834 28.2224 26.4157 28.4303C26.3581 28.6418 26.352 28.8638 26.3977 29.0781C26.4435 29.2924 26.5399 29.4926 26.6788 29.6622C26.9596 29.9984 27.293 30.2871 27.666 30.5172L27.4779 30.6734C27.1649 31.0862 26.5157 31.104 26.0646 30.8487C25.6332 30.557 25.2839 30.1599 25.0498 29.6952C24.2152 28.3094 23.4831 26.8329 23.1886 25.2429C22.8941 23.6528 23.0743 21.9273 23.9536 20.5692Z" fill="#2F2E41"/>
<path d="M26.7183 43.9387L23.1995 40.9283C23.1995 40.9283 19.0908 42.2082 18.3942 44.8989C12.9107 51.8985 9.95752 60.0734 9.16437 69.2515C16.3234 71.9508 25.0895 72.9083 34.5201 73.1458L32.5697 65.844L19.1604 63.4101L26.7183 43.9387Z" fill="#2F2E41"/>
<path d="M14.2504 153.718L12.3707 150.703L11.9952 152.426C11.9294 152.728 11.8636 153.034 11.8026 153.339C11.2687 152.883 10.7006 152.462 10.1448 152.058C8.43817 150.822 6.73233 149.584 5.02728 148.344L5.5612 151.435C5.89036 153.339 6.23416 155.281 7.04844 157.021C7.13867 157.218 7.23616 157.413 7.34105 157.603H15.2745C15.3383 157.426 15.3824 157.244 15.4061 157.058C15.4081 157.045 15.4089 157.033 15.4085 157.021C15.5329 155.841 14.8795 154.728 14.2504 153.718Z" fill="#F2F2F2"/>
<path d="M84.3616 150.254L87.9178 144.549L88.6281 147.809C88.7527 148.38 88.8772 148.96 88.9925 149.535C90.0026 148.674 91.0773 147.878 92.1289 147.113C95.3576 144.774 98.5848 142.432 101.81 140.087L100.8 145.935C100.178 149.535 99.5272 153.21 97.9868 156.502C97.816 156.875 97.6316 157.244 97.4332 157.603H82.4243C82.3036 157.269 82.22 156.923 82.1752 156.571C82.1715 156.548 82.17 156.525 82.1707 156.502C81.9354 154.269 83.1716 152.165 84.3616 150.254Z" fill="#F2F2F2"/>
<path d="M81.5717 157.724H65.2425C64.4984 157.724 63.785 157.428 63.2588 156.903C62.7327 156.378 62.4367 155.665 62.4359 154.923V97.7312C62.4367 96.9884 62.7327 96.2762 63.2588 95.7509C63.785 95.2256 64.4984 94.9302 65.2425 94.9294H81.5717C82.3158 94.9302 83.0292 95.2256 83.5554 95.7509C84.0815 96.2762 84.3775 96.9884 84.3783 97.7312V154.923C84.3775 155.665 84.0815 156.378 83.5554 156.903C83.0292 157.428 82.3158 157.724 81.5717 157.724Z" fill="#F2F2F2"/>
<path d="M77.716 96.3897H69.3421C69.0624 96.3893 68.7943 96.2783 68.5965 96.0808C68.3988 95.8834 68.2875 95.6157 68.2872 95.3365V92.3317C68.2875 92.0525 68.3988 91.7848 68.5965 91.5873C68.7943 91.3899 69.0624 91.2788 69.3421 91.2785H77.716C77.9957 91.2788 78.2638 91.3899 78.4616 91.5873C78.6593 91.7848 78.7705 92.0525 78.7709 92.3317V95.3365C78.7705 95.6157 78.6593 95.8834 78.4616 96.0808C78.2638 96.2783 77.9957 96.3893 77.716 96.3897Z" fill="#3F3D56"/>
<path d="M101.665 157.809L0.79031 157.883C0.713465 157.883 0.639844 157.852 0.585585 157.798C0.531326 157.744 0.500854 157.67 0.500854 157.594C0.500854 157.517 0.531326 157.443 0.585585 157.389C0.639844 157.335 0.713465 157.304 0.79031 157.304L101.665 157.229C101.742 157.229 101.815 157.26 101.869 157.314C101.924 157.368 101.954 157.442 101.954 157.519C101.954 157.595 101.924 157.669 101.869 157.723C101.815 157.778 101.742 157.808 101.665 157.809Z" fill="#CACACA"/>
</g>
<defs>
<clipPath id="clip0_2_377">
<rect width="210" height="157.883" fill="white" transform="translate(0.5)"/>
</clipPath>
</defs>
</svg>
