<svg width="179" height="156" viewBox="0 0 179 156" fill="none" xmlns="http://www.w3.org/2000/svg">
<g clip-path="url(#clip0_2_199)">
<path d="M160.992 80.7743C161.015 99.98 153.6 118.447 140.304 132.293C139.503 133.133 138.68 133.953 137.835 134.752C136.548 135.978 135.218 137.156 133.844 138.287C120.995 148.885 104.954 154.84 88.309 155.192C87.7544 155.205 87.1977 155.211 86.6389 155.211C73.3644 155.211 56.6681 148.113 41.5162 138.287C40.2627 137.474 39.0202 136.642 37.789 135.792C37.2135 135.398 36.6407 134.998 36.0708 134.593C30.2269 130.462 24.68 125.926 19.4708 121.017C16.0601 117.813 12.8618 114.389 9.89622 110.768C-1.74598 96.3912 -4.31384 83.4372 12.2841 80.7743C14.2492 80.46 16.1565 80.1241 18.0058 79.7666C20.6846 79.2512 23.2483 78.6946 25.6968 78.0968C28.9951 77.2943 32.0938 76.4242 34.993 75.4863C35.9683 75.172 36.9212 74.8515 37.8518 74.5246C51.6098 69.687 60.8181 63.3787 67.086 56.534C68.1491 55.3754 69.1293 54.2029 70.0264 53.0163C71.3989 51.2103 72.6457 49.3119 73.7578 47.3344C75.2928 44.5869 76.5821 41.7089 77.6106 38.7341L77.6672 38.5706C82.6543 24.1689 81.137 10.8106 86.639 6.33965C110.158 -12.7739 139.438 14.4456 153.181 46.5446C153.874 48.162 154.526 49.7892 155.136 51.4262C155.41 52.1574 155.675 52.8899 155.929 53.6239C156.599 55.5367 157.207 57.4544 157.752 59.3771C157.961 60.1103 158.161 60.8429 158.351 61.5748C158.554 62.3647 158.748 63.1524 158.928 63.9402C160.266 69.708 160.992 75.3962 160.992 80.7743Z" fill="#F2F2F2"/>
<path d="M88.309 155.192C87.7544 155.205 87.1977 155.211 86.6389 155.211C73.3644 155.211 56.6681 148.113 41.5162 138.287C40.2627 137.474 39.0202 136.642 37.789 135.792L38.8689 129.213L71.5604 124.868L87.9679 137.428L88.309 155.192Z" fill="#2F2E41"/>
<path d="M89.8828 37.7222H85.2242C85.0799 37.7222 84.9416 37.7796 84.8395 37.8818C84.7375 37.9839 84.6802 38.1224 84.6801 38.2669V42.9326C84.6802 43.0041 84.6943 43.0748 84.7217 43.1407C84.7491 43.2066 84.7892 43.2665 84.8398 43.3169C84.8903 43.3673 84.9503 43.4073 85.0162 43.4344C85.0822 43.4616 85.1529 43.4755 85.2242 43.4753H89.8828C90.0267 43.4753 90.1649 43.4183 90.2669 43.3165C90.3689 43.2148 90.4264 43.0768 90.4269 42.9326V38.2669C90.4265 38.1225 90.369 37.9842 90.2671 37.8822C90.1651 37.7801 90.0269 37.7226 89.8828 37.7222Z" fill="white"/>
<path d="M89.8828 45.673H85.2242C85.0799 45.6731 84.9416 45.7305 84.8395 45.8327C84.7375 45.9348 84.6802 46.0733 84.6801 46.2178V50.8836C84.6802 50.955 84.6943 51.0257 84.7217 51.0916C84.7491 51.1575 84.7892 51.2174 84.8398 51.2678C84.8903 51.3182 84.9503 51.3582 85.0162 51.3853C85.0822 51.4125 85.1529 51.4264 85.2242 51.4262H89.8828C90.0267 51.4262 90.1649 51.3692 90.2669 51.2675C90.3689 51.1657 90.4264 51.0277 90.4269 50.8836V46.2178C90.4265 46.0734 90.369 45.9351 90.2671 45.8331C90.1651 45.731 90.0269 45.6735 89.8828 45.673Z" fill="#E6E6E6"/>
<path d="M89.8828 53.6239H85.2242C85.0799 53.624 84.9416 53.6814 84.8395 53.7836C84.7375 53.8857 84.6802 54.0242 84.6801 54.1687V58.8324C84.68 58.904 84.6939 58.9748 84.7212 59.041C84.7485 59.1071 84.7886 59.1673 84.8392 59.2179C84.8897 59.2685 84.9497 59.3086 85.0158 59.3359C85.0819 59.3632 85.1527 59.3772 85.2242 59.3771H89.8828C90.027 59.377 90.1654 59.3196 90.2675 59.2175C90.3695 59.1153 90.4268 58.9768 90.4269 58.8324V54.1687C90.4265 54.0243 90.369 53.886 90.2671 53.784C90.1651 53.6819 90.0269 53.6244 89.8828 53.6239Z" fill="#E6E6E6"/>
<path d="M90.4185 62.0232C90.3953 61.8977 90.3291 61.7843 90.2313 61.7025C90.1335 61.6206 90.0102 61.5755 89.8828 61.5748H85.2242C85.0799 61.5749 84.9416 61.6323 84.8395 61.7345C84.7375 61.8366 84.6802 61.9751 84.6801 62.1196V66.7833C84.68 66.8548 84.6939 66.9257 84.7212 66.9919C84.7485 67.058 84.7886 67.1181 84.8391 67.1688C84.8897 67.2194 84.9497 67.2595 85.0158 67.2868C85.0819 67.3141 85.1527 67.3281 85.2242 67.328H89.8828C90.0271 67.3279 90.1654 67.2705 90.2675 67.1684C90.3695 67.0662 90.4268 66.9277 90.4269 66.7833V62.1196C90.4273 62.0873 90.4245 62.055 90.4185 62.0232Z" fill="#E6E6E6"/>
<path d="M90.0941 69.5677C90.0271 69.5399 89.9553 69.5257 89.8828 69.5257H85.2242C85.1527 69.5256 85.0819 69.5396 85.0158 69.5669C84.9497 69.5942 84.8897 69.6344 84.8391 69.685C84.7886 69.7356 84.7485 69.7957 84.7212 69.8618C84.6939 69.928 84.68 69.9989 84.6801 70.0705V74.7342C84.6798 74.8058 84.6936 74.8768 84.7209 74.943C84.7481 75.0092 84.7882 75.0694 84.8388 75.1201C84.8893 75.1707 84.9494 75.2108 85.0156 75.2381C85.0818 75.2653 85.1527 75.2792 85.2242 75.2789H89.8828C90.0271 75.2788 90.1654 75.2214 90.2675 75.1193C90.3695 75.0171 90.4268 74.8786 90.4269 74.7342V70.0705C90.4266 69.9633 90.395 69.8585 90.3358 69.7691C90.2767 69.6797 90.1927 69.6097 90.0941 69.5677Z" fill="#E6E6E6"/>
<path d="M99.6687 37.7222H95.0101C94.8658 37.7222 94.7275 37.7796 94.6254 37.8818C94.5234 37.9839 94.4661 38.1224 94.466 38.2669V42.9326C94.4661 43.0041 94.4802 43.0748 94.5076 43.1407C94.535 43.2066 94.5751 43.2665 94.6256 43.3169C94.6762 43.3673 94.7362 43.4073 94.8021 43.4344C94.8681 43.4616 94.9388 43.4755 95.0101 43.4753H99.6687C99.8126 43.4753 99.9507 43.4183 100.053 43.3165C100.155 43.2148 100.212 43.0768 100.213 42.9326V38.2669C100.212 38.1225 100.155 37.9842 100.053 37.8822C99.951 37.7801 99.8128 37.7226 99.6687 37.7222Z" fill="#E6E6E6"/>
<path d="M99.6687 45.673H95.0101C94.8658 45.6731 94.7275 45.7305 94.6254 45.8327C94.5234 45.9348 94.4661 46.0733 94.466 46.2178V50.8836C94.4661 50.955 94.4802 51.0257 94.5076 51.0916C94.535 51.1575 94.5751 51.2174 94.6256 51.2678C94.6762 51.3182 94.7362 51.3582 94.8021 51.3853C94.8681 51.4125 94.9388 51.4264 95.0101 51.4262H99.6687C99.8126 51.4262 99.9508 51.3692 100.053 51.2675C100.155 51.1657 100.212 51.0277 100.213 50.8836V46.2178C100.212 46.0734 100.155 45.9351 100.053 45.8331C99.951 45.731 99.8128 45.6735 99.6687 45.673Z" fill="#804EEB"/>
<path d="M99.6687 53.6239H95.0101C94.8658 53.624 94.7275 53.6814 94.6254 53.7836C94.5234 53.8857 94.4661 54.0242 94.466 54.1687V58.8324C94.4659 58.904 94.4798 58.9748 94.5071 59.041C94.5344 59.1071 94.5745 59.1673 94.625 59.2179C94.6756 59.2685 94.7356 59.3086 94.8017 59.3359C94.8678 59.3632 94.9386 59.3772 95.0101 59.3771H99.6687C99.8129 59.377 99.9513 59.3196 100.053 59.2175C100.155 59.1153 100.213 58.9768 100.213 58.8324V54.1687C100.212 54.0243 100.155 53.886 100.053 53.784C99.951 53.6819 99.8128 53.6244 99.6687 53.6239Z" fill="#804EEB"/>
<path d="M99.6687 61.5748H95.0101C94.896 61.5749 94.7849 61.611 94.6925 61.6779C94.6 61.7449 94.531 61.8393 94.4953 61.9478C94.4759 62.003 94.466 62.0611 94.466 62.1196V66.7833C94.4659 66.8548 94.4798 66.9257 94.5071 66.9919C94.5344 67.058 94.5745 67.1181 94.625 67.1688C94.6756 67.2194 94.7356 67.2595 94.8017 67.2868C94.8678 67.3141 94.9386 67.3281 95.0101 67.328H99.6687C99.813 67.3279 99.9513 67.2705 100.053 67.1684C100.155 67.0662 100.213 66.9277 100.213 66.7833V62.1196C100.212 61.9752 100.155 61.8369 100.053 61.7349C99.951 61.6328 99.8128 61.5753 99.6687 61.5748Z" fill="#804EEB"/>
<path d="M99.6687 69.5257H95.0101C94.9386 69.5256 94.8678 69.5396 94.8017 69.5669C94.7356 69.5942 94.6756 69.6344 94.625 69.685C94.5745 69.7356 94.5344 69.7957 94.5071 69.8618C94.4798 69.928 94.4659 69.9989 94.466 70.0705V74.7342C94.4659 74.8057 94.4798 74.8766 94.5071 74.9428C94.5344 75.0089 94.5745 75.069 94.625 75.1197C94.6756 75.1703 94.7356 75.2104 94.8017 75.2377C94.8678 75.265 94.9386 75.279 95.0101 75.2789H99.6687C99.813 75.2788 99.9513 75.2214 100.053 75.1193C100.155 75.0171 100.213 74.8786 100.213 74.7342V70.0705C100.213 69.926 100.155 69.7875 100.053 69.6854C99.9513 69.5832 99.813 69.5258 99.6687 69.5257Z" fill="#E6E6E6"/>
<path d="M109.455 37.7222H104.796C104.652 37.7222 104.513 37.7796 104.411 37.8818C104.309 37.9839 104.252 38.1224 104.252 38.2669V42.9326C104.252 43.0041 104.266 43.0748 104.294 43.1407C104.321 43.2066 104.361 43.2665 104.412 43.3169C104.462 43.3673 104.522 43.4073 104.588 43.4344C104.654 43.4616 104.725 43.4755 104.796 43.4753H109.455C109.599 43.4753 109.737 43.4183 109.839 43.3165C109.941 43.2148 109.998 43.0768 109.999 42.9326V38.2669C109.998 38.1225 109.941 37.9842 109.839 37.8822C109.737 37.7801 109.599 37.7226 109.455 37.7222Z" fill="#804EEB"/>
<path d="M109.455 45.673H104.796C104.652 45.6731 104.513 45.7305 104.411 45.8327C104.309 45.9348 104.252 46.0733 104.252 46.2178V50.8836C104.252 50.955 104.266 51.0257 104.294 51.0916C104.321 51.1575 104.361 51.2174 104.412 51.2678C104.462 51.3182 104.522 51.3582 104.588 51.3853C104.654 51.4125 104.725 51.4264 104.796 51.4262H109.455C109.599 51.4262 109.737 51.3692 109.839 51.2675C109.941 51.1657 109.998 51.0277 109.999 50.8836V46.2178C109.998 46.0734 109.941 45.9351 109.839 45.8331C109.737 45.731 109.599 45.6735 109.455 45.673Z" fill="#804EEB"/>
<path d="M109.455 53.6239H104.796C104.652 53.624 104.513 53.6814 104.411 53.7836C104.309 53.8857 104.252 54.0242 104.252 54.1687V58.8324C104.252 58.904 104.266 58.9748 104.293 59.041C104.32 59.1071 104.36 59.1673 104.411 59.2179C104.462 59.2685 104.522 59.3086 104.588 59.3359C104.654 59.3632 104.725 59.3772 104.796 59.3771H109.455C109.599 59.377 109.737 59.3196 109.839 59.2175C109.941 59.1153 109.999 58.9768 109.999 58.8324V54.1687C109.998 54.0243 109.941 53.886 109.839 53.784C109.737 53.6819 109.599 53.6244 109.455 53.6239Z" fill="#E6E6E6"/>
<path d="M109.455 61.5748H104.796C104.652 61.5749 104.513 61.6323 104.411 61.7345C104.309 61.8366 104.252 61.9751 104.252 62.1196V66.7833C104.252 66.8548 104.266 66.9257 104.293 66.9919C104.32 67.058 104.36 67.1181 104.411 67.1688C104.462 67.2194 104.522 67.2595 104.588 67.2868C104.654 67.3141 104.725 67.3281 104.796 67.328H109.455C109.599 67.3279 109.737 67.2705 109.839 67.1684C109.941 67.0662 109.999 66.9277 109.999 66.7833V62.1196C109.998 61.9752 109.941 61.8369 109.839 61.7349C109.737 61.6328 109.599 61.5753 109.455 61.5748Z" fill="#804EEB"/>
<path d="M109.455 69.5257H104.796C104.725 69.5256 104.654 69.5396 104.588 69.5669C104.522 69.5942 104.462 69.6344 104.411 69.685C104.36 69.7356 104.32 69.7957 104.293 69.8618C104.266 69.928 104.252 69.9989 104.252 70.0705V74.7342C104.252 74.8057 104.266 74.8766 104.293 74.9428C104.32 75.0089 104.36 75.069 104.411 75.1197C104.462 75.1703 104.522 75.2104 104.588 75.2377C104.654 75.265 104.725 75.279 104.796 75.2789H109.455C109.599 75.2788 109.737 75.2214 109.839 75.1193C109.941 75.0171 109.999 74.8786 109.999 74.7342V70.0705C109.999 69.926 109.941 69.7875 109.839 69.6854C109.737 69.5832 109.599 69.5258 109.455 69.5257Z" fill="#804EEB"/>
<path d="M119.24 37.7222H114.582C114.438 37.7222 114.299 37.7796 114.197 37.8818C114.095 37.9839 114.038 38.1224 114.038 38.2669V42.9326C114.038 43.0041 114.052 43.0748 114.079 43.1407C114.107 43.2066 114.147 43.2665 114.197 43.3169C114.248 43.3673 114.308 43.4073 114.374 43.4344C114.44 43.4616 114.511 43.4755 114.582 43.4753H119.24C119.384 43.4753 119.523 43.4183 119.625 43.3165C119.727 43.2148 119.784 43.0768 119.785 42.9326V38.2669C119.784 38.1225 119.727 37.9842 119.625 37.8822C119.523 37.7801 119.385 37.7226 119.24 37.7222Z" fill="#804EEB"/>
<path d="M119.24 45.673H114.582C114.438 45.6731 114.299 45.7305 114.197 45.8327C114.095 45.9348 114.038 46.0733 114.038 46.2178V50.8836C114.038 50.955 114.052 51.0257 114.079 51.0916C114.107 51.1576 114.147 51.2174 114.197 51.2678C114.248 51.3182 114.308 51.3582 114.374 51.3853C114.44 51.4125 114.511 51.4264 114.582 51.4262H119.24C119.384 51.4262 119.523 51.3692 119.625 51.2675C119.727 51.1657 119.784 51.0277 119.785 50.8836V46.2178C119.784 46.0734 119.727 45.9351 119.625 45.8331C119.523 45.731 119.385 45.6735 119.24 45.673Z" fill="white"/>
<path d="M119.24 53.6239H114.582C114.438 53.624 114.299 53.6814 114.197 53.7836C114.095 53.8857 114.038 54.0242 114.038 54.1687V58.8324C114.038 58.904 114.052 58.9749 114.079 59.041C114.106 59.1072 114.146 59.1673 114.197 59.2179C114.247 59.2685 114.307 59.3086 114.374 59.3359C114.44 59.3632 114.51 59.3772 114.582 59.3771H119.24C119.385 59.377 119.523 59.3196 119.625 59.2175C119.727 59.1153 119.785 58.9768 119.785 58.8324V54.1687C119.784 54.0243 119.727 53.886 119.625 53.784C119.523 53.6819 119.385 53.6244 119.24 53.6239Z" fill="white"/>
<path d="M119.24 61.5748H114.582C114.438 61.5749 114.299 61.6323 114.197 61.7345C114.095 61.8366 114.038 61.9751 114.038 62.1196V66.7833C114.038 66.8548 114.052 66.9257 114.079 66.9919C114.106 67.058 114.146 67.1182 114.197 67.1688C114.247 67.2194 114.307 67.2595 114.374 67.2868C114.44 67.3141 114.51 67.3281 114.582 67.328H119.24C119.385 67.3279 119.523 67.2705 119.625 67.1684C119.727 67.0662 119.785 66.9277 119.785 66.7833V62.1196C119.784 61.9752 119.727 61.8369 119.625 61.7349C119.523 61.6328 119.385 61.5753 119.24 61.5748Z" fill="#E6E6E6"/>
<path d="M119.24 69.5257H114.582C114.51 69.5256 114.44 69.5396 114.374 69.5669C114.307 69.5942 114.247 69.6344 114.197 69.685C114.146 69.7356 114.106 69.7957 114.079 69.8618C114.052 69.928 114.038 69.9989 114.038 70.0705V74.7342C114.038 74.8057 114.052 74.8766 114.079 74.9428C114.106 75.0089 114.146 75.069 114.197 75.1197C114.247 75.1703 114.307 75.2104 114.374 75.2377C114.44 75.265 114.51 75.279 114.582 75.2789H119.24C119.385 75.2788 119.523 75.2214 119.625 75.1193C119.727 75.0171 119.785 74.8786 119.785 74.7342V70.0705C119.785 69.926 119.727 69.7875 119.625 69.6854C119.523 69.5832 119.385 69.5258 119.24 69.5257Z" fill="#804EEB"/>
<path d="M129.026 37.7222H124.366C124.222 37.7227 124.084 37.7803 123.982 37.8824C123.881 37.9845 123.824 38.1227 123.824 38.2669V42.9326C123.824 43.0766 123.881 43.2146 123.982 43.3163C124.084 43.4181 124.222 43.4753 124.366 43.4753H129.026C129.17 43.4753 129.308 43.4183 129.41 43.3165C129.512 43.2148 129.57 43.0768 129.571 42.9326V38.2669C129.57 38.1225 129.513 37.9842 129.411 37.8822C129.309 37.7801 129.171 37.7226 129.026 37.7222Z" fill="white"/>
<path d="M129.026 45.673H124.366C124.222 45.6735 124.084 45.7312 123.982 45.8333C123.881 45.9354 123.824 46.0737 123.824 46.2178V50.8836C123.824 51.0275 123.881 51.1655 123.982 51.2672C124.084 51.369 124.222 51.4262 124.366 51.4262H129.026C129.17 51.4262 129.308 51.3692 129.41 51.2675C129.512 51.1657 129.57 51.0277 129.571 50.8836V46.2178C129.57 46.0734 129.513 45.9351 129.411 45.8331C129.309 45.731 129.171 45.6735 129.026 45.673Z" fill="white"/>
<path d="M129.026 53.6239H124.366C124.222 53.6245 124.084 53.6821 123.982 53.7842C123.881 53.8863 123.824 54.0246 123.824 54.1687V58.8324C123.823 58.9038 123.837 58.9745 123.864 59.0406C123.892 59.1066 123.932 59.1667 123.982 59.2173C124.032 59.2678 124.092 59.308 124.158 59.3354C124.224 59.3629 124.294 59.377 124.366 59.3771H129.026C129.171 59.377 129.309 59.3196 129.411 59.2175C129.513 59.1153 129.57 58.9768 129.571 58.8324V54.1687C129.57 54.0243 129.513 53.886 129.411 53.784C129.309 53.6819 129.171 53.6244 129.026 53.6239Z" fill="white"/>
<path d="M129.026 61.5748H124.366C124.222 61.5753 124.084 61.633 123.982 61.7351C123.881 61.8372 123.824 61.9755 123.824 62.1196V66.7833C123.823 66.8547 123.837 66.9254 123.864 66.9915C123.892 67.0575 123.932 67.1176 123.982 67.1681C124.032 67.2187 124.092 67.2589 124.158 67.2863C124.224 67.3138 124.294 67.3279 124.366 67.328H129.026C129.171 67.3279 129.309 67.2705 129.411 67.1684C129.513 67.0662 129.57 66.9277 129.571 66.7833V62.1196C129.57 61.9752 129.513 61.8369 129.411 61.7349C129.309 61.6328 129.171 61.5753 129.026 61.5748Z" fill="#804EEB"/>
<path d="M129.026 69.5257H124.366C124.294 69.5258 124.224 69.54 124.158 69.5674C124.092 69.5948 124.032 69.635 123.982 69.6856C123.932 69.7362 123.892 69.7962 123.864 69.8623C123.837 69.9283 123.823 69.9991 123.824 70.0705V74.7342C123.823 74.8056 123.837 74.8763 123.864 74.9424C123.892 75.0084 123.932 75.0685 123.982 75.119C124.032 75.1696 124.092 75.2098 124.158 75.2372C124.224 75.2647 124.294 75.2788 124.366 75.2789H129.026C129.171 75.2788 129.309 75.2214 129.411 75.1193C129.513 75.0171 129.57 74.8786 129.571 74.7342V70.0705C129.57 69.926 129.513 69.7875 129.411 69.6854C129.309 69.5832 129.171 69.5258 129.026 69.5257Z" fill="#E6E6E6"/>
<path d="M138.812 37.7222H134.152C134.008 37.7227 133.87 37.7803 133.768 37.8824C133.667 37.9845 133.61 38.1227 133.61 38.2669V42.9326C133.61 43.0766 133.667 43.2146 133.768 43.3163C133.87 43.4181 134.008 43.4753 134.152 43.4753H138.812C138.956 43.4753 139.094 43.4183 139.196 43.3165C139.298 43.2148 139.356 43.0768 139.356 42.9326V38.2669C139.356 38.1225 139.299 37.9842 139.197 37.8822C139.095 37.7801 138.956 37.7226 138.812 37.7222Z" fill="white"/>
<path d="M138.812 45.673H134.152C134.008 45.6735 133.87 45.7312 133.768 45.8333C133.667 45.9354 133.61 46.0737 133.61 46.2178V50.8836C133.61 51.0275 133.667 51.1655 133.768 51.2672C133.87 51.369 134.008 51.4262 134.152 51.4262H138.812C138.956 51.4262 139.094 51.3692 139.196 51.2674C139.298 51.1657 139.356 51.0277 139.356 50.8836V46.2178C139.356 46.0734 139.299 45.9351 139.197 45.8331C139.095 45.731 138.956 45.6735 138.812 45.673Z" fill="white"/>
<path d="M138.812 53.6239H134.152C134.008 53.6245 133.87 53.6821 133.768 53.7842C133.667 53.8863 133.61 54.0246 133.61 54.1687V58.8324C133.609 58.9038 133.623 58.9745 133.65 59.0406C133.678 59.1066 133.717 59.1667 133.768 59.2173C133.818 59.2678 133.878 59.308 133.944 59.3354C134.01 59.3629 134.08 59.377 134.152 59.3771H138.812C138.957 59.377 139.095 59.3196 139.197 59.2175C139.299 59.1153 139.356 58.9768 139.356 58.8324V54.1687C139.356 54.0243 139.299 53.886 139.197 53.784C139.095 53.6819 138.956 53.6244 138.812 53.6239Z" fill="#804EEB"/>
<path d="M138.812 61.5748H134.152C134.008 61.5753 133.87 61.633 133.768 61.7351C133.667 61.8372 133.61 61.9755 133.61 62.1196V66.7833C133.609 66.8547 133.623 66.9254 133.65 66.9915C133.678 67.0575 133.717 67.1176 133.768 67.1681C133.818 67.2187 133.878 67.2589 133.944 67.2863C134.01 67.3138 134.08 67.3279 134.152 67.328H138.812C138.957 67.3279 139.095 67.2705 139.197 67.1684C139.299 67.0662 139.356 66.9277 139.356 66.7833V62.1196C139.356 61.9752 139.299 61.8369 139.197 61.7349C139.095 61.6328 138.956 61.5753 138.812 61.5748Z" fill="#E6E6E6"/>
<path d="M138.812 69.5257H134.152C134.08 69.5258 134.01 69.54 133.944 69.5674C133.878 69.5948 133.818 69.635 133.768 69.6856C133.717 69.7362 133.678 69.7962 133.65 69.8623C133.623 69.9283 133.609 69.9991 133.61 70.0705V74.7342C133.609 74.8056 133.623 74.8763 133.65 74.9424C133.678 75.0084 133.717 75.0685 133.768 75.119C133.818 75.1696 133.878 75.2098 133.944 75.2372C134.01 75.2647 134.08 75.2788 134.152 75.2789H138.812C138.957 75.2788 139.095 75.2214 139.197 75.1193C139.299 75.0171 139.356 74.8786 139.356 74.7342V70.0705C139.356 69.926 139.299 69.7875 139.197 69.6854C139.095 69.5832 138.957 69.5258 138.812 69.5257Z" fill="white"/>
<path d="M148.598 37.7222H143.938C143.794 37.7227 143.656 37.7803 143.554 37.8824C143.452 37.9845 143.395 38.1227 143.395 38.2669V42.9326C143.396 43.0766 143.453 43.2146 143.554 43.3163C143.656 43.4181 143.794 43.4753 143.938 43.4753H148.598C148.742 43.4753 148.88 43.4183 148.982 43.3165C149.084 43.2148 149.142 43.0768 149.142 42.9326V38.2669C149.142 38.1225 149.084 37.9842 148.982 37.8822C148.88 37.7801 148.742 37.7226 148.598 37.7222Z" fill="#804EEB"/>
<path d="M148.598 45.673H143.938C143.794 45.6735 143.656 45.7312 143.554 45.8333C143.452 45.9354 143.395 46.0737 143.395 46.2178V50.8836C143.396 51.0275 143.453 51.1655 143.554 51.2672C143.656 51.369 143.794 51.4262 143.938 51.4262H148.598C148.742 51.4262 148.88 51.3692 148.982 51.2674C149.084 51.1657 149.142 51.0277 149.142 50.8836V46.2178C149.142 46.0734 149.084 45.9351 148.982 45.8331C148.881 45.731 148.742 45.6735 148.598 45.673Z" fill="#804EEB"/>
<path d="M148.598 53.6239H143.938C143.794 53.6245 143.656 53.6821 143.554 53.7842C143.452 53.8863 143.395 54.0246 143.395 54.1687V58.8324C143.395 58.9038 143.409 58.9745 143.436 59.0406C143.463 59.1066 143.503 59.1667 143.554 59.2173C143.604 59.2678 143.664 59.308 143.73 59.3354C143.796 59.3629 143.866 59.377 143.938 59.3771H148.598C148.742 59.377 148.881 59.3196 148.983 59.2175C149.085 59.1153 149.142 58.9768 149.142 58.8324V54.1687C149.142 54.0243 149.084 53.886 148.982 53.784C148.881 53.6819 148.742 53.6244 148.598 53.6239Z" fill="#E6E6E6"/>
<path d="M148.598 61.5748H143.938C143.794 61.5753 143.656 61.633 143.554 61.7351C143.452 61.8372 143.395 61.9755 143.395 62.1196V66.7833C143.395 66.8547 143.409 66.9254 143.436 66.9915C143.463 67.0575 143.503 67.1176 143.554 67.1681C143.604 67.2187 143.664 67.2589 143.73 67.2863C143.796 67.3138 143.866 67.3279 143.938 67.328H148.598C148.742 67.3279 148.881 67.2705 148.983 67.1684C149.085 67.0662 149.142 66.9277 149.142 66.7833V62.1196C149.142 61.9752 149.084 61.8369 148.982 61.7349C148.881 61.6328 148.742 61.5753 148.598 61.5748Z" fill="white"/>
<path d="M148.598 69.5257H143.938C143.866 69.5258 143.796 69.54 143.73 69.5674C143.664 69.5948 143.604 69.635 143.554 69.6856C143.503 69.7362 143.463 69.7962 143.436 69.8623C143.409 69.9283 143.395 69.9991 143.395 70.0705V74.7342C143.395 74.8056 143.409 74.8763 143.436 74.9424C143.463 75.0084 143.503 75.0685 143.554 75.119C143.604 75.1696 143.664 75.2098 143.73 75.2372C143.796 75.2647 143.866 75.2788 143.938 75.2789H148.598C148.742 75.2788 148.881 75.2214 148.983 75.1193C149.085 75.0171 149.142 74.8786 149.142 74.7342V70.0705C149.142 69.926 149.085 69.7875 148.983 69.6854C148.881 69.5832 148.742 69.5258 148.598 69.5257Z" fill="#804EEB"/>
<path d="M158.384 37.7222H153.723C153.579 37.7227 153.442 37.7803 153.34 37.8824C153.238 37.9845 153.181 38.1227 153.181 38.2669V42.9326C153.181 43.0766 153.239 43.2146 153.34 43.3163C153.442 43.4181 153.58 43.4753 153.723 43.4753H158.384C158.528 43.4753 158.666 43.4183 158.768 43.3165C158.87 43.2148 158.928 43.0768 158.928 42.9326V38.2669C158.928 38.1225 158.87 37.9842 158.768 37.8822C158.666 37.7801 158.528 37.7226 158.384 37.7222Z" fill="#804EEB"/>
<path d="M158.384 45.673H153.723C153.579 45.6735 153.442 45.7312 153.34 45.8333C153.238 45.9354 153.181 46.0737 153.181 46.2178V50.8836C153.181 51.0275 153.239 51.1655 153.34 51.2672C153.442 51.369 153.58 51.4262 153.723 51.4262H158.384C158.528 51.4262 158.666 51.3692 158.768 51.2674C158.87 51.1657 158.928 51.0277 158.928 50.8836V46.2178C158.928 46.0734 158.87 45.9351 158.768 45.8331C158.666 45.731 158.528 45.6735 158.384 45.673Z" fill="#804EEB"/>
<path d="M158.384 53.6239H153.723C153.579 53.6245 153.442 53.6821 153.34 53.7842C153.238 53.8863 153.181 54.0246 153.181 54.1687V58.8324C153.181 58.9038 153.195 58.9745 153.222 59.0406C153.249 59.1066 153.289 59.1667 153.34 59.2173C153.39 59.2678 153.45 59.308 153.516 59.3354C153.581 59.3629 153.652 59.377 153.723 59.3771H158.384C158.528 59.377 158.667 59.3196 158.769 59.2175C158.871 59.1153 158.928 58.9768 158.928 58.8324V54.1687C158.928 54.0244 158.87 53.886 158.768 53.784C158.666 53.6819 158.528 53.6244 158.384 53.6239Z" fill="#E6E6E6"/>
<path d="M158.384 61.5748H153.723C153.579 61.5753 153.442 61.633 153.34 61.7351C153.238 61.8372 153.181 61.9755 153.181 62.1196V66.7833C153.181 66.8547 153.195 66.9254 153.222 66.9915C153.249 67.0575 153.289 67.1176 153.34 67.1681C153.39 67.2187 153.45 67.2589 153.516 67.2863C153.581 67.3138 153.652 67.3279 153.723 67.328H158.384C158.528 67.3279 158.667 67.2705 158.769 67.1684C158.871 67.0662 158.928 66.9277 158.928 66.7833V62.1196C158.928 61.9752 158.87 61.8369 158.768 61.7349C158.666 61.6328 158.528 61.5753 158.384 61.5748Z" fill="#804EEB"/>
<path d="M158.384 69.5257H153.723C153.652 69.5258 153.581 69.54 153.516 69.5674C153.45 69.5948 153.39 69.635 153.34 69.6856C153.289 69.7362 153.249 69.7962 153.222 69.8623C153.195 69.9283 153.181 69.9991 153.181 70.0705V74.7342C153.181 74.8056 153.195 74.8763 153.222 74.9424C153.249 75.0084 153.289 75.0685 153.34 75.119C153.39 75.1696 153.45 75.2098 153.516 75.2372C153.581 75.2647 153.652 75.2788 153.723 75.2789H158.384C158.528 75.2788 158.667 75.2214 158.769 75.1193C158.871 75.0171 158.928 74.8786 158.928 74.7342V70.0705C158.928 69.926 158.871 69.7875 158.769 69.6854C158.667 69.5832 158.528 69.5258 158.384 69.5257Z" fill="#804EEB"/>
<path d="M168.17 37.7222H163.509C163.365 37.7227 163.227 37.7803 163.126 37.8824C163.024 37.9845 162.967 38.1227 162.967 38.2669V42.9326C162.967 43.0766 163.024 43.2146 163.126 43.3163C163.228 43.4181 163.366 43.4753 163.509 43.4753H168.17C168.314 43.4753 168.452 43.4183 168.554 43.3165C168.656 43.2148 168.714 43.0768 168.714 42.9326V38.2669C168.714 38.1225 168.656 37.9842 168.554 37.8822C168.452 37.7801 168.314 37.7226 168.17 37.7222Z" fill="#E6E6E6"/>
<path d="M168.17 45.673H163.509C163.365 45.6735 163.227 45.7312 163.126 45.8333C163.024 45.9354 162.967 46.0737 162.967 46.2178V50.8836C162.967 51.0275 163.024 51.1655 163.126 51.2672C163.228 51.369 163.366 51.4262 163.509 51.4262H168.17C168.314 51.4262 168.452 51.3692 168.554 51.2674C168.656 51.1657 168.714 51.0277 168.714 50.8836V46.2178C168.714 46.0734 168.656 45.9351 168.554 45.8331C168.452 45.731 168.314 45.6735 168.17 45.673Z" fill="#804EEB"/>
<path d="M168.17 53.6239H163.509C163.365 53.6245 163.227 53.6821 163.126 53.7842C163.024 53.8863 162.967 54.0246 162.967 54.1687V58.8324C162.967 58.9038 162.981 58.9745 163.008 59.0406C163.035 59.1066 163.075 59.1667 163.125 59.2173C163.176 59.2678 163.236 59.308 163.302 59.3354C163.367 59.3629 163.438 59.377 163.509 59.3771H168.17C168.314 59.377 168.453 59.3196 168.555 59.2175C168.657 59.1153 168.714 58.9768 168.714 58.8324V54.1687C168.714 54.0244 168.656 53.886 168.554 53.784C168.452 53.6819 168.314 53.6244 168.17 53.6239Z" fill="#804EEB"/>
<path d="M168.17 61.5748H163.509C163.365 61.5753 163.227 61.633 163.126 61.7351C163.024 61.8372 162.967 61.9755 162.967 62.1196V66.7833C162.967 66.8547 162.981 66.9254 163.008 66.9915C163.035 67.0575 163.075 67.1176 163.125 67.1681C163.176 67.2187 163.236 67.2589 163.301 67.2863C163.367 67.3138 163.438 67.3279 163.509 67.328H168.17C168.314 67.3279 168.453 67.2705 168.555 67.1684C168.657 67.0662 168.714 66.9277 168.714 66.7833V62.1196C168.714 61.9752 168.656 61.8369 168.554 61.7349C168.452 61.6328 168.314 61.5753 168.17 61.5748Z" fill="#804EEB"/>
<path d="M168.17 69.5257H163.509C163.438 69.5258 163.367 69.54 163.301 69.5674C163.236 69.5948 163.176 69.635 163.125 69.6856C163.075 69.7362 163.035 69.7962 163.008 69.8623C162.981 69.9283 162.967 69.9991 162.967 70.0705V74.7342C162.967 74.8056 162.981 74.8763 163.008 74.9424C163.035 75.0084 163.075 75.0685 163.125 75.119C163.176 75.1696 163.236 75.2098 163.301 75.2372C163.367 75.2647 163.438 75.2788 163.509 75.2789H168.17C168.314 75.2788 168.453 75.2214 168.555 75.1193C168.657 75.0171 168.714 74.8786 168.714 74.7342V70.0705C168.714 69.926 168.657 69.7875 168.555 69.6854C168.453 69.5832 168.314 69.5258 168.17 69.5257Z" fill="#E6E6E6"/>
<path d="M177.956 37.7222H173.295C173.151 37.7227 173.013 37.7803 172.912 37.8824C172.81 37.9845 172.753 38.1227 172.753 38.2669V42.9326C172.753 43.0766 172.81 43.2146 172.912 43.3163C173.014 43.4181 173.151 43.4753 173.295 43.4753H177.956C178.1 43.4753 178.238 43.4183 178.34 43.3165C178.442 43.2148 178.5 43.0768 178.5 42.9326V38.2669C178.5 38.1225 178.442 37.9842 178.34 37.8822C178.238 37.7801 178.1 37.7226 177.956 37.7222Z" fill="#E6E6E6"/>
<path d="M177.956 45.673H173.295C173.151 45.6736 173.013 45.7312 172.912 45.8333C172.81 45.9354 172.753 46.0737 172.753 46.2178V50.8836C172.753 51.0275 172.81 51.1655 172.912 51.2672C173.014 51.369 173.151 51.4262 173.295 51.4262H177.956C178.1 51.4262 178.238 51.3692 178.34 51.2674C178.442 51.1657 178.5 51.0277 178.5 50.8836V46.2178C178.5 46.0734 178.442 45.9351 178.34 45.8331C178.238 45.731 178.1 45.6735 177.956 45.673Z" fill="#E6E6E6"/>
<path d="M177.956 53.6239H173.295C173.151 53.6245 173.013 53.6821 172.912 53.7842C172.81 53.8863 172.753 54.0246 172.753 54.1687V58.8324C172.753 58.9038 172.767 58.9745 172.794 59.0406C172.821 59.1066 172.861 59.1667 172.911 59.2173C172.962 59.2678 173.022 59.308 173.087 59.3354C173.153 59.3629 173.224 59.377 173.295 59.3771H177.956C178.1 59.377 178.239 59.3196 178.341 59.2175C178.443 59.1153 178.5 58.9768 178.5 58.8324V54.1687C178.5 54.0244 178.442 53.886 178.34 53.784C178.238 53.6819 178.1 53.6244 177.956 53.6239Z" fill="#804EEB"/>
<path d="M177.956 61.5748H173.295C173.151 61.5753 173.013 61.633 172.912 61.7351C172.81 61.8372 172.753 61.9754 172.753 62.1196V66.7833C172.753 66.8547 172.767 66.9254 172.794 66.9915C172.821 67.0575 172.861 67.1176 172.911 67.1681C172.962 67.2187 173.022 67.2589 173.087 67.2863C173.153 67.3138 173.224 67.3279 173.295 67.328H177.956C178.1 67.3279 178.239 67.2705 178.341 67.1684C178.443 67.0662 178.5 66.9277 178.5 66.7833V62.1196C178.5 61.9752 178.442 61.8369 178.34 61.7349C178.238 61.6328 178.1 61.5753 177.956 61.5748Z" fill="#E6E6E6"/>
<path d="M177.956 69.5257H173.295C173.224 69.5258 173.153 69.54 173.087 69.5674C173.022 69.5948 172.962 69.635 172.911 69.6856C172.861 69.7362 172.821 69.7962 172.794 69.8623C172.767 69.9283 172.753 69.9991 172.753 70.0705V74.7342C172.753 74.8056 172.767 74.8763 172.794 74.9424C172.821 75.0084 172.861 75.0685 172.911 75.119C172.962 75.1696 173.022 75.2098 173.087 75.2372C173.153 75.2647 173.224 75.2788 173.295 75.2789H177.956C178.1 75.2788 178.239 75.2214 178.341 75.1193C178.443 75.0171 178.5 74.8786 178.5 74.7342V70.0705C178.5 69.926 178.443 69.7875 178.341 69.6854C178.239 69.5832 178.1 69.5258 177.956 69.5257Z" fill="#E6E6E6"/>
<path d="M70.8377 138.287H70.708L70.8189 138.273L70.8377 138.287Z" fill="#2F2E41"/>
<path d="M59.6872 51.3414C67.584 51.3414 73.9856 44.9327 73.9856 37.0273C73.9856 29.1218 67.584 22.7132 59.6872 22.7132C51.7904 22.7132 45.3889 29.1218 45.3889 37.0273C45.3889 44.9327 51.7904 51.3414 59.6872 51.3414Z" fill="#FFB6B6"/>
<path d="M72.2087 26.5324C72.2087 26.5324 75.9484 19.3754 67.7209 18.7247C67.7209 18.7247 60.707 12.3551 53.5578 17.5603C53.5578 17.5603 49.6583 17.5603 47.5258 21.9779C47.5258 21.9779 44.4589 20.8135 43.7849 23.9298C43.7849 23.9298 41.5407 30.4363 43.7849 36.292C46.0291 42.1478 46.7745 42.7984 46.7745 42.7984C46.7745 42.7984 43.0868 30.5215 52.063 29.8708C61.0391 29.2202 71.0837 23.6045 71.8317 30.7616C72.5798 37.9186 73.7055 39.682 73.7055 39.682C73.7055 39.682 80.8104 29.4603 72.2087 26.5324Z" fill="#2F2E41"/>
<path d="M96.6739 72.3038L96.6278 72.5469L96.1109 75.2789L92.5385 94.1767L92.3272 95.2892L91.8835 97.642L91.2766 100.852L89.9309 107.965L89.5458 110.003L89.4014 110.768L89.3512 111.036L88.9515 113.146L88.8301 113.783L87.8549 121.017L87.0031 127.321L89.8535 130.175L88.1541 131.876L87.0387 138.272L87.0408 138.287H41.5163C39.6746 137.093 37.8594 135.861 36.0708 134.593L36.4454 131.786C36.4454 131.786 37.7346 126.772 37.1925 126.173C36.6526 125.574 35.4681 124.503 35.4681 124.503L36.9602 121.017L37.1674 120.533L36.82 113.32L36.8117 113.146L36.6966 110.768L36.6819 110.462L36.6589 110.003L36.2173 100.852L36.2089 100.701L36.075 97.9269L35.9494 95.2892L35.895 94.1767L35.3572 83.0454L34.993 75.4863L34.6749 68.9056L35.9536 68.4719L49.63 63.8187L55.2952 56.446L67.086 56.534L72.8579 56.578L82.489 65.5199L84.6801 66.5674L84.6969 66.5758L86.2685 67.328L90.2532 69.2324L94.466 71.2479L96.6279 72.2808L96.6739 72.3038Z" fill="#CACACA"/>
<path d="M56.8189 116.812C55.9549 117.148 55.028 117.289 54.1034 117.227C53.1789 117.164 52.2793 116.9 51.468 116.452C50.6566 116.004 49.9532 115.383 49.4074 114.633C48.8616 113.884 48.4866 113.023 48.3088 112.113L26.0082 108.946L33.7605 100.167L53.749 104.521C55.2965 104.323 56.8627 104.7 58.1508 105.582C59.4388 106.463 60.3592 107.786 60.7377 109.301C61.1161 110.817 60.9261 112.418 60.2039 113.802C59.4816 115.187 58.2772 116.258 56.8189 116.812V116.812Z" fill="#FFB6B6"/>
<path d="M46.8759 100.852C46.4628 100.327 45.878 99.966 45.2247 99.8313L36.075 97.9269L35.1353 97.732C34.5892 97.618 34.0734 97.3897 33.6215 97.0623C33.1696 96.7348 32.7919 96.3155 32.513 95.8318C32.2238 95.324 32.0488 94.7592 32.0003 94.1767C31.9567 93.6471 32.02 93.1141 32.1865 92.6095L35.3571 83.0454L37.4143 76.8397C37.6637 76.0913 37.8108 75.3126 37.8517 74.5247C37.9664 72.3443 37.2925 70.1955 35.9536 68.4719C34.7764 66.957 33.1438 65.8613 31.2968 65.3467C29.4498 64.8321 27.4864 64.9259 25.6968 65.6142C25.6445 65.6331 25.5901 65.654 25.5377 65.675C24.2543 66.188 23.1076 66.9928 22.1883 68.0259C21.269 69.0589 20.6023 70.2918 20.2409 71.6271L18.0058 79.7666L13.3954 96.5462C12.9338 98.2274 12.8406 99.9886 13.122 101.709C13.4034 103.43 14.0529 105.069 15.0259 106.515C15.9989 107.961 17.2725 109.18 18.7596 110.087C20.2466 110.995 21.912 111.57 23.6417 111.773L36.82 113.32L42.9184 114.036C43.6236 114.121 44.3348 113.937 44.9104 113.52C45.4859 113.103 45.8836 112.485 46.0241 111.788C46.034 111.75 46.0416 111.712 46.0471 111.673L46.1936 110.768L47.4346 103.146L47.4472 103.068C47.5118 102.679 47.4944 102.281 47.396 101.899C47.2976 101.518 47.1204 101.161 46.8759 100.852Z" fill="#CACACA"/>
<path d="M71.0235 117.057C71.9261 117.267 72.8637 117.276 73.7701 117.083C74.6766 116.891 75.53 116.502 76.2701 115.944C77.0103 115.386 77.6192 114.672 78.054 113.853C78.4888 113.034 78.7388 112.129 78.7866 111.203L100.418 104.919L91.5067 97.3223L72.3312 104.454C70.7713 104.477 69.274 105.072 68.1229 106.126C66.9718 107.18 66.247 108.621 66.0858 110.174C65.9246 111.727 66.3382 113.286 67.2483 114.555C68.1583 115.823 69.5016 116.713 71.0235 117.057V117.057Z" fill="#FFB6B6"/>
<path d="M111.158 90.8622L100.87 67.1583C100.028 65.2122 98.5255 63.6275 96.6278 62.6852C96.0413 62.3961 95.4252 62.1714 94.7904 62.0148C94.692 61.9897 94.5936 61.9666 94.4953 61.9478C93.1492 61.6537 91.7529 61.6795 90.4185 62.0232C89.1988 62.3369 88.0588 62.9045 87.0729 63.6889C86.087 64.4734 85.2774 65.4571 84.6968 66.5758C84.6905 66.5852 84.6849 66.595 84.6801 66.6052C84.0316 67.8611 83.6867 69.2519 83.6733 70.6657C83.6598 72.0794 83.9782 73.4766 84.6026 74.7446L84.7303 75.0002L92.0007 89.6177C92.2489 90.1176 92.3888 90.6644 92.4112 91.2221C92.4335 91.7799 92.3378 92.3361 92.1303 92.8542C91.9228 93.3724 91.6082 93.8407 91.2071 94.2286C90.8061 94.6165 90.3277 94.9151 89.8033 95.1048L89.2926 95.2892L80.1094 98.6099C79.4204 98.856 78.8536 99.3603 78.5284 100.016C78.2032 100.673 78.1451 101.429 78.3661 102.128L78.3892 102.201L80.9633 110.447C80.9758 110.485 80.9884 110.523 81.003 110.56C81.0257 110.631 81.0536 110.701 81.0867 110.768C81.3603 111.382 81.8439 111.878 82.4504 112.168C83.0569 112.457 83.7466 112.52 84.3954 112.345L89.3512 111.036L90.362 110.768L103.159 107.384C104.843 106.939 106.411 106.134 107.756 105.026C109.1 103.917 110.189 102.531 110.949 100.962C111.709 99.3932 112.121 97.6783 112.157 95.9351C112.193 94.1918 111.852 92.4614 111.158 90.8622L111.158 90.8622Z" fill="#CACACA"/>
<path d="M9.89621 110.768C12.8618 114.389 16.0601 117.813 19.4707 121.017H114.059C114.97 121.018 115.844 121.382 116.488 122.027C117.132 122.672 117.494 123.547 117.495 124.459L117.631 148.454C123.45 145.778 128.899 142.361 133.844 138.287C135.217 137.158 136.547 135.979 137.835 134.752C138.678 133.952 139.501 133.132 140.304 132.293C146.324 126.015 151.199 118.73 154.707 110.768H9.89621Z" fill="#3F3D56"/>
<path d="M140.304 132.293C139.503 133.133 138.68 133.953 137.835 134.752H117.7V132.293H140.304Z" fill="white"/>
<path d="M96.4855 53.6239C96.3861 53.4402 96.2389 53.2867 96.0595 53.1797C95.8801 53.0728 95.6751 53.0164 95.4663 53.0164H26.8562C26.5486 53.0172 26.2539 53.14 26.0365 53.358C25.8192 53.5759 25.6971 53.8712 25.6968 54.1792V95.2892H96.6278V54.1792C96.6289 53.9849 96.5799 53.7937 96.4855 53.6239Z" fill="#3F3D56"/>
<path d="M25.6347 94.1762V99.2492C25.6347 99.4595 25.6761 99.6678 25.7564 99.8621C25.8368 100.056 25.9547 100.233 26.1032 100.382C26.2518 100.53 26.4281 100.648 26.6222 100.729C26.8163 100.809 27.0243 100.851 27.2344 100.851H53.4145V110.862H53.0667C53.0394 110.862 53.0124 110.868 52.9872 110.878C52.962 110.889 52.9391 110.904 52.9198 110.923C52.9005 110.943 52.8852 110.966 52.8747 110.991C52.8643 111.016 52.8589 111.043 52.8589 111.07V111.767C52.8589 111.794 52.8643 111.821 52.8747 111.846C52.8852 111.872 52.9005 111.895 52.9198 111.914C52.9391 111.933 52.962 111.949 52.9872 111.959C53.0124 111.969 53.0394 111.975 53.0667 111.975H69.319C69.3463 111.975 69.3733 111.969 69.3986 111.959C69.4238 111.949 69.4467 111.933 69.466 111.914C69.4853 111.895 69.5006 111.872 69.511 111.846C69.5215 111.821 69.5268 111.794 69.5268 111.767V111.07C69.5268 111.043 69.5215 111.016 69.511 110.991C69.5006 110.966 69.4853 110.943 69.466 110.923C69.4467 110.904 69.4238 110.889 69.3986 110.878C69.3733 110.868 69.3463 110.862 69.319 110.862H68.9712V100.851H95.1514C95.3615 100.851 95.5695 100.809 95.7636 100.729C95.9576 100.648 96.134 100.53 96.2825 100.382C96.4311 100.233 96.5489 100.056 96.6293 99.8621C96.7097 99.6678 96.7511 99.4595 96.7511 99.2492V94.1762H25.6347Z" fill="#3F3D56"/>
<path d="M60.3336 79.6159C63.952 79.6159 66.8853 76.6793 66.8853 73.0569C66.8853 69.4344 63.952 66.4979 60.3336 66.4979C56.7151 66.4979 53.7818 69.4344 53.7818 73.0569C53.7818 76.6793 56.7151 79.6159 60.3336 79.6159Z" fill="#804EEB"/>
<path d="M77.0267 36.2451H75.9803C75.9803 28.3256 68.1512 23.1361 60.253 23.1319C59.1042 23.1285 57.9579 23.2401 56.8313 23.465C55.563 23.7185 54.2467 24.0223 52.9533 24.4183C47.8532 25.9833 43.1235 29.0086 43.1235 36.2451C43.1224 37.6505 43.301 39.0502 43.6551 40.4102L42.6421 40.6742C42.2664 39.2279 42.0766 37.7395 42.0771 36.2451C42.0771 29.9221 44.6701 25.579 49.1486 22.9894C51.503 21.6276 54.3764 20.7498 57.6684 20.3224C59.0383 20.1399 60.4232 20.0978 61.8017 20.1967C70.8844 20.8503 77.0267 27.8228 77.0267 36.2451Z" fill="#804EEB"/>
<path d="M78.77 36.8254L78.3578 33.775C78.2561 33.0046 77.8854 32.2951 77.3114 31.7721C76.9429 31.4311 76.5017 31.1784 76.0213 31.0333C75.5409 30.8881 75.0338 30.8541 74.5384 30.934L73.8834 31.0241C73.7041 31.0477 73.5314 31.1067 73.3751 31.1977C73.2188 31.2887 73.0821 31.4099 72.973 31.5542C72.8629 31.698 72.7824 31.8622 72.7361 32.0373C72.6897 32.2124 72.6785 32.395 72.703 32.5745L73.6553 39.6014C73.6945 39.8879 73.8227 40.1547 74.0218 40.3641C74.2208 40.5735 74.4806 40.715 74.7644 40.7684C74.8485 40.7853 74.934 40.7937 75.0198 40.7936C75.0814 40.7935 75.1429 40.7893 75.2039 40.781L75.9364 40.6825C76.383 40.6232 76.8127 40.4731 77.1993 40.2414C77.5858 40.0098 77.9209 39.7014 78.1841 39.3354C78.2406 39.2558 78.295 39.174 78.3452 39.0902C78.7375 38.4047 78.8871 37.6067 78.77 36.8254Z" fill="#804EEB"/>
<path d="M73.4606 31.1519C73.2685 31.2454 73.1014 31.3833 72.973 31.5542C72.8629 31.698 72.7824 31.8622 72.7361 32.0373C72.6897 32.2124 72.6785 32.395 72.703 32.5745L73.6553 39.6015C73.6945 39.8879 73.8227 40.1547 74.0218 40.3641C74.2208 40.5735 74.4806 40.715 74.7644 40.7684L73.4606 31.1519Z" fill="white"/>
<path d="M78.7701 36.8254L78.3578 33.775C78.2561 33.0046 77.8854 32.2951 77.3114 31.7721L78.2594 38.7634C78.2736 38.8756 78.3025 38.9855 78.3452 39.0902C78.7375 38.4047 78.8872 37.6067 78.7701 36.8254Z" fill="#3F3D56"/>
<path d="M75.5116 39.0233C75.7979 38.9845 75.9419 38.3023 75.8331 37.4997C75.7244 36.6971 75.4041 36.0779 75.1178 36.1168C74.8314 36.1557 74.6875 36.8379 74.7962 37.6405C74.905 38.4431 75.2253 39.0622 75.5116 39.0233Z" fill="#3F3D56"/>
<path d="M74.8838 35.2522C75.1701 35.2133 75.3141 34.5311 75.2053 33.7285C75.0966 32.9259 74.7763 32.3068 74.4899 32.3457C74.2036 32.3846 74.0597 33.0667 74.1684 33.8693C74.2772 34.6719 74.5975 35.2911 74.8838 35.2522Z" fill="#3F3D56"/>
<path d="M78.8601 36.7188C79.1464 36.6799 79.2904 35.9977 79.1816 35.1951C79.0729 34.3925 78.7526 33.7733 78.4662 33.8122C78.1799 33.8511 78.036 34.5333 78.1447 35.3359C78.2535 36.1385 78.5738 36.7576 78.8601 36.7188Z" fill="#3F3D56"/>
<path d="M60.253 23.1319C59.1042 23.1285 57.9579 23.2401 56.8313 23.465C55.5631 23.7185 54.2467 24.0223 52.9533 24.4183C50.9338 24.3198 49.4479 23.796 49.1487 22.9894C51.503 21.6276 54.3764 20.7498 57.6684 20.3224C59.0383 20.1399 60.4232 20.0978 61.8017 20.1966C61.9476 20.2823 62.0738 20.3979 62.1719 20.5358C62.27 20.6737 62.3378 20.8309 62.3709 20.997C62.4693 21.7261 61.6384 22.5013 60.253 23.1319Z" fill="#3F3D56"/>
<path d="M46.8926 43.5151L45.2812 36.8087C45.2237 36.5667 45.0961 36.3472 44.9144 36.1776C44.7327 36.008 44.505 35.8959 44.2599 35.8554C44.1906 35.8446 44.1207 35.839 44.0506 35.8387C43.9519 35.839 43.8535 35.851 43.7576 35.8743L43.134 36.0251C42.331 36.2195 41.6379 36.7249 41.2067 37.4304C40.7755 38.1358 40.6414 38.9837 40.834 39.7879L41.556 42.7965C41.7209 43.5048 42.1135 44.1393 42.6735 44.6025C42.7643 44.6758 42.8594 44.7437 42.9582 44.8057C43.309 45.0258 43.7003 45.1733 44.109 45.2395C44.5176 45.3057 44.9354 45.2893 45.3377 45.1912L45.9592 45.0404C46.1236 45.002 46.2782 44.9299 46.4134 44.8287C46.6144 44.682 46.7673 44.4788 46.8526 44.2449C46.9379 44.011 46.9519 43.757 46.8926 43.5151Z" fill="#804EEB"/>
<path d="M43.5144 42.2673C43.7953 42.1996 43.8696 41.5064 43.6803 40.7189C43.491 39.9314 43.1098 39.3479 42.8289 39.4156C42.5479 39.4833 42.4736 40.1765 42.6629 40.964C42.8522 41.7515 43.2334 42.335 43.5144 42.2673Z" fill="#3F3D56"/>
<path d="M41.4216 42.8958C41.7025 42.8281 41.7768 42.1349 41.5875 41.3474C41.3982 40.5599 41.017 39.9764 40.7361 40.0441C40.4552 40.1118 40.3809 40.805 40.5702 41.5925C40.7595 42.38 41.1407 42.9635 41.4216 42.8958Z" fill="#3F3D56"/>
<path d="M46.9951 43.4899L45.3837 36.7835C45.3209 36.5217 45.1824 36.2843 44.9855 36.101C44.7885 35.9176 44.542 35.7965 44.2766 35.7527L46.4761 44.9125C46.6934 44.7533 46.8586 44.5331 46.951 44.28C47.0433 44.0268 47.0587 43.7519 46.9951 43.4899Z" fill="white"/>
<path d="M41.1981 38.4596C41.1537 38.2731 41.0702 38.0982 40.9533 37.9463C40.7267 38.5336 40.6851 39.1763 40.834 39.7879L41.556 42.7965C41.7209 43.5048 42.1135 44.1393 42.6735 44.6025L41.1981 38.4596Z" fill="#3F3D56"/>
</g>
<defs>
<clipPath id="clip0_2_199">
<rect width="178" height="155.211" fill="white" transform="translate(0.5)"/>
</clipPath>
</defs>
</svg>
