<svg width="17" height="20" viewBox="0 0 17 20" fill="none" xmlns="http://www.w3.org/2000/svg">
<path d="M3.57358 18.9441L3.57355 18.944L3.56619 18.9492C2.53405 19.6735 1.10649 19.0184 1.00754 17.7425C0.89704 16.3177 0.749977 13.7089 0.750001 9.91627V9.84789C0.749974 8.34442 0.750706 7.02897 0.858537 5.93013C0.967845 4.81624 1.19552 3.80738 1.73079 2.98185C2.85399 1.2496 5.0113 0.763949 8.32913 0.750287C11.6512 0.736607 13.8118 1.21968 14.9363 2.96308C15.4707 3.79171 15.6981 4.80513 15.8074 5.92272C15.9152 7.02573 15.9159 8.34459 15.9159 9.84857V9.91628C15.9159 13.7089 15.7688 16.3177 15.6583 17.7425C15.5593 19.0183 14.1318 19.6735 13.0997 18.9492L13.0997 18.9492L13.0923 18.9441C12.2295 18.3539 11.4314 17.7189 10.8114 17.2253L10.8012 17.2171C10.5185 16.9921 10.2637 16.7892 10.0643 16.6414C9.69049 16.3643 9.38261 16.1784 9.10067 16.0648C8.79555 15.942 8.5505 15.9159 8.33293 15.9159C8.11536 15.9159 7.87031 15.942 7.56519 16.0648C7.28324 16.1784 6.97536 16.3643 6.60157 16.6414C6.40203 16.7893 6.147 16.9923 5.86423 17.2175L5.85446 17.2253C5.23448 17.7189 4.43641 18.3539 3.57358 18.9441Z" stroke="#2C2B2B" stroke-width="1.5" stroke-linecap="round" stroke-linejoin="round"/>
<path d="M9.99951 4.16971C10.8328 4.16971 11.2495 4.16654 11.8745 4.78992C12.4995 5.41331 12.4995 7.4998 12.4995 8.33312" stroke="#2C2B2B" stroke-width="1.5" stroke-linecap="round" stroke-linejoin="round"/>
</svg>
