<svg width="17" height="17" viewBox="0 0 17 17" fill="none" xmlns="http://www.w3.org/2000/svg">
<path d="M5.375 4.26766C6.0463 4.20467 6.82315 4.17876 7.71737 4.17876C13.2402 4.17876 14.562 5.16683 15.2065 9.77689C15.3048 10.48 15.3638 11.0989 15.3736 11.6429M5.375 4.26766C1.9003 4.59369 1.25337 5.91327 1.79351 9.77689C2.43801 14.3869 3.75984 15.375 9.28263 15.375C13.963 15.375 15.4279 14.6654 15.3736 11.6429M5.375 4.26766C5.375 4.26766 5.27986 3.69229 5.375 2.93474C5.60936 1.06868 13.3107 1.31241 14.125 2.93474C15.3738 5.42276 15.3736 11.6429 15.3736 11.6429" stroke="#2C2B2B" stroke-width="2" stroke-linecap="round" stroke-linejoin="round"/>
<path fill-rule="evenodd" clip-rule="evenodd" d="M8.49199 8.125C9.04427 8.125 9.49199 8.57272 9.49199 9.125C9.49199 9.67728 9.04427 10.125 8.49199 10.125L5.98399 10.125C5.4317 10.125 4.98399 9.67729 4.98399 9.125C4.98399 8.57272 5.4317 8.125 5.98399 8.125H8.49199ZM11 10.6335C11.5523 10.6335 12 11.0812 12 11.6335C12 12.1858 11.5523 12.6335 11 12.6335L5.984 12.6335C5.43171 12.6335 4.984 12.1858 4.984 11.6335C4.984 11.0812 5.43171 10.6335 5.984 10.6335L11 10.6335Z" fill="#2C2B2B"/>
</svg>
