<svg width="16" height="15" viewBox="0 0 16 15" fill="none" xmlns="http://www.w3.org/2000/svg">
<g clip-path="url(#clip0_154_936)">
<path d="M8.48718 2.52224L8.00003 3.02182L7.51289 2.52225C5.99756 0.968265 3.54074 0.968263 2.02541 2.52225C0.550783 4.0345 0.505473 6.47163 1.92282 8.04042L5.99488 12.5476C7.07668 13.745 8.92336 13.745 10.0052 12.5476L14.0772 8.0404C15.4946 6.47161 15.4493 4.03449 13.9746 2.52224C12.4593 0.968254 10.0025 0.968256 8.48718 2.52224Z" fill="#804EEB"/>
<path d="M8.00003 3.02182L7.6177 3.39464C7.7182 3.49771 7.85607 3.55583 8.00003 3.55583C8.14399 3.55583 8.28185 3.49771 8.38236 3.39464L8.00003 3.02182ZM8.48718 2.52224L8.10485 2.14942L8.48718 2.52224ZM7.51289 2.52225L7.13056 2.89507L7.51289 2.52225ZM1.92282 8.04042L2.31907 7.68243H2.31907L1.92282 8.04042ZM5.99488 12.5476L5.59863 12.9056L5.99488 12.5476ZM10.0052 12.5476L10.4014 12.9056L10.0052 12.5476ZM14.0772 8.0404L14.4735 8.39839V8.39839L14.0772 8.0404ZM13.9746 2.52224L13.5923 2.89505L13.9746 2.52224ZM2.02541 2.52225L2.40774 2.89507L2.02541 2.52225ZM11.5556 3.05489C11.2606 3.05489 11.0216 3.29398 11.0216 3.5889C11.0216 3.88383 11.2606 4.12292 11.5556 4.12292V3.05489ZM12.4438 5.01113C12.4438 5.30605 12.6829 5.54514 12.9778 5.54514C13.2727 5.54514 13.5118 5.30605 13.5118 5.01113H12.4438ZM8.38236 3.39464L8.86951 2.89506L8.10485 2.14942L7.6177 2.649L8.38236 3.39464ZM7.13056 2.89507L7.6177 3.39464L8.38236 2.649L7.89522 2.14943L7.13056 2.89507ZM1.52658 8.39842L5.59863 12.9056L6.39112 12.1896L2.31907 7.68243L1.52658 8.39842ZM10.4014 12.9056L14.4735 8.39839L13.681 7.68241L9.60892 12.1896L10.4014 12.9056ZM13.5923 2.89505C14.8699 4.20522 14.9097 6.3224 13.681 7.68241L14.4735 8.39839C16.0795 6.62081 16.0287 3.86375 14.357 2.14942L13.5923 2.89505ZM14.357 2.14942C12.6321 0.38051 9.82975 0.380512 8.10485 2.14942L8.86951 2.89506C10.1753 1.556 12.2866 1.556 13.5923 2.89505L14.357 2.14942ZM2.40774 2.89507C3.71349 1.55601 5.82481 1.55601 7.13056 2.89507L7.89522 2.14943C6.17032 0.380522 3.36799 0.380519 1.64308 2.14943L2.40774 2.89507ZM5.59863 12.9056C6.89247 14.3377 9.10757 14.3377 10.4014 12.9056L9.60892 12.1896C8.73915 13.1523 7.26088 13.1523 6.39112 12.1896L5.59863 12.9056ZM1.64308 2.14943C-0.0286027 3.86377 -0.0794033 6.62083 1.52658 8.39842L2.31907 7.68243C1.09035 6.32242 1.13017 4.20524 2.40774 2.89507L1.64308 2.14943ZM11.5556 4.12292C12.0461 4.12292 12.4438 4.52058 12.4438 5.01113H13.5118C13.5118 3.93073 12.636 3.05489 11.5556 3.05489V4.12292Z" fill="white"/>
</g>
<defs>
<clipPath id="clip0_154_936">
<rect width="16" height="13.8667" fill="white" transform="translate(0 0.56665)"/>
</clipPath>
</defs>
</svg>
