<svg width="16" height="20" viewBox="0 0 16 20" fill="none" xmlns="http://www.w3.org/2000/svg">
<path fill-rule="evenodd" clip-rule="evenodd" d="M13 2V3.92072C11.5477 3.02003 9.83458 2.5 8 2.5C6.16542 2.5 4.4523 3.02003 3 3.92072V2C3 0.895431 3.89543 0 5 0H11C12.1046 0 13 0.895431 13 2ZM16 12C16 16.4183 12.4183 20 8 20C3.58172 20 0 16.4183 0 12C0 7.58172 3.58172 4 8 4C12.4183 4 16 7.58172 16 12ZM8.78687 8.50856L9.34316 9.68047C9.47097 9.94974 9.71804 10.1364 10.0038 10.1796L11.2477 10.3675C11.9675 10.4762 12.2549 11.3958 11.7341 11.9236L10.834 12.8358C10.6272 13.0454 10.5328 13.3474 10.5816 13.6434L10.7941 14.9314C10.917 15.6767 10.1646 16.2451 9.5209 15.8932L8.40833 15.285C8.1527 15.1453 7.8473 15.1453 7.59167 15.285L6.47911 15.8932C5.83536 16.2451 5.08297 15.6767 5.20591 14.9314L5.4184 13.6434C5.46722 13.3474 5.37284 13.0454 5.16603 12.8358L4.26595 11.9236C3.74515 11.3958 4.03253 10.4762 4.75226 10.3675L5.99615 10.1796C6.28196 10.1364 6.52903 9.94974 6.65684 9.68047L7.21312 8.50856C7.535 7.83048 8.465 7.83048 8.78687 8.50856Z" fill="#804EEB"/>
</svg>
