<svg width="26" height="15" viewBox="0 0 26 15" fill="none" xmlns="http://www.w3.org/2000/svg">
<path d="M8 12C8 12.5648 8.0639 12.8966 8.15647 13.1048C8.23111 13.2727 8.34311 13.4064 8.59434 13.532C8.88109 13.6754 9.34095 13.8017 10.0885 13.8848C10.8269 13.9668 11.7757 14 13 14C14.2243 14 15.1731 13.9668 15.9115 13.8848C16.6591 13.8017 17.1189 13.6754 17.4057 13.532C17.6569 13.4064 17.7689 13.2727 17.8435 13.1048C17.9361 12.8966 18 12.5648 18 12C18 11.4352 17.9361 11.1034 17.8435 10.8952C17.7689 10.7273 17.6569 10.5936 17.4057 10.468C17.1189 10.3246 16.6591 10.1983 15.9115 10.1152C15.1731 10.0332 14.2243 10 13 10C11.7757 10 10.8269 10.0332 10.0885 10.1152C9.34095 10.1983 8.88109 10.3246 8.59434 10.468C8.34311 10.5936 8.23111 10.7273 8.15647 10.8952C8.0639 11.1034 8 11.4352 8 12Z" stroke="#2C2B2B" stroke-width="2" stroke-linecap="round" stroke-linejoin="round"/>
<circle r="2.75" transform="matrix(-1 0 0 1 13 3.75)" stroke="#2C2B2B" stroke-width="2"/>
<path d="M18.25 2.25C19.6 2.25 20.5 3.375 20.5 4.5C20.5 5.625 19.6 6.75 18.25 6.75" stroke="#2C2B2B" stroke-width="2" stroke-linecap="round" stroke-linejoin="round"/>
<path d="M7.75 2.25C6.4 2.25 5.5 3.375 5.5 4.5C5.5 5.625 6.4 6.75 7.75 6.75" stroke="#2C2B2B" stroke-width="2" stroke-linecap="round" stroke-linejoin="round"/>
<path d="M20.95 13.5C23.05 13.5 24.25 13.1786 24.25 11.25C24.25 9.32143 23.05 9 19.75 9" stroke="#2C2B2B" stroke-width="2" stroke-linecap="round" stroke-linejoin="round"/>
<path d="M5.05 13.5C2.95 13.5 1.75 13.1786 1.75 11.25C1.75 9.32143 2.95 9 6.25 9" stroke="#2C2B2B" stroke-width="2" stroke-linecap="round" stroke-linejoin="round"/>
</svg>
