<svg width="16" height="15" viewBox="0 0 16 15" fill="none" xmlns="http://www.w3.org/2000/svg">
<path d="M1.5 7.5C1.5 9.02124 1.58282 10.1754 1.77952 11.0605C1.97371 11.9343 2.26533 12.4833 2.64101 12.859C3.0167 13.2347 3.56572 13.5263 4.43947 13.7205C5.32457 13.9172 6.47876 14 8 14C9.52124 14 10.6754 13.9172 11.5605 13.7205C12.4343 13.5263 12.9833 13.2347 13.359 12.859C13.7347 12.4833 14.0263 11.9343 14.2205 11.0605C14.4172 10.1754 14.5 9.02124 14.5 7.5C14.5 5.97876 14.4172 4.82457 14.2205 3.93947C14.0263 3.06572 13.7347 2.5167 13.359 2.14101C12.9833 1.76533 12.4343 1.47371 11.5605 1.27952C10.6754 1.08282 9.52124 1 8 1C6.47876 1 5.32457 1.08282 4.43947 1.27952C3.56572 1.47371 3.0167 1.76533 2.64101 2.14101C2.26533 2.5167 1.97371 3.06572 1.77952 3.93947C1.58282 4.82457 1.5 5.97876 1.5 7.5Z" stroke="#2C2B2B" stroke-width="2" stroke-linecap="round" stroke-linejoin="round"/>
<path d="M8 3.75C8 3.75 8 6.25 8 6.875C8 7.5 7.99999 7.5 8.625 7.5C9.25001 7.5 11.75 7.5 11.75 7.5" stroke="#2C2B2B" stroke-width="2" stroke-linecap="round" stroke-linejoin="round"/>
</svg>
